<svg width="142" height="38" viewBox="0 0 142 38" fill="none" xmlns="http://www.w3.org/2000/svg">
<path d="M47.1635 37.8214C46.8448 37.8214 46.5792 37.8214 46.3136 37.8214C46.1542 37.3964 46.1542 33.5718 46.2604 32.5625C46.6854 32.5625 47.0572 32.5625 47.5884 32.5625C48.2259 33.678 48.9164 34.8467 49.6601 36.0684C49.6601 34.8467 49.6601 33.7311 49.6601 32.5625C49.9788 32.5625 50.2444 32.5625 50.5632 32.5625C50.5632 34.2623 50.5632 36.0153 50.5632 37.7683C50.1382 37.7683 49.7132 37.7683 49.2883 37.7683C48.5977 36.6527 47.9603 35.431 47.2166 34.1561C47.1635 35.4841 47.1635 36.6527 47.1635 37.8214Z" fill="#282425"/>
<path d="M74.7855 37.8214C74.3605 37.8214 73.9356 37.8214 73.5106 37.8214C72.82 36.6527 72.1295 35.4841 71.4389 34.2092C71.4389 35.431 71.4389 36.5996 71.4389 37.7683C71.1202 37.7683 70.8546 37.7683 70.5359 37.7683C70.5359 36.0684 70.5359 34.3155 70.5359 32.5625C70.9608 32.5625 71.3858 32.5625 71.8639 32.5625C72.5013 33.678 73.1919 34.8467 73.8825 35.9622C73.9356 35.9622 73.9356 35.9622 73.9887 35.9622C73.9887 34.8467 73.9887 33.7311 73.9887 32.5625C74.3074 32.5625 74.573 32.5625 74.8386 32.5625C74.8917 33.0406 74.8917 36.759 74.7855 37.8214Z" fill="#282425"/>
<path d="M69.3676 35.1129C69.3676 35.6972 69.2614 36.2816 68.9427 36.8128C68.2521 38.0345 66.4992 38.3001 65.3836 37.6096C64.9587 37.344 64.6931 36.9721 64.5337 36.494C64.3212 35.8035 64.2681 35.0598 64.4806 34.3161C65.0118 32.4569 66.9241 32.1382 68.1459 32.7225C68.8364 33.0412 69.1552 33.6256 69.3145 34.3692C69.3676 34.5817 69.3676 34.8473 69.3676 35.1129ZM65.4368 35.0598C65.4899 35.4316 65.4899 35.6441 65.543 35.9097C65.7024 36.6003 66.1804 37.0252 66.8179 37.0252C67.4553 37.0252 67.9865 36.6534 68.199 36.016C68.3584 35.4848 68.3584 34.9004 68.199 34.3692C68.0396 33.838 67.6147 33.4662 67.0304 33.4662C66.446 33.4131 65.968 33.6787 65.7555 34.2099C65.543 34.4755 65.4899 34.8473 65.4368 35.0598Z" fill="#282425"/>
<path d="M107.986 35.113C107.986 35.6442 107.933 36.1754 107.667 36.6535C106.977 38.0346 105.118 38.3533 103.949 37.6097C103.577 37.3441 103.311 36.9722 103.152 36.5473C102.886 35.7505 102.886 34.9537 103.152 34.1569C103.79 32.3508 105.755 32.1914 106.817 32.7757C107.455 33.0945 107.774 33.6788 107.933 34.3693C107.986 34.5818 107.986 34.8474 107.986 35.113ZM104.055 35.113C104.108 35.4317 104.108 35.6973 104.161 35.9629C104.321 36.6004 104.746 36.9722 105.33 37.0253C105.967 37.0785 106.499 36.7066 106.764 36.0692C106.977 35.4849 106.977 34.9005 106.764 34.3693C106.605 33.8381 106.233 33.4663 105.649 33.4132C105.118 33.3601 104.533 33.6257 104.321 34.1569C104.161 34.4756 104.108 34.8474 104.055 35.113Z" fill="#282425"/>
<path d="M128.384 35.1121C128.331 35.4309 128.331 35.7496 128.224 36.1214C127.8 37.7681 126.047 38.3525 124.559 37.715C124.028 37.5025 123.656 37.0776 123.497 36.4933C123.231 35.6965 123.231 34.8997 123.497 34.156C124.134 32.3499 126.1 32.1374 127.215 32.7217C127.906 33.0936 128.224 33.731 128.331 34.5278C128.384 34.7403 128.331 34.8997 128.384 35.1121ZM127.321 35.2715C127.268 34.8997 127.215 34.6341 127.162 34.3685C127.003 33.731 126.578 33.4123 125.993 33.3592C125.409 33.3061 124.878 33.6248 124.612 34.2091C124.347 34.8465 124.347 35.484 124.559 36.1214C124.719 36.6526 125.09 36.9713 125.675 37.0245C126.259 37.0776 126.737 36.812 127.003 36.3339C127.162 35.9621 127.268 35.5902 127.321 35.2715Z" fill="#282425"/>
<path d="M98.2648 37.9259C98.2648 36.0667 98.2648 34.3668 98.2648 32.6139C99.0616 32.5076 99.8584 32.4014 100.655 32.5608C101.186 32.667 101.558 32.8795 101.718 33.4107C101.877 33.9419 101.718 34.42 101.293 34.7918C101.239 34.8449 101.133 34.9512 101.027 35.0043C101.718 35.323 101.93 35.8011 101.824 36.4916C101.718 37.1822 101.239 37.6072 100.549 37.7134C99.8584 37.8728 99.1147 37.8728 98.2648 37.9259ZM99.274 35.4824C99.274 35.8542 99.274 36.0667 99.274 36.2792C99.274 36.4916 99.274 36.7041 99.274 37.0228C99.699 36.9697 100.018 37.0228 100.283 36.9166C100.602 36.8635 100.815 36.5448 100.815 36.226C100.815 35.9073 100.655 35.6948 100.283 35.5886C99.9646 35.5355 99.6459 35.5355 99.274 35.4824ZM99.274 34.7918C99.6459 34.7387 99.9646 34.6856 100.283 34.5793C100.549 34.4731 100.708 34.2075 100.655 33.9419C100.655 33.6232 100.443 33.4107 100.124 33.4107C99.8584 33.3576 99.5397 33.4107 99.2209 33.4107C99.2741 33.8356 99.274 34.2606 99.274 34.7918Z" fill="#282425"/>
<path d="M109.207 32.6161C109.951 32.4567 110.695 32.4567 111.438 32.6161C112.182 32.7223 112.554 33.0942 112.66 33.7847C112.766 34.4222 112.448 35.0065 111.917 35.3252C111.757 35.4315 111.598 35.4846 111.385 35.5908C111.917 36.3345 112.448 37.0782 113.032 37.875C112.554 37.875 112.182 37.875 111.757 37.875C111.279 37.1844 110.801 36.4939 110.376 35.8564C110.323 35.8564 110.27 35.9095 110.27 35.9095C110.27 36.547 110.27 37.2375 110.27 37.9281C109.898 37.9281 109.632 37.9281 109.314 37.9281C109.101 37.3969 109.048 33.7316 109.207 32.6161ZM110.217 34.8471C110.801 35.0065 111.173 34.9003 111.438 34.5284C111.598 34.3159 111.598 33.891 111.438 33.6785C111.12 33.3067 110.695 33.3067 110.217 33.3598C110.217 33.891 110.217 34.3159 110.217 34.8471Z" fill="#282425"/>
<path d="M129.446 32.6161C130.296 32.4567 131.04 32.4567 131.73 32.6161C132.368 32.7223 132.793 33.1473 132.899 33.7316C133.005 34.4222 132.74 35.0065 132.155 35.3252C131.996 35.4315 131.837 35.4846 131.624 35.5908C132.155 36.3345 132.687 37.0782 133.271 37.875C132.793 37.875 132.421 37.875 131.996 37.875C131.571 37.2375 131.093 36.547 130.562 35.7502C130.562 36.547 130.562 37.1844 130.562 37.875C130.19 37.875 129.871 37.875 129.499 37.875C129.446 36.0689 129.446 34.3691 129.446 32.6161ZM130.509 34.9003C131.04 35.0065 131.465 34.9534 131.73 34.4753C131.89 34.2097 131.89 33.891 131.677 33.6785C131.359 33.3598 130.934 33.3067 130.509 33.466C130.509 33.891 130.509 34.3691 130.509 34.9003Z" fill="#282425"/>
<path d="M56.672 37.8214C56.247 37.8214 55.9283 37.8214 55.5033 37.8214C55.3971 37.4495 55.2377 37.1308 55.1315 36.759C54.4941 36.759 53.8566 36.759 53.1661 36.759C53.0598 37.0777 52.9005 37.4495 52.7411 37.8214C52.4224 37.8214 52.1037 37.8214 51.7318 37.8214C52.3693 36.0684 52.9536 34.3155 53.591 32.5625C53.9629 32.5625 54.3347 32.5625 54.8128 32.5625C55.3971 34.3155 56.0345 36.0684 56.672 37.8214ZM54.1222 33.8905C53.8566 34.6342 53.6441 35.2716 53.4317 35.9622C53.9097 35.9622 54.3347 35.9622 54.8659 35.9622C54.6003 35.2185 54.3878 34.5811 54.1222 33.8905Z" fill="#282425"/>
<path d="M117.176 36.759C116.485 36.759 115.848 36.759 115.21 36.759C115.051 37.1308 114.945 37.4495 114.785 37.8214C114.467 37.8214 114.148 37.8214 113.776 37.8214C114.413 36.0153 114.998 34.3155 115.635 32.5625C116.06 32.5625 116.379 32.5625 116.804 32.5625C117.441 34.3155 118.026 36.0153 118.716 37.8214C118.291 37.8214 117.972 37.8214 117.601 37.8214C117.441 37.5027 117.335 37.1839 117.176 36.759ZM116.166 33.8374C115.901 34.5811 115.688 35.2185 115.476 35.9091C115.954 35.9091 116.432 35.9091 116.91 35.9091C116.644 35.2185 116.432 34.5811 116.166 33.8374Z" fill="#282425"/>
<path d="M77.017 37.8214C76.6982 37.8214 76.3795 37.8214 76.0077 37.8214C76.6451 36.0684 77.2295 34.3155 77.8669 32.5625C78.2919 32.5625 78.6637 32.5625 79.0886 32.5625C79.7261 34.2623 80.3104 36.0153 80.9478 37.7683C80.576 37.7683 80.2042 37.7683 79.8323 37.7683C79.7261 37.4495 79.5667 37.1308 79.4074 36.759C78.7699 36.759 78.1325 36.759 77.4419 36.759C77.3357 37.1308 77.1763 37.4495 77.017 37.8214ZM79.1418 35.9622C78.8762 35.2716 78.6637 34.6342 78.3981 33.8905C78.1325 34.6342 77.92 35.2716 77.7075 35.9622C78.2387 35.9622 78.6637 35.9622 79.1418 35.9622Z" fill="#282425"/>
<path d="M97.0432 37.8214C96.6182 37.8214 96.2464 37.8214 95.9277 37.8214C95.7683 37.4495 95.6621 37.1308 95.5027 36.759C94.8653 36.759 94.2278 36.759 93.5373 36.759C93.3779 37.1308 93.2717 37.4495 93.1123 37.8214C92.7936 37.8214 92.4749 37.8214 92.103 37.8214C92.7405 36.0684 93.3248 34.3155 93.9622 32.5625C94.3341 32.5625 94.7059 32.5625 95.184 32.5625C95.7683 34.3155 96.4058 36.0153 97.0432 37.8214ZM95.2371 35.9622C94.9715 35.2716 94.759 34.6342 94.4934 33.8905C94.2278 34.6342 94.0154 35.2716 93.8029 35.9622C94.3341 35.9622 94.759 35.9622 95.2371 35.9622Z" fill="#282425"/>
<path d="M137.255 32.6152C137.627 32.6152 137.946 32.6152 138.317 32.6152C138.211 32.8808 138.105 33.0402 138.052 33.2527C137.839 33.6245 137.68 34.0495 137.467 34.4213C136.671 36.068 136.458 36.068 136.671 37.6085C136.671 37.6616 136.618 37.7148 136.618 37.821C136.352 37.821 136.033 37.821 135.661 37.821C135.661 37.396 135.661 36.9711 135.661 36.5461C135.661 36.1743 135.608 35.8024 135.396 35.4837C135.024 34.7932 134.705 34.0495 134.333 33.3589C134.227 33.1464 134.121 32.934 134.015 32.6152C134.44 32.6152 134.758 32.6152 135.13 32.6152C135.449 33.3589 135.821 34.1026 136.193 34.8994C136.564 34.1026 136.936 33.3589 137.255 32.6152Z" fill="#282425"/>
<path d="M59.4872 37.8741C59.1154 37.8741 58.8498 37.8741 58.4779 37.8741C58.4779 36.4399 58.4779 35.0056 58.4779 33.5183C57.9998 33.5183 57.5749 33.4652 57.0968 33.4652C57.0968 33.1996 57.0968 32.934 57.0968 32.6152C58.3186 32.6152 59.5934 32.6152 60.8152 32.6152C60.8152 32.934 60.8152 33.1464 60.8152 33.4652C60.3902 33.4652 59.9653 33.5183 59.4341 33.5183C59.4872 34.9525 59.4872 36.3868 59.4872 37.8741Z" fill="#282425"/>
<path d="M118.981 33.4124C118.981 33.0937 118.981 32.8812 118.981 32.5625C120.256 32.5625 121.478 32.5625 122.7 32.5625C122.7 32.8281 122.7 33.0937 122.7 33.4124C122.275 33.4124 121.85 33.4124 121.372 33.4124C121.372 34.8998 121.372 36.334 121.372 37.8214C121.159 37.8214 121 37.8745 120.841 37.8745C120.681 37.8745 120.575 37.8745 120.363 37.8745C120.363 36.3871 120.363 34.9529 120.363 33.4655C119.831 33.4655 119.406 33.4124 118.981 33.4124Z" fill="#282425"/>
<path d="M82.1693 32.5625C82.488 32.5625 82.8068 32.5625 83.1786 32.5625C83.1786 34.0499 83.1786 35.431 83.1786 36.9183C83.7629 36.9183 84.2941 36.9183 84.8784 36.9183C84.8784 37.2371 84.8784 37.5027 84.8784 37.7683C84.0285 37.7683 83.1255 37.7683 82.2224 37.7683C82.1693 36.0684 82.1693 34.3686 82.1693 32.5625Z" fill="#282425"/>
<path d="M89.2344 37.0242C89.8718 37.0242 90.403 37.0242 90.9342 37.0242C90.9342 37.3429 90.9342 37.5554 90.9342 37.821C90.0312 37.821 89.1813 37.821 88.2251 37.821C88.2251 36.1212 88.2251 34.3682 88.2251 32.6152C88.5438 32.6152 88.8094 32.6152 89.1813 32.6152C89.2344 34.0495 89.2344 35.4837 89.2344 37.0242Z" fill="#282425"/>
<path d="M62.1434 32.5634C62.3028 32.5634 62.409 32.5103 62.5684 32.5103C62.7277 32.5103 62.834 32.5103 63.0464 32.5634C63.0464 34.3163 63.0464 36.0162 63.0464 37.8223C62.7277 37.8223 62.4621 37.8223 62.1434 37.8223C62.0372 37.3973 62.0372 33.2008 62.1434 32.5634Z" fill="#282425"/>
<path d="M31.7582 25.9234C29.6865 24.7017 29.899 22.2581 31.9176 21.0895C29.8459 19.549 29.3678 17.4242 29.9521 15.0338C30.5896 12.5372 32.3957 11.1561 34.8392 10.7311C36.0078 10.5186 37.2296 10.678 38.4513 10.678C40.3105 10.678 42.2229 10.678 44.1352 10.678C44.1352 11.4217 44.1352 12.0591 44.1352 12.6965C43.2853 12.6965 42.4353 12.6965 41.4792 12.6965C42.276 13.5996 42.7541 14.5026 42.8603 15.6181C43.0728 18.7522 41.3198 21.0895 38.2389 21.7269C36.964 21.9925 35.636 21.9925 34.308 21.7801C33.6705 21.6738 33.0331 22.0988 32.8206 22.7893C32.6613 23.4268 32.9269 23.9049 33.6174 24.1173C34.1486 24.2767 34.6798 24.3298 35.2641 24.3829C36.7515 24.4361 38.292 24.3829 39.7793 24.4892C41.6385 24.6485 43.179 25.4985 43.7102 27.4639C44.2414 29.5356 43.604 31.3417 41.9041 32.6697C40.0449 34.157 37.8139 34.6351 35.5297 34.5289C34.4142 34.4757 33.2987 34.3164 32.2363 33.9977C30.5896 33.5196 29.4741 32.4041 29.2616 30.6511C28.996 28.845 29.6865 27.3577 31.1739 26.2953C31.3333 26.2421 31.5457 26.0828 31.7582 25.9234ZM36.2203 20.2927V20.2396C36.3265 20.2396 36.3797 20.2396 36.4859 20.2396C38.8763 20.1865 40.3637 18.8585 40.523 16.6274C40.6824 14.237 39.3544 12.7497 36.9109 12.4841C36.4328 12.4309 35.9016 12.4841 35.3704 12.5372C33.6174 12.8028 32.2894 14.1839 32.1832 15.8837C32.0238 17.9554 32.8737 19.4428 34.5736 19.974C35.0517 20.1333 35.636 20.1865 36.2203 20.2927ZM36.2734 26.5077C35.7953 26.5609 35.2641 26.614 34.7861 26.5609C33.5643 26.4015 32.7675 27.0921 32.1301 27.9951C31.0677 29.4825 31.4395 31.3417 33.0862 32.0853C35.4766 33.2009 37.9201 33.0415 40.2043 31.6604C41.3198 30.9698 41.7448 29.7481 41.4261 28.5263C41.1605 27.5701 40.2574 26.8796 38.9825 26.7202C38.0795 26.5609 37.1765 26.5609 36.2734 26.5077Z" fill="#262223"/>
<path d="M18.8502 26.4539C17.9472 26.4539 17.0441 26.4539 16.1411 26.4539C15.5037 24.754 14.9193 23.0542 14.2819 21.3012C11.679 21.3012 9.02303 21.3012 6.42015 21.3012C4.87967 21.3012 4.87966 21.3012 4.34846 22.7886C3.97662 23.851 3.55166 24.9134 3.17982 26.0289C3.07358 26.4008 2.8611 26.5601 2.43614 26.507C1.7987 26.4539 1.16126 26.507 0.470703 26.507C1.05502 24.9665 1.58622 23.426 2.17054 21.9387C4.1891 16.5736 6.20767 11.2084 8.17311 5.84332C8.33247 5.41836 8.49183 5.20588 8.96991 5.259C9.50111 5.31212 10.0323 5.259 10.5635 5.259C10.8822 5.259 11.0416 5.31212 11.1478 5.63084C13.6976 12.4833 16.2473 19.2827 18.744 26.1352C18.8502 26.2414 18.8502 26.3476 18.8502 26.4539ZM9.60735 8.28684C8.33247 11.899 7.00447 15.5643 5.62335 19.2827C8.27935 19.2827 10.9353 19.2827 13.5913 19.2827C12.2102 15.5643 10.8822 11.899 9.60735 8.28684Z" fill="#272324"/>
<path d="M59.1151 18.3262C59.062 21.1416 58.2652 23.6913 55.8217 25.4974C53.1125 27.4628 48.8098 27.1441 46.685 24.86C45.5164 23.6382 45.0383 22.0977 44.8789 20.5041C44.5602 17.9012 44.8789 15.4046 46.5788 13.2267C49.0754 10.0395 54.4936 9.66763 57.2028 12.483C58.4245 13.7579 58.9026 15.3515 59.062 17.0513C59.062 17.4232 59.062 17.8481 59.1151 18.3262ZM56.7247 18.8043C56.7778 17.6888 56.5122 16.892 56.2997 16.0952C55.7685 13.8641 54.3343 12.6424 52.1033 12.5361C50.1909 12.4299 48.3317 13.7048 47.6412 15.6702C46.9506 17.6888 47.0037 19.7604 47.6943 21.779C48.3317 23.5851 49.8191 24.6475 51.6783 24.7006C53.5906 24.7537 55.1842 23.7976 55.8748 21.9915C56.3528 20.9291 56.6716 19.7073 56.7247 18.8043Z" fill="#262223"/>
<path d="M94.7056 18.1672C94.5993 19.6014 94.7056 20.9294 95.2368 22.1512C95.9805 23.7979 97.3085 24.5416 99.0614 24.7009C100.761 24.8603 102.408 24.5947 103.948 23.9041C104.055 23.851 104.161 23.851 104.32 23.7979C104.373 24.4353 104.48 25.0728 104.533 25.8696C103.63 26.082 102.674 26.4008 101.717 26.5601C100.23 26.8257 98.7427 26.8788 97.2022 26.5601C94.7587 26.082 93.1651 24.5947 92.5277 22.2574C91.784 19.442 91.784 16.6798 93.1651 14.0238C95.0243 10.4116 100.071 9.40236 103.099 12.0052C104.48 13.1739 104.905 14.7675 105.011 16.4673C105.117 18.1672 105.117 18.1672 103.417 18.1672C100.602 18.1672 97.6803 18.1672 94.7056 18.1672ZM94.8649 16.3611C97.4678 16.3611 100.071 16.3611 102.62 16.3611C102.78 14.13 101.346 12.5364 99.1677 12.3771C96.9366 12.2708 94.9712 14.0769 94.8649 16.3611Z" fill="#272324"/>
<path d="M63.6304 26.4548C62.7805 26.4548 62.0899 26.4548 61.2931 26.4548C61.2931 21.249 61.2931 16.0964 61.2931 10.9437C62.0368 10.9437 62.7805 10.9437 63.6304 10.9437C63.5773 11.953 63.5241 12.9623 63.471 14.0778C63.6835 13.7591 63.7897 13.5997 63.896 13.3873C65.5427 10.5719 68.8361 10.0938 71.1734 10.9437C72.9795 11.6343 73.6169 13.1748 73.6701 14.9277C73.7232 18.7524 73.6701 22.577 73.6701 26.4017C72.8733 26.4017 72.1296 26.4017 71.2797 26.4017C71.2797 26.1892 71.2797 25.9236 71.2797 25.7111C71.2797 22.577 71.2797 19.4429 71.2797 16.3089C71.2797 16.0433 71.2797 15.7777 71.2797 15.4589C71.1203 13.0685 69.4736 11.953 67.1894 12.6967C65.7552 13.1748 64.799 14.2372 64.3209 15.6183C63.9491 16.6276 63.7366 17.7431 63.6835 18.8055C63.5773 21.3553 63.6304 23.8519 63.6304 26.4548Z" fill="#282425"/>
<path d="M89.9779 26.4537C89.1811 26.4537 88.3843 26.4537 87.5875 26.4537C87.5875 26.1881 87.5875 25.9756 87.5875 25.7632C87.5875 22.6291 87.5875 19.5481 87.5875 16.414C87.5875 16.0953 87.5875 15.8297 87.5875 15.511C87.4281 13.0675 85.7814 11.9519 83.4442 12.7487C81.5318 13.4393 80.6819 14.9798 80.2038 16.7859C80.0445 17.4764 79.9382 18.2732 79.9382 18.9638C79.8851 21.4073 79.9382 23.8508 79.9382 26.4006C79.1414 26.4006 78.3978 26.4006 77.601 26.4006C77.601 21.248 77.601 16.0953 77.601 10.8895C78.3446 10.8895 79.0883 10.8895 79.9382 10.8895C79.8851 11.8988 79.832 12.855 79.7258 14.0236C79.8851 13.8111 79.9913 13.6518 80.0445 13.4924C81.6381 10.6239 84.9315 10.0396 87.375 10.8364C89.0218 11.4207 89.9779 13.0143 89.9779 15.2985C89.9779 18.167 89.9779 21.0355 89.9779 23.904C89.9779 24.7539 89.9779 25.6038 89.9779 26.4537Z" fill="#282425"/>
<path d="M20.9751 10.8909C21.7188 10.8909 22.4625 10.8909 23.3124 10.8909C23.2593 11.9002 23.153 12.9095 23.0999 13.9187C24.2154 11.7408 25.7559 10.3066 28.4119 10.6253C28.4119 11.4221 28.4119 12.1658 28.4119 12.9095C28.1463 12.9095 27.9869 12.9095 27.8276 12.9095C25.9684 12.8563 24.8529 13.6 24.1092 15.2999C23.4717 16.7872 23.3655 18.3808 23.3124 19.9744C23.3124 22.0992 23.3124 24.224 23.3124 26.4551C22.5156 26.4551 21.7719 26.4551 20.9751 26.4551C20.9751 21.2493 20.9751 16.0967 20.9751 10.8909Z" fill="#272324"/>
<path d="M121.319 17.8481L116.272 26.6129H136.777L131.784 17.9013L121.319 17.8481Z" fill="#0082CA"/>
<path d="M126.525 8.81792L121.478 0L111.173 17.7952L121.319 17.8483L126.525 8.81792Z" fill="#77B300"/>
<path d="M111.173 17.7959L116.272 26.6138L121.319 17.849L111.173 17.7959Z" fill="#007836"/>
<path d="M131.783 17.9014L141.929 17.9546L131.624 0L126.525 8.81792L131.783 17.9014Z" fill="#CD202C"/>
<path d="M131.783 17.9009L136.777 26.6126L141.929 17.954L131.783 17.9009Z" fill="#0B1F8F"/>
<path d="M131.624 0H121.478L126.525 8.81792L131.624 0Z" fill="#A12B2F"/>
</svg>
