<svg width="159" height="34" viewBox="0 0 159 34" fill="none" xmlns="http://www.w3.org/2000/svg">
<path d="M52.2524 26.4287C49.0839 30.7564 44.8528 33.1443 39.5127 33.4573C34.1843 33.7703 29.6788 31.9388 25.9809 28.0593C25.8534 28.2486 25.7298 28.4418 25.5984 28.6273C24.2344 30.567 22.3758 31.7919 20.1076 32.4179C19.0644 32.7038 18.0017 32.8197 16.9198 32.8197C11.6068 32.8159 6.29377 32.8197 0.980743 32.8197C0.89187 32.8197 0.802998 32.8197 0.698669 32.8197C0.698669 22.2748 0.698669 11.7492 0.698669 1.20434C0.768222 1.20048 0.837774 1.19275 0.907326 1.19275C5.87259 1.19275 10.8379 1.1657 15.8031 1.20434C18.2877 1.22366 20.552 1.97714 22.4801 3.60003C23.6162 4.55445 24.4431 5.73297 24.9493 7.13561C24.9724 7.2013 25.0033 7.26312 25.042 7.35972C25.0961 7.29403 25.1386 7.24767 25.1734 7.2013C27.2986 4.38056 30.0459 2.42923 33.3999 1.32799C34.8141 0.864306 36.2631 0.609281 37.7507 0.535865C39.903 0.4354 42.0128 0.655649 44.08 1.27776C45.5058 1.70666 46.8428 2.33263 48.0754 3.17113C48.1334 3.20977 48.1875 3.25227 48.2647 3.30637C47.1094 5.12632 45.9579 6.93468 44.7949 8.76236C44.6712 8.67735 44.5553 8.59621 44.4432 8.51893C42.9401 7.4911 41.2631 6.97332 39.4586 6.82262C37.5575 6.6642 35.7569 7.03515 34.0606 7.88137C32.1866 8.81646 30.7105 10.192 29.6518 12.0004C28.6433 13.7238 28.1718 15.5862 28.3071 17.5801C28.4732 19.9912 29.4045 22.0855 31.0505 23.8514C32.5846 25.4974 34.4547 26.5716 36.6688 26.9812C40.0112 27.5995 42.9633 26.7764 45.4904 24.4735C46.9626 23.1327 47.8822 21.4673 48.3884 19.5739C48.7902 18.0708 49.0955 16.5445 49.4394 15.0259C49.7988 13.4417 50.2354 11.8845 50.9077 10.4007C51.6612 8.73918 52.662 7.24767 53.8869 5.89526C55.448 4.17577 57.2795 2.82723 59.4124 1.896C60.873 1.25844 62.3993 0.856578 63.9758 0.655649C64.9882 0.524273 66.0006 0.47404 67.0168 0.512681C70.1969 0.628601 73.1568 1.4555 75.8152 3.25227C75.877 3.29477 75.9388 3.34114 76.0123 3.39524C74.8685 5.21519 73.7325 7.02742 72.5926 8.83964C72.2294 8.61167 71.8894 8.38369 71.5339 8.1789C70.0385 7.32108 68.4233 6.87672 66.6961 6.83035C63.9372 6.75307 61.5338 7.65725 59.5168 9.52357C57.7857 11.1233 56.7347 13.1094 56.3753 15.4471C56.0469 17.6032 56.3599 19.6821 57.3606 21.6141C58.999 24.7787 61.5724 26.7069 65.135 27.1512C67.8746 27.4951 70.3283 26.7494 72.3917 24.8753C73.7209 23.6697 74.5942 22.1705 75.1274 20.4665C75.1351 20.4356 75.139 20.4047 75.1506 20.3428C71.8816 20.3428 68.6204 20.3428 65.3167 20.3428C65.5099 20.0376 65.6721 19.7748 65.8383 19.5121C66.9202 17.8119 68.006 16.1156 69.0841 14.4154C69.1614 14.2918 69.2425 14.2454 69.3932 14.2454C73.5161 14.2493 77.6352 14.2493 81.7581 14.2454C81.9165 14.2454 81.986 14.2686 82.0131 14.4541C82.5347 18.0669 81.9976 21.5059 80.3438 24.7594C79.6058 26.2161 78.6553 27.526 77.5115 28.693C75.1854 31.0655 72.3917 32.5686 69.1343 33.21C67.894 33.4534 66.6343 33.5385 65.3708 33.4844C63.0523 33.3878 60.8228 32.8854 58.7131 31.9001C57.1404 31.1621 55.7146 30.2038 54.4549 29.0021C53.655 28.2409 52.9402 27.4063 52.3181 26.4943C52.2988 26.4828 52.2795 26.4634 52.2524 26.4287ZM7.54571 26.9658C7.65777 26.9658 7.74664 26.9658 7.83551 26.9658C10.834 26.9658 13.8363 26.9658 16.8348 26.9658C17.3217 26.9658 17.7931 26.8846 18.2529 26.7185C19.9801 26.0964 20.9732 24.3073 20.5675 22.5376C20.1965 20.9302 18.6895 19.7594 16.9701 19.7555C13.9059 19.7516 10.8417 19.7555 7.77755 19.7555C7.70414 19.7555 7.62686 19.7632 7.54571 19.7671C7.54571 22.1705 7.54571 24.5507 7.54571 26.9658ZM7.54571 7.04674C7.54571 9.36901 7.54571 11.6604 7.54571 13.9788C7.63072 13.9788 7.70414 13.9788 7.78142 13.9788C10.351 13.9788 12.9206 14.0097 15.4901 13.9711C18.2104 13.9286 19.6671 11.104 18.4925 8.87442C17.8356 7.62634 16.7266 7.06992 15.351 7.05833C12.8278 7.03515 10.3008 7.0506 7.77755 7.0506C7.71186 7.04674 7.64231 7.04674 7.54571 7.04674ZM144.123 20.509C144.479 20.509 144.815 20.509 145.178 20.509C145.178 18.7277 145.178 16.9541 145.178 15.1844C145.259 15.2269 145.298 15.281 145.333 15.3351C146.372 17.0159 147.408 18.6968 148.447 20.3737C148.482 20.4317 148.551 20.5128 148.606 20.5128C149.007 20.5244 149.413 20.5206 149.827 20.5206C149.827 18.1828 149.827 15.8606 149.827 13.5306C149.479 13.5306 149.139 13.5306 148.772 13.5306C148.772 15.2771 148.772 17.012 148.772 18.7431C148.501 18.3838 148.273 18.0206 148.045 17.6535C147.226 16.3281 146.411 15.0028 145.588 13.6813C145.545 13.6117 145.468 13.5228 145.402 13.5228C144.977 13.5074 144.556 13.5151 144.119 13.5151C144.123 15.8722 144.123 18.1906 144.123 20.509ZM112.593 13.5344C112.241 13.5344 111.901 13.5344 111.53 13.5344C111.53 15.2771 111.53 17.0043 111.53 18.7315C111.256 18.3683 111.024 17.9974 110.796 17.6264C109.981 16.3088 109.166 14.9873 108.35 13.6697C108.315 13.6156 108.261 13.5306 108.211 13.5306C107.771 13.519 107.326 13.5228 106.878 13.5228C106.878 15.8644 106.878 18.1867 106.878 20.5051C107.234 20.5051 107.577 20.5051 107.941 20.5051C107.941 18.7161 107.941 16.9464 107.941 15.1728C108.026 15.2191 108.064 15.2771 108.103 15.3389C108.466 15.9263 108.826 16.5097 109.189 17.0971C109.861 18.1867 110.533 19.2764 111.21 20.3621C111.252 20.4278 111.333 20.5128 111.399 20.5167C111.789 20.5322 112.183 20.5244 112.593 20.5244C112.593 18.179 112.593 15.8567 112.593 13.5344ZM91.1747 8.19435C91.1747 5.84889 91.1747 3.53434 91.1747 1.21207C91.2056 1.20434 91.2326 1.19661 91.2558 1.19661C92.2527 1.20048 93.2496 1.18116 94.2466 1.21593C95.0812 1.24684 95.7767 1.79554 96.0008 2.50651C96.2327 3.25227 96.0086 3.9362 95.3749 4.39602C95.3478 4.41534 95.3246 4.43466 95.286 4.46171C95.3208 4.49262 95.3478 4.5158 95.3787 4.53513C96.0433 4.92153 96.3988 5.50499 96.3563 6.27007C96.3061 7.18198 95.796 7.78477 94.9344 8.06684C94.6871 8.14798 94.4166 8.18276 94.1577 8.18662C93.2458 8.20208 92.33 8.19049 91.4181 8.19049C91.3408 8.19435 91.2635 8.19435 91.1747 8.19435ZM92.2759 6.17733C92.2759 6.47486 92.2798 6.76853 92.2759 7.06606C92.2759 7.17039 92.303 7.22062 92.415 7.22062C93.0178 7.21289 93.6245 7.23221 94.2272 7.2013C94.7875 7.17039 95.2126 6.71057 95.2164 6.17733C95.2203 5.63251 94.7798 5.16882 94.1963 5.14564C93.6051 5.12246 93.0139 5.13405 92.4228 5.12632C92.2952 5.12632 92.2721 5.18428 92.2759 5.29247C92.2798 5.58614 92.2759 5.8798 92.2759 6.17733ZM92.2759 3.17499C92.2759 3.44547 92.2836 3.71595 92.272 3.98643C92.2682 4.12168 92.3146 4.16418 92.4498 4.16032C92.956 4.15259 93.466 4.16418 93.9722 4.15645C94.517 4.14872 94.9344 3.73141 94.9498 3.19045C94.9653 2.67267 94.5634 2.21671 94.0263 2.19353C93.4931 2.17035 92.9598 2.17807 92.4266 2.17035C92.3107 2.16648 92.2682 2.20899 92.2682 2.32877C92.2798 2.60698 92.2759 2.88905 92.2759 3.17499ZM132.114 6.43622C132.087 6.39758 132.056 6.36281 132.029 6.3203C131.009 4.67423 129.989 3.02816 128.976 1.37822C128.891 1.23912 128.802 1.18502 128.64 1.19275C128.327 1.20434 128.01 1.19661 127.694 1.19661C127.624 1.19661 127.558 1.20434 127.493 1.2082C127.493 3.54594 127.493 5.86048 127.493 8.18662C127.844 8.18662 128.18 8.18662 128.551 8.18662C128.551 6.40531 128.551 4.63173 128.551 2.85428C128.617 2.88132 128.644 2.9161 128.667 2.95474C129.68 4.58922 130.696 6.2237 131.693 7.86591C131.843 8.11707 131.998 8.22913 132.296 8.20208C132.593 8.17117 132.894 8.19435 133.196 8.19435C133.196 5.84889 133.196 3.53434 133.196 1.2082C132.848 1.2082 132.512 1.2082 132.16 1.2082C132.16 2.09306 132.16 2.95861 132.16 3.82801C132.16 4.69355 132.16 5.55909 132.16 6.42077C132.141 6.42849 132.126 6.43236 132.114 6.43622ZM122.156 1.04205C124.212 1.04205 125.854 2.67267 125.85 4.70901C125.847 6.74921 124.193 8.35278 122.091 8.34891C120.101 8.34505 118.462 6.69511 118.466 4.69355C118.47 2.66494 120.108 1.04205 122.156 1.04205ZM124.707 4.71673C124.707 3.24841 123.582 2.08147 122.168 2.08147C120.742 2.08147 119.61 3.24068 119.61 4.69741C119.61 6.14642 120.742 7.30949 122.153 7.30949C123.574 7.30949 124.707 6.16188 124.707 4.71673ZM105.24 17.0314C105.232 19.0677 103.582 20.6829 101.523 20.6751C99.4785 20.6674 97.8363 19.0213 97.8633 16.9773C97.8903 14.8598 99.633 13.318 101.665 13.3605C103.621 13.4031 105.247 15.0453 105.24 17.0314ZM104.096 17.0236C104.096 15.5785 102.972 14.427 101.58 14.4038C100.228 14.3806 99.0109 15.4973 99.0032 16.9773C98.9955 18.4726 100.12 19.6396 101.557 19.6396C102.968 19.6357 104.096 18.4726 104.096 17.0236ZM106.043 29.3267C106.005 27.3831 107.662 25.6327 109.826 25.6868C111.72 25.7331 113.443 27.3019 113.412 29.4194C113.385 31.3823 111.731 32.9975 109.703 32.9936C107.562 32.9898 105.993 31.2316 106.043 29.3267ZM112.276 29.346C112.268 27.9665 111.244 26.7301 109.722 26.7223C108.269 26.7185 107.168 27.8699 107.176 29.346C107.179 30.8723 108.335 31.9465 109.718 31.9581C111.128 31.9735 112.272 30.7911 112.276 29.346ZM101.349 8.34891C99.293 8.34891 97.6585 6.73375 97.6585 4.70128C97.6585 2.65335 99.2852 1.03819 101.352 1.04205C103.397 1.04205 105.043 2.67653 105.039 4.69741C105.039 6.72602 103.397 8.34891 101.349 8.34891ZM98.7945 4.69741C98.7945 6.11937 99.9305 7.30949 101.298 7.31336C102.755 7.31722 103.899 6.17733 103.899 4.7206C103.903 3.26 102.767 2.08534 101.356 2.08147C99.9383 2.08147 98.7984 3.24454 98.7945 4.69741ZM100.584 30.312C100.584 31.1659 100.584 31.989 100.584 32.8313C100.216 32.8313 99.861 32.8313 99.4862 32.8313C99.4862 30.5091 99.4862 28.1868 99.4862 25.8375C99.5441 25.8336 99.6098 25.8297 99.6716 25.8297C100.541 25.8297 101.41 25.822 102.28 25.8297C103.076 25.8375 103.771 26.0809 104.27 26.7416C104.969 27.669 104.892 29.6242 103.25 30.1381C103.219 30.1458 103.192 30.1652 103.134 30.1884C103.683 31.0693 104.231 31.9388 104.795 32.8429C104.359 32.8429 103.957 32.8468 103.555 32.8352C103.501 32.8352 103.439 32.7463 103.4 32.6884C102.941 31.9426 102.485 31.1969 102.025 30.455C101.99 30.397 101.921 30.3197 101.863 30.3159C101.441 30.3081 101.024 30.312 100.584 30.312ZM100.591 29.2996C101.179 29.2996 101.743 29.2996 102.311 29.2996C103.026 29.2996 103.532 28.8089 103.536 28.1134C103.54 27.3753 103.041 26.8614 102.315 26.8537C101.801 26.8498 101.283 26.8537 100.769 26.8537C100.715 26.8537 100.657 26.8614 100.591 26.8692C100.591 27.6806 100.591 28.4727 100.591 29.2996ZM157.137 13.8861C156.361 13.4146 155.507 13.2833 154.63 13.3992C152.609 13.6658 151.256 15.4239 151.48 17.4603C151.724 19.6628 153.807 21.1079 155.967 20.5708C157.334 20.2308 158.324 19.087 158.467 17.6844C158.501 17.3482 158.532 17.012 158.443 16.672C157.535 16.672 156.639 16.672 155.746 16.672C155.708 16.672 155.646 16.6836 155.627 16.7145C155.418 17.0275 155.221 17.3444 154.993 17.696C155.82 17.696 156.593 17.696 157.385 17.696C157.365 17.7887 157.354 17.8583 157.338 17.9278C156.886 19.6434 155.086 19.9951 153.922 19.3614C152.933 18.8204 152.431 17.6921 152.64 16.5136C152.883 15.1264 154.17 14.2145 155.557 14.4386C155.99 14.5082 156.38 14.6666 156.743 14.9293C156.94 14.6241 157.126 14.3304 157.327 14.0174C157.253 13.9633 157.195 13.9208 157.137 13.8861ZM96.5147 26.22C95.8656 25.8181 95.1507 25.6868 94.3934 25.6906C92.4112 25.7022 90.5255 27.4101 90.8385 29.829C91.0781 31.6992 92.5 32.9395 94.3741 32.9859C95.4251 33.0091 96.3331 32.6536 97.0248 31.8383C97.6817 31.0655 97.8981 30.1536 97.8324 29.1605C97.8247 29.0176 97.7628 28.9789 97.6276 28.9828C96.8625 28.9905 96.0936 28.9982 95.3285 28.9789C95.0773 28.9712 94.9266 29.0407 94.8107 29.2649C94.6871 29.5083 94.5248 29.7285 94.3548 29.9951C95.1739 29.9951 95.9429 29.9951 96.735 29.9951C96.7195 30.0802 96.708 30.142 96.6925 30.2038C96.2868 31.8885 94.5634 32.3058 93.354 31.7262C91.9707 31.0655 91.4877 29.1451 92.3802 27.8429C92.9173 27.0624 93.667 26.6914 94.6214 26.7339C95.1585 26.7571 95.6415 26.9233 96.0858 27.244C96.2829 26.9387 96.4722 26.645 96.6693 26.3321C96.6191 26.2934 96.5688 26.2548 96.5147 26.22ZM114.95 26.0113C114.95 27.4256 114.95 28.8437 114.95 30.2579C114.95 30.397 114.965 30.54 114.992 30.6791C115.398 32.8854 117.786 33.4805 119.328 32.6188C120.325 32.0663 120.738 31.1621 120.742 30.0531C120.75 28.7162 120.742 27.3753 120.742 26.0384C120.742 25.9766 120.734 25.9147 120.734 25.8452C120.367 25.8452 120.012 25.8452 119.645 25.8452C119.645 25.9379 119.645 26.0152 119.645 26.0925C119.645 27.4178 119.645 28.7432 119.645 30.0686C119.645 30.567 119.51 31.023 119.169 31.4017C118.683 31.9388 117.875 32.1126 117.164 31.8383C116.507 31.5833 116.067 30.9302 116.067 30.1922C116.063 28.8166 116.067 27.4372 116.067 26.0616C116.067 25.9882 116.059 25.9147 116.055 25.8375C115.676 25.8375 115.325 25.8375 114.958 25.8375C114.958 25.8993 114.95 25.9573 114.95 26.0113ZM122.84 25.8297C123.061 25.8297 123.265 25.8259 123.47 25.8297C124.301 25.8413 125.132 25.8143 125.959 25.8722C126.967 25.9418 127.755 26.6721 127.945 27.6149C128.153 28.6698 127.724 29.6126 126.809 30.1111C126.395 30.3352 125.943 30.3931 125.483 30.4009C125.051 30.4086 124.622 30.4009 124.189 30.4047C124.119 30.4047 124.05 30.4086 123.965 30.4125C123.965 31.2239 123.965 32.0199 123.965 32.8313C123.582 32.8313 123.219 32.8313 122.84 32.8313C122.84 30.5091 122.84 28.1868 122.84 25.8297ZM123.984 26.8653C123.972 26.9001 123.965 26.9117 123.961 26.9233C123.961 27.7076 123.961 28.492 123.953 29.2764C123.953 29.4117 124.034 29.4117 124.131 29.4117C124.614 29.4117 125.097 29.4194 125.58 29.4078C126.283 29.3924 126.793 28.9171 126.84 28.2486C126.89 27.5183 126.469 26.9387 125.758 26.873C125.174 26.8228 124.579 26.8653 123.984 26.8653ZM120.997 13.6619C120.997 15.0994 120.989 16.5329 121.001 17.9703C121.005 18.519 121.175 19.0252 121.488 19.4734C122.033 20.2501 122.806 20.6094 123.737 20.6751C125.414 20.7949 126.782 19.5275 126.785 17.8544C126.785 16.4904 126.785 15.1225 126.785 13.7585C126.785 13.6851 126.785 13.6117 126.785 13.5383C126.403 13.5383 126.051 13.5383 125.68 13.5383C125.68 13.6272 125.68 13.7044 125.68 13.7779C125.68 15.138 125.68 16.4943 125.68 17.8544C125.68 19.0097 124.691 19.8289 123.559 19.6164C122.693 19.4541 122.114 18.7393 122.11 17.8235C122.106 16.4711 122.11 15.1187 122.11 13.7663C122.11 13.6929 122.11 13.6156 122.11 13.5306C121.735 13.5306 121.384 13.5306 121.009 13.5306C121.001 13.5885 120.997 13.6233 120.997 13.6619ZM114.622 20.026C115.503 20.5824 116.461 20.7795 117.485 20.6249C118.493 20.4703 119.243 19.8366 119.343 18.7856C119.413 18.0553 119.212 17.4332 118.551 17.0507C118.2 16.8459 117.805 16.7107 117.423 16.5638C117.029 16.4131 116.615 16.3011 116.225 16.1388C115.889 15.9997 115.688 15.7292 115.703 15.3544C115.723 14.9332 115.928 14.6202 116.337 14.4734C116.87 14.2802 117.392 14.3691 117.894 14.5816C118.099 14.6666 118.292 14.7825 118.505 14.8907C118.69 14.597 118.868 14.3111 119.054 14.0213C119.007 13.9865 118.972 13.9556 118.934 13.9324C118.169 13.4456 117.33 13.2755 116.441 13.3992C115.333 13.5537 114.683 14.2377 114.587 15.2964C114.517 16.077 114.853 16.7029 115.557 17.0507C115.819 17.1821 116.101 17.2825 116.376 17.383C116.839 17.5569 117.311 17.7037 117.767 17.893C117.999 17.9896 118.157 18.1828 118.215 18.4379C118.331 18.9479 117.991 19.4425 117.415 19.5971C116.959 19.7169 116.503 19.6821 116.067 19.5237C115.688 19.3846 115.329 19.1991 114.935 19.0252C114.768 19.288 114.587 19.5739 114.397 19.8753C114.486 19.9332 114.552 19.9835 114.622 20.026ZM106.237 7.61088C107.172 8.25231 108.207 8.48415 109.32 8.28322C110.321 8.10548 110.943 7.49496 111.078 6.58306C111.179 5.91072 111.059 5.29634 110.487 4.84811C110.077 4.5274 109.591 4.3767 109.108 4.21441C108.717 4.08303 108.319 3.96711 107.948 3.7971C107.203 3.44934 107.4 2.55675 107.863 2.26308C108.211 2.04283 108.586 2.01578 108.98 2.06602C109.44 2.12398 109.849 2.32491 110.255 2.57993C110.445 2.27854 110.626 1.98874 110.808 1.69507C110.754 1.65643 110.723 1.63325 110.692 1.61393C109.927 1.12706 109.092 0.953179 108.2 1.07296C107.06 1.22752 106.268 2.00419 106.349 3.31409C106.376 3.76619 106.542 4.14872 106.89 4.44625C107.284 4.78629 107.771 4.94085 108.254 5.10314C108.686 5.24997 109.119 5.39294 109.536 5.57455C109.815 5.69819 109.985 5.9339 109.989 6.26234C109.996 6.75307 109.707 7.12788 109.193 7.26699C108.543 7.44087 107.929 7.2979 107.342 7.01583C107.129 6.91536 106.924 6.79558 106.708 6.67966C106.523 6.97332 106.349 7.25153 106.163 7.5452C106.198 7.57997 106.213 7.59929 106.237 7.61088ZM91.8509 14.4502C90.4869 15.8335 90.4753 18.1597 91.7813 19.5237C93.2419 21.0499 95.6608 20.9379 96.8471 19.883C96.6616 19.5932 96.4722 19.2957 96.2829 19.002C94.9614 20.0144 93.4699 19.7323 92.6662 18.8784C91.7813 17.9355 91.6925 16.4595 92.4498 15.4317C92.8092 14.9409 93.2806 14.6086 93.8756 14.4695C94.7682 14.257 95.5642 14.5004 96.2868 15.0491C96.4838 14.74 96.6693 14.4502 96.8509 14.1604C95.6376 13.0978 93.2767 13.0051 91.8509 14.4502ZM112.207 2.21285C112.292 2.21285 112.369 2.21285 112.442 2.21285C113.014 2.21285 113.59 2.22058 114.162 2.20899C114.343 2.20512 114.401 2.25535 114.401 2.44469C114.394 4.2801 114.397 6.11551 114.397 7.95092C114.397 8.0282 114.397 8.10162 114.397 8.18276C114.788 8.18276 115.155 8.18276 115.537 8.18276C115.537 6.19279 115.537 4.21828 115.537 2.21285C116.275 2.21285 116.998 2.21285 117.724 2.21285C117.724 1.86122 117.724 1.54051 117.724 1.21207C115.881 1.21207 114.05 1.21207 112.207 1.21207C112.207 1.54824 112.207 1.86895 112.207 2.21285ZM135.186 14.5352C135.367 14.5313 135.41 14.5932 135.41 14.767C135.406 16.6025 135.406 18.4379 135.406 20.2733C135.406 20.3544 135.406 20.4356 135.406 20.509C135.8 20.509 136.163 20.509 136.534 20.509C136.534 20.4162 136.534 20.339 136.534 20.2617C136.534 18.434 136.538 16.6025 136.531 14.7748C136.531 14.5932 136.573 14.5275 136.762 14.5313C137.195 14.5468 137.624 14.5352 138.057 14.5352C138.273 14.5352 138.49 14.5352 138.721 14.5352C138.721 14.1874 138.721 13.8629 138.721 13.5344C136.878 13.5344 135.047 13.5344 133.211 13.5344C133.211 13.8706 133.211 14.1874 133.211 14.5352C133.888 14.5391 134.537 14.5468 135.186 14.5352ZM129.935 13.5306C129.556 13.5306 129.2 13.5306 128.83 13.5306C128.83 15.8606 128.83 18.179 128.83 20.5051C130.352 20.5051 131.867 20.5051 133.385 20.5051C133.385 20.1689 133.385 19.8482 133.385 19.5005C132.241 19.5005 131.105 19.5005 129.939 19.5005C129.935 17.4912 129.935 15.5167 129.935 13.5306ZM140.487 20.509C140.858 20.509 141.214 20.509 141.569 20.509C141.569 18.1751 141.569 15.8567 141.569 13.5306C141.202 13.5306 140.85 13.5306 140.487 13.5306C140.487 15.8722 140.487 18.1906 140.487 20.509Z" fill="#177B57"/>
</svg>
