<svg width="40" height="40" viewBox="0 0 40 40" fill="none" xmlns="http://www.w3.org/2000/svg">
<g clip-path="url(#clip0_462_315)">
<path opacity="0.3" d="M24.986 7.5H13.6414C11.5537 7.5 9.85992 8.89844 9.85992 10.625V12.5C9.85992 14.4891 10.6567 16.3968 12.0751 17.8033C13.4934 19.2098 15.4171 20 17.423 20H21.2045C23.2103 20 25.134 19.2098 26.5523 17.8033C27.9707 16.3968 28.7675 14.4891 28.7675 12.5V10.625C28.7675 8.89844 27.0737 7.5 24.986 7.5ZM16.4776 13.4375L15.5322 16.25L14.5868 13.4375L11.7507 12.5L14.5868 11.5625L15.5322 8.75L16.4776 11.5625L19.3137 12.5L16.4776 13.4375ZM15.5322 35C15.1979 35 14.8773 35.1317 14.6409 35.3661C14.4045 35.6005 14.2717 35.9185 14.2717 36.25V40H16.7927V36.25C16.7927 35.9185 16.6599 35.6005 16.4235 35.3661C16.1871 35.1317 15.8665 35 15.5322 35ZM23.0952 35C22.8459 35 22.6022 35.0733 22.3949 35.2107C22.1876 35.348 22.0261 35.5432 21.9307 35.7716C21.8353 36.0001 21.8103 36.2514 21.8589 36.4939C21.9076 36.7363 22.0276 36.9591 22.2039 37.1339C22.3802 37.3087 22.6048 37.4277 22.8493 37.476C23.0938 37.5242 23.3473 37.4995 23.5776 37.4049C23.8079 37.3102 24.0048 37.15 24.1433 36.9445C24.2818 36.7389 24.3557 36.4972 24.3557 36.25C24.3557 35.9185 24.2229 35.6005 23.9865 35.3661C23.7501 35.1317 23.4295 35 23.0952 35Z" fill="#008489"/>
<path d="M27.4755 25.1092C25.0442 26.6696 22.2098 27.4997 19.3137 27.4997C16.4176 27.4997 13.5833 26.6696 11.152 25.1092C5.83421 25.6639 1.66667 30.0779 1.66667 35.4998V36.2498C1.66667 37.2444 2.06508 38.1982 2.77425 38.9015C3.48342 39.6047 4.44526 39.9998 5.44818 39.9998H11.7507V34.9998C11.7507 34.3368 12.0163 33.7009 12.4891 33.232C12.9619 32.7632 13.6031 32.4998 14.2717 32.4998H24.3557C25.0244 32.4998 25.6656 32.7632 26.1384 33.232C26.6111 33.7009 26.8768 34.3368 26.8768 34.9998V39.9998H33.1793C34.1822 39.9998 35.144 39.6047 35.8532 38.9015C36.5624 38.1982 36.9608 37.2444 36.9608 36.2498V35.4998C36.9608 30.0779 32.7932 25.6639 27.4755 25.1092ZM6.70869 17.4998H7.77224C8.75066 19.7286 10.364 21.6256 12.4143 22.958C14.4645 24.2904 16.8625 25.0001 19.3137 25.0001C21.765 25.0001 24.1629 24.2904 26.2132 22.958C28.2634 21.6256 29.8768 19.7286 30.8552 17.4998H31.9188C32.2531 17.4998 32.5737 17.3681 32.8101 17.1337C33.0465 16.8993 33.1793 16.5813 33.1793 16.2498V8.74981C33.1793 8.41829 33.0465 8.10035 32.8101 7.86593C32.5737 7.63151 32.2531 7.49981 31.9188 7.49981H30.8552C29.8768 5.27101 28.2634 3.37399 26.2132 2.04163C24.1629 0.709257 21.765 -0.000488281 19.3137 -0.000488281C16.8625 -0.000488281 14.4645 0.709257 12.4143 2.04163C10.364 3.37399 8.75066 5.27101 7.77224 7.49981H6.70869C6.37438 7.49981 6.05377 7.63151 5.81738 7.86593C5.58099 8.10035 5.44818 8.41829 5.44818 8.74981V16.2498C5.44818 16.5813 5.58099 16.8993 5.81738 17.1337C6.05377 17.3681 6.37438 17.4998 6.70869 17.4998ZM9.85995 10.6248C9.85995 8.89825 11.5538 7.49981 13.6415 7.49981H24.986C27.0737 7.49981 28.7675 8.89825 28.7675 10.6248V12.4998C28.7675 14.4889 27.9707 16.3966 26.5524 17.8031C25.134 19.2096 23.2103 19.9998 21.2045 19.9998H17.423C15.4171 19.9998 13.4935 19.2096 12.0751 17.8031C10.6568 16.3966 9.85995 14.4889 9.85995 12.4998V10.6248Z" fill="#008489"/>
</g>
<defs>
<clipPath id="clip0_462_315">
<rect width="40" height="40" fill="white"/>
</clipPath>
</defs>
</svg>
