<svg width="40" height="29" viewBox="0 0 40 29" fill="none" xmlns="http://www.w3.org/2000/svg">
<path opacity="0.3" d="M6 12.3333C6.79113 12.3333 7.56448 12.0987 8.22228 11.6591C8.88008 11.2196 9.39277 10.5949 9.69552 9.86399C9.99827 9.13308 10.0775 8.32882 9.92314 7.55289C9.7688 6.77697 9.38784 6.06424 8.82843 5.50483C8.26902 4.94542 7.55629 4.56445 6.78036 4.41011C6.00444 4.25577 5.20017 4.33499 4.46927 4.63774C3.73836 4.94049 3.11365 5.45318 2.67412 6.11097C2.2346 6.76877 2 7.54213 2 8.33325C2.00099 9.39381 2.42274 10.4107 3.17267 11.1606C3.9226 11.9105 4.93944 12.3323 6 12.3333V12.3333ZM36 14.3333H32C30.9435 14.3321 29.9298 14.7502 29.1812 15.4958C30.4472 16.1847 31.5324 17.1633 32.3481 18.3516C33.1638 19.5399 33.687 20.9042 33.875 22.3333H38C38.5304 22.3333 39.0391 22.1225 39.4142 21.7475C39.7893 21.3724 40 20.8637 40 20.3333V18.3333C39.999 17.2727 39.5773 16.2559 38.8273 15.5059C38.0774 14.756 37.0606 14.3342 36 14.3333ZM4 14.3333C2.93944 14.3342 1.9226 14.756 1.17267 15.5059C0.422739 16.2559 0.000992881 17.2727 0 18.3333V20.3333C0 20.8637 0.210714 21.3724 0.585786 21.7475C0.960859 22.1225 1.46957 22.3333 2 22.3333H6.11875C6.30918 20.9042 6.83404 19.5402 7.6507 18.3522C8.46736 17.1641 9.55277 16.1855 10.8188 15.4958C10.0702 14.7502 9.05647 14.3321 8 14.3333H4ZM34 12.3333C34.7911 12.3333 35.5645 12.0987 36.2223 11.6591C36.8801 11.2196 37.3928 10.5949 37.6955 9.86399C37.9983 9.13308 38.0775 8.32882 37.9231 7.55289C37.7688 6.77697 37.3878 6.06424 36.8284 5.50483C36.269 4.94542 35.5563 4.56445 34.7804 4.41011C34.0044 4.25577 33.2002 4.33499 32.4693 4.63774C31.7384 4.94049 31.1136 5.45318 30.6741 6.11097C30.2346 6.76877 30 7.54213 30 8.33325C30.001 9.39381 30.4227 10.4107 31.1727 11.1606C31.9226 11.9105 32.9394 12.3323 34 12.3333Z" fill="#008489"/>
<path d="M24.8 16.3333H24.2812C22.9478 16.985 21.4842 17.3269 20 17.3333C18.4625 17.3333 17.025 16.9583 15.7188 16.3333H15.2C13.2906 16.3338 11.4595 17.0925 10.1094 18.4426C8.75923 19.7928 8.0005 21.6239 8 23.5333V25.3333C8 26.1289 8.31607 26.892 8.87868 27.4546C9.44129 28.0172 10.2044 28.3333 11 28.3333H29C29.7956 28.3333 30.5587 28.0172 31.1213 27.4546C31.6839 26.892 32 26.1289 32 25.3333V23.5333C31.9995 21.6239 31.2408 19.7928 29.8906 18.4426C28.5405 17.0925 26.7094 16.3338 24.8 16.3333V16.3333ZM20 14.3333C21.3845 14.3333 22.7378 13.9227 23.889 13.1536C25.0401 12.3844 25.9373 11.2911 26.4672 10.012C26.997 8.73296 27.1356 7.32549 26.8655 5.96763C26.5954 4.60976 25.9287 3.36248 24.9497 2.38351C23.9708 1.40454 22.7235 0.737855 21.3656 0.467758C20.0078 0.197661 18.6003 0.336285 17.3212 0.866099C16.0421 1.39591 14.9489 2.29312 14.1797 3.44427C13.4105 4.59541 13 5.94879 13 7.33326C12.9995 8.25265 13.1802 9.16313 13.5318 10.0126C13.8834 10.8621 14.399 11.634 15.0492 12.2841C15.6993 12.9342 16.4711 13.4498 17.3206 13.8014C18.1701 14.153 19.0806 14.3338 20 14.3333Z" fill="#008489"/>
</svg>
