<svg width="72" height="26" viewBox="0 0 72 26" fill="none" xmlns="http://www.w3.org/2000/svg">
<g clip-path="url(#clip0_2103_2142)">
<path fill-rule="evenodd" clip-rule="evenodd" d="M24.3564 8.93922V17.8893H26.6988H29.0413V11.2464V4.6034H35.4971C39.6103 4.6034 42.0481 4.63522 42.2387 4.68296C42.8342 4.85002 43.3345 5.71719 43.3345 6.59231C43.3345 7.4197 42.9057 8.25504 42.3578 8.50962C42.0402 8.65282 41.7464 8.66078 35.8544 8.66078C32.4558 8.66078 29.6766 8.68464 29.6766 8.70851C29.6766 8.74033 30.2007 9.78252 30.8518 11.0236L32.0191 13.283L37.8554 13.2512C43.8347 13.2114 44.0412 13.1955 45.1211 12.8693C45.6134 12.7182 45.7326 12.6386 46.2328 12.1294C47.4716 10.8724 47.8368 9.43247 47.7654 6.12293C47.7177 4.10219 47.6145 3.55325 47.0904 2.46333C46.4631 1.15861 45.6849 0.553978 44.1682 0.203929C43.4717 0.0373916 43.2643 0.0368626 33.9978 0.0132207L33.9089 0.012994L24.3564 -0.0188293V8.93922ZM18.7582 6.0911V12.201L18.5835 12.559C18.5659 12.5947 18.55 12.6285 18.5349 12.6605C18.4868 12.7624 18.4472 12.8463 18.3899 12.9155C18.1223 13.2383 17.4686 13.241 13.765 13.2564C13.5596 13.2573 13.3449 13.2581 13.1204 13.2591L8.34805 13.283L7.18077 15.248C6.99111 15.5671 6.80421 15.882 6.63188 16.1723C6.2198 16.8666 5.89103 17.4206 5.80704 17.5552L5.60059 17.8973L12.5804 17.8734L19.5523 17.8495L20.1558 17.6347C21.7439 17.0699 22.7682 16.0197 23.1732 14.548C23.2447 14.2775 23.2844 12.392 23.3003 7.08556L23.332 -0.0108731H21.0451H18.7582V6.0911ZM48.9245 14.618C48.6547 13.924 48.6547 13.1251 48.6547 6.76733V-0.0108733H50.9178H53.1809V6.63209V13.275L58.4376 13.291L63.6943 13.3148L65.0998 15.5822L66.4973 17.8495L59.581 17.8734C53.4667 17.8893 52.6171 17.8734 52.228 17.762C50.9575 17.3961 49.6552 16.2345 49.0597 14.9298C49.0084 14.817 48.9636 14.7186 48.9245 14.618Z" fill="#ED2025"/>
</g>
<path d="M6.95474 21.3951H7.60056V23.9222C7.59939 24.1538 7.55025 24.3533 7.45314 24.5206C7.35604 24.6867 7.22032 24.8149 7.046 24.9049C6.87285 24.9939 6.67103 25.0383 6.44055 25.0383C6.22996 25.0383 6.04043 25.0009 5.87195 24.926C5.70465 24.8499 5.57186 24.7376 5.47359 24.589C5.37531 24.4405 5.32617 24.2556 5.32617 24.0345H5.97374C5.97491 24.1316 5.99597 24.2153 6.03692 24.2854C6.07904 24.3556 6.13695 24.4095 6.21066 24.4469C6.28436 24.4843 6.36918 24.5031 6.46512 24.5031C6.56925 24.5031 6.65758 24.4814 6.73011 24.4381C6.80265 24.3937 6.85764 24.3282 6.89508 24.2416C6.93369 24.155 6.95357 24.0485 6.95474 23.9222V21.3951Z" fill="black"/>
<path d="M9.47219 25.0418C9.20193 25.0418 8.96852 24.9857 8.77197 24.8733C8.57659 24.7599 8.42625 24.5996 8.32096 24.3925C8.21566 24.1842 8.16301 23.9391 8.16301 23.6572C8.16301 23.3799 8.21566 23.1366 8.32096 22.9271C8.42742 22.7165 8.576 22.5527 8.76671 22.4358C8.95741 22.3176 9.18145 22.2585 9.43884 22.2585C9.60498 22.2585 9.76175 22.2854 9.90916 22.3392C10.0577 22.3919 10.1888 22.4738 10.3023 22.5849C10.4169 22.6961 10.507 22.8376 10.5725 23.0096C10.638 23.1804 10.6708 23.384 10.6708 23.6203V23.8151H8.46135V23.3869H10.0618C10.0607 23.2652 10.0343 23.157 9.98287 23.0623C9.93139 22.9663 9.85944 22.8909 9.76702 22.8359C9.67576 22.7809 9.56929 22.7534 9.44762 22.7534C9.31775 22.7534 9.20368 22.785 9.10541 22.8482C9.00713 22.9102 8.9305 22.9921 8.87551 23.0939C8.82169 23.1945 8.7942 23.305 8.79303 23.4255V23.7993C8.79303 23.9561 8.82169 24.0907 8.87902 24.203C8.93635 24.3141 9.01649 24.3995 9.11945 24.4592C9.2224 24.5177 9.34291 24.5469 9.48096 24.5469C9.57339 24.5469 9.65704 24.5341 9.73192 24.5083C9.80679 24.4814 9.87173 24.4422 9.92671 24.3907C9.9817 24.3393 10.0232 24.2755 10.0513 24.1995L10.6445 24.2661C10.607 24.4229 10.5357 24.5598 10.4304 24.6768C10.3263 24.7926 10.1929 24.8827 10.0303 24.9471C9.86763 25.0102 9.68161 25.0418 9.47219 25.0418Z" fill="black"/>
<path d="M12.5543 22.2936V22.785H11.0047V22.2936H12.5543ZM11.3873 21.6478H12.0225V24.1784C12.0225 24.2638 12.0354 24.3293 12.0611 24.3749C12.0881 24.4194 12.1232 24.4498 12.1664 24.4662C12.2097 24.4826 12.2577 24.4908 12.3103 24.4908C12.3501 24.4908 12.3864 24.4878 12.4192 24.482C12.4531 24.4761 12.4788 24.4709 12.4964 24.4662L12.6034 24.9628C12.5695 24.9745 12.5209 24.9874 12.4578 25.0015C12.3958 25.0155 12.3197 25.0237 12.2296 25.026C12.0705 25.0307 11.9272 25.0067 11.7997 24.9541C11.6721 24.9003 11.5709 24.8172 11.4961 24.7049C11.4224 24.5926 11.3861 24.4522 11.3873 24.2837V21.6478Z" fill="black"/>
<path d="M14.3395 24.9892V21.3951H15.6873C15.9634 21.3951 16.195 21.4466 16.3822 21.5495C16.5706 21.6525 16.7127 21.794 16.8087 21.9742C16.9058 22.1532 16.9543 22.3568 16.9543 22.5849C16.9543 22.8154 16.9058 23.0201 16.8087 23.1991C16.7116 23.3781 16.5682 23.5191 16.3787 23.6221C16.1892 23.7239 15.9558 23.7748 15.6785 23.7748H14.7852V23.2395H15.5907C15.7522 23.2395 15.8844 23.2114 15.9874 23.1553C16.0903 23.0991 16.1664 23.0219 16.2155 22.9236C16.2658 22.8253 16.291 22.7124 16.291 22.5849C16.291 22.4574 16.2658 22.3451 16.2155 22.248C16.1664 22.1509 16.0897 22.0754 15.9856 22.0216C15.8826 21.9666 15.7499 21.9391 15.5872 21.9391H14.9906V24.9892H14.3395Z" fill="black"/>
<path d="M17.4918 24.9892V22.2936H18.1077V22.7429H18.1358C18.185 22.5873 18.2692 22.4673 18.3885 22.3831C18.509 22.2977 18.6465 22.255 18.8009 22.255C18.836 22.255 18.8752 22.2568 18.9185 22.2603C18.963 22.2626 18.9998 22.2667 19.0291 22.2725V22.8569C19.0022 22.8476 18.9595 22.8394 18.901 22.8324C18.8436 22.8242 18.7881 22.8201 18.7343 22.8201C18.6184 22.8201 18.5143 22.8452 18.4219 22.8955C18.3306 22.9447 18.2587 23.0131 18.206 23.1009C18.1534 23.1886 18.1271 23.2898 18.1271 23.4045V24.9892H17.4918Z" fill="black"/>
<path d="M20.5159 25.0418C20.2527 25.0418 20.0246 24.9839 19.8315 24.8681C19.6385 24.7523 19.4887 24.5902 19.3823 24.382C19.277 24.1737 19.2243 23.9304 19.2243 23.6519C19.2243 23.3735 19.277 23.1295 19.3823 22.9201C19.4887 22.7107 19.6385 22.5481 19.8315 22.4322C20.0246 22.3164 20.2527 22.2585 20.5159 22.2585C20.7792 22.2585 21.0073 22.3164 21.2004 22.4322C21.3934 22.5481 21.5426 22.7107 21.6479 22.9201C21.7543 23.1295 21.8076 23.3735 21.8076 23.6519C21.8076 23.9304 21.7543 24.1737 21.6479 24.382C21.5426 24.5902 21.3934 24.7523 21.2004 24.8681C21.0073 24.9839 20.7792 25.0418 20.5159 25.0418ZM20.5195 24.5329C20.6622 24.5329 20.7815 24.4937 20.8775 24.4153C20.9734 24.3358 21.0448 24.2293 21.0916 24.0959C21.1395 23.9625 21.1635 23.814 21.1635 23.6502C21.1635 23.4852 21.1395 23.336 21.0916 23.2027C21.0448 23.0681 20.9734 22.9611 20.8775 22.8815C20.7815 22.8019 20.6622 22.7622 20.5195 22.7622C20.3732 22.7622 20.2515 22.8019 20.1544 22.8815C20.0585 22.9611 19.9865 23.0681 19.9386 23.2027C19.8918 23.336 19.8684 23.4852 19.8684 23.6502C19.8684 23.814 19.8918 23.9625 19.9386 24.0959C19.9865 24.2293 20.0585 24.3358 20.1544 24.4153C20.2515 24.4937 20.3732 24.5329 20.5195 24.5329Z" fill="black"/>
<path d="M22.3468 26V22.2936H22.9715V22.7394H23.0084C23.0411 22.6738 23.0874 22.6042 23.147 22.5305C23.2067 22.4556 23.2874 22.3919 23.3892 22.3392C23.491 22.2854 23.6208 22.2585 23.7788 22.2585C23.987 22.2585 24.1748 22.3117 24.3421 22.4182C24.5106 22.5235 24.644 22.6797 24.7422 22.8868C24.8417 23.0927 24.8914 23.3454 24.8914 23.6449C24.8914 23.9409 24.8429 24.1924 24.7458 24.3995C24.6487 24.6066 24.5164 24.7645 24.3491 24.8733C24.1818 24.9822 23.9923 25.0366 23.7805 25.0366C23.6261 25.0366 23.498 25.0108 23.3962 24.9593C23.2944 24.9079 23.2125 24.8459 23.1505 24.7733C23.0897 24.6996 23.0423 24.63 23.0084 24.5645H22.9821V26H22.3468ZM22.9698 23.6414C22.9698 23.8157 22.9943 23.9684 23.0435 24.0994C23.0938 24.2305 23.1657 24.3328 23.2593 24.4065C23.3541 24.4791 23.4688 24.5153 23.6033 24.5153C23.7437 24.5153 23.8613 24.4779 23.956 24.403C24.0508 24.327 24.1222 24.2234 24.1701 24.0924C24.2193 23.9602 24.2438 23.8099 24.2438 23.6414C24.2438 23.4741 24.2199 23.3255 24.1719 23.1956C24.1239 23.0658 24.0526 22.964 23.9578 22.8903C23.863 22.8166 23.7449 22.7797 23.6033 22.7797C23.4676 22.7797 23.3523 22.8154 23.2576 22.8868C23.1628 22.9581 23.0909 23.0582 23.0417 23.1869C22.9938 23.3156 22.9698 23.4671 22.9698 23.6414Z" fill="black"/>
<path d="M27.1535 23.8555V22.2936H27.7888V24.9892H27.1728V24.5101H27.1447C27.0839 24.661 26.9839 24.7844 26.8447 24.8804C26.7066 24.9763 26.5364 25.0243 26.334 25.0243C26.1573 25.0243 26.0011 24.9851 25.8654 24.9067C25.7309 24.8271 25.6256 24.7119 25.5495 24.561C25.4735 24.4089 25.4354 24.2252 25.4354 24.0099V22.2936H26.0707V23.9116C26.0707 24.0825 26.1175 24.2182 26.2111 24.3188C26.3047 24.4194 26.4276 24.4697 26.5797 24.4697C26.6733 24.4697 26.7639 24.4469 26.8517 24.4013C26.9394 24.3556 27.0114 24.2878 27.0675 24.1977C27.1249 24.1064 27.1535 23.9924 27.1535 23.8555Z" fill="black"/>
<path d="M29.0774 21.3951V24.9892H28.4421V21.3951H29.0774Z" fill="black"/>
<path d="M31.8611 23.0061L31.282 23.0693C31.2656 23.0108 31.2369 22.9558 31.196 22.9043C31.1562 22.8528 31.1024 22.8113 31.0345 22.7797C30.9667 22.7481 30.8836 22.7323 30.7853 22.7323C30.6531 22.7323 30.542 22.761 30.4519 22.8183C30.363 22.8757 30.3191 22.9499 30.3203 23.0412C30.3191 23.1196 30.3478 23.1834 30.4063 23.2325C30.4659 23.2816 30.5642 23.322 30.7011 23.3536L31.1609 23.4519C31.4159 23.5068 31.6055 23.594 31.7295 23.7133C31.8547 23.8327 31.9179 23.9889 31.919 24.1819C31.9179 24.3515 31.8681 24.5013 31.7699 24.6312C31.6728 24.7599 31.5376 24.8605 31.3645 24.933C31.1913 25.0056 30.9924 25.0418 30.7678 25.0418C30.4379 25.0418 30.1723 24.9728 29.9711 24.8347C29.7698 24.6955 29.6499 24.5019 29.6113 24.2539L30.2308 24.1942C30.2589 24.3159 30.3185 24.4077 30.4098 24.4697C30.501 24.5317 30.6198 24.5627 30.766 24.5627C30.917 24.5627 31.0381 24.5317 31.1293 24.4697C31.2217 24.4077 31.2679 24.3311 31.2679 24.2398C31.2679 24.1626 31.2381 24.0988 31.1784 24.0485C31.1199 23.9982 31.0287 23.9596 30.9047 23.9327L30.4449 23.8362C30.1863 23.7824 29.995 23.6917 29.871 23.5642C29.747 23.4355 29.6856 23.2729 29.6868 23.0763C29.6856 22.9102 29.7306 22.7663 29.8219 22.6446C29.9143 22.5217 30.0424 22.427 30.2062 22.3603C30.3712 22.2924 30.5613 22.2585 30.7766 22.2585C31.0925 22.2585 31.3411 22.3258 31.5224 22.4603C31.7049 22.5949 31.8178 22.7768 31.8611 23.0061Z" fill="black"/>
<path d="M32.4429 24.9892V22.2936H33.0782V24.9892H32.4429ZM32.7623 21.911C32.6617 21.911 32.5751 21.8777 32.5025 21.811C32.43 21.7431 32.3937 21.6618 32.3937 21.5671C32.3937 21.4711 32.43 21.3898 32.5025 21.3231C32.5751 21.2553 32.6617 21.2213 32.7623 21.2213C32.8641 21.2213 32.9506 21.2553 33.022 21.3231C33.0945 21.3898 33.1308 21.4711 33.1308 21.5671C33.1308 21.6618 33.0945 21.7431 33.022 21.811C32.9506 21.8777 32.8641 21.911 32.7623 21.911Z" fill="black"/>
<path d="M34.9072 25.0418C34.644 25.0418 34.4158 24.9839 34.2228 24.8681C34.0298 24.7523 33.88 24.5902 33.7735 24.382C33.6682 24.1737 33.6156 23.9304 33.6156 23.6519C33.6156 23.3735 33.6682 23.1295 33.7735 22.9201C33.88 22.7107 34.0298 22.5481 34.2228 22.4322C34.4158 22.3164 34.644 22.2585 34.9072 22.2585C35.1705 22.2585 35.3986 22.3164 35.5916 22.4322C35.7847 22.5481 35.9339 22.7107 36.0392 22.9201C36.1456 23.1295 36.1989 23.3735 36.1989 23.6519C36.1989 23.9304 36.1456 24.1737 36.0392 24.382C35.9339 24.5902 35.7847 24.7523 35.5916 24.8681C35.3986 24.9839 35.1705 25.0418 34.9072 25.0418ZM34.9107 24.5329C35.0535 24.5329 35.1728 24.4937 35.2687 24.4153C35.3647 24.3358 35.436 24.2293 35.4828 24.0959C35.5308 23.9625 35.5548 23.814 35.5548 23.6502C35.5548 23.4852 35.5308 23.336 35.4828 23.2027C35.436 23.0681 35.3647 22.9611 35.2687 22.8815C35.1728 22.8019 35.0535 22.7622 34.9107 22.7622C34.7645 22.7622 34.6428 22.8019 34.5457 22.8815C34.4498 22.9611 34.3778 23.0681 34.3299 23.2027C34.2831 23.336 34.2597 23.4852 34.2597 23.6502C34.2597 23.814 34.2831 23.9625 34.3299 24.0959C34.3778 24.2293 34.4498 24.3358 34.5457 24.4153C34.6428 24.4937 34.7645 24.5329 34.9107 24.5329Z" fill="black"/>
<path d="M37.3733 23.4097V24.9892H36.7381V22.2936H37.3453V22.7516H37.3768C37.4389 22.6007 37.5377 22.4808 37.6734 22.3919C37.8103 22.303 37.9794 22.2585 38.1806 22.2585C38.3666 22.2585 38.5287 22.2983 38.6667 22.3778C38.8059 22.4574 38.9136 22.5726 38.9896 22.7236C39.0668 22.8745 39.1049 23.0576 39.1037 23.2729V24.9892H38.4684V23.3711C38.4684 23.191 38.4216 23.05 38.328 22.9482C38.2356 22.8464 38.1075 22.7955 37.9437 22.7955C37.8325 22.7955 37.7337 22.8201 37.6471 22.8692C37.5617 22.9172 37.4944 22.9868 37.4453 23.0781C37.3973 23.1693 37.3733 23.2799 37.3733 23.4097Z" fill="black"/>
<path d="M41.0034 24.9892V21.3951H41.6545V24.4434H43.2374V24.9892H41.0034Z" fill="black"/>
<path d="M44.5501 25.0436C44.3793 25.0436 44.2255 25.0132 44.0886 24.9523C43.9529 24.8903 43.8452 24.7991 43.7657 24.6786C43.6873 24.558 43.6481 24.4095 43.6481 24.2328C43.6481 24.0807 43.6762 23.9549 43.7323 23.8555C43.7885 23.756 43.8651 23.6765 43.9622 23.6168C44.0593 23.5572 44.1687 23.5121 44.2904 23.4817C44.4132 23.4501 44.5402 23.4273 44.6712 23.4132C44.8291 23.3969 44.9573 23.3822 45.0555 23.3694C45.1538 23.3553 45.2252 23.3343 45.2696 23.3062C45.3153 23.2769 45.3381 23.2319 45.3381 23.1711V23.1605C45.3381 23.0283 45.2989 22.926 45.2205 22.8534C45.1421 22.7809 45.0292 22.7446 44.8818 22.7446C44.7262 22.7446 44.6028 22.7785 44.5115 22.8464C44.4214 22.9143 44.3606 22.9944 44.329 23.0868L43.7358 23.0026C43.7826 22.8388 43.8598 22.7019 43.9675 22.5919C44.0751 22.4808 44.2067 22.3977 44.3623 22.3427C44.5179 22.2866 44.6899 22.2585 44.8783 22.2585C45.0082 22.2585 45.1374 22.2737 45.2661 22.3041C45.3948 22.3346 45.5124 22.3849 45.6189 22.4551C45.7253 22.5241 45.8107 22.6183 45.8751 22.7376C45.9406 22.8569 45.9734 23.0061 45.9734 23.1851V24.9892H45.3626V24.6189H45.3416C45.303 24.6938 45.2486 24.764 45.1784 24.8295C45.1094 24.8938 45.0222 24.9459 44.9169 24.9857C44.8128 25.0243 44.6905 25.0436 44.5501 25.0436ZM44.7151 24.5768C44.8426 24.5768 44.9532 24.5516 45.0468 24.5013C45.1404 24.4498 45.2123 24.382 45.2626 24.2977C45.3141 24.2135 45.3398 24.1217 45.3398 24.0222V23.7046C45.3199 23.7209 45.286 23.7362 45.238 23.7502C45.1912 23.7642 45.1386 23.7765 45.0801 23.787C45.0216 23.7976 44.9637 23.8069 44.9064 23.8151C44.849 23.8233 44.7993 23.8303 44.7572 23.8362C44.6624 23.8491 44.5776 23.8701 44.5027 23.8994C44.4279 23.9286 44.3688 23.9696 44.3255 24.0222C44.2822 24.0737 44.2606 24.1404 44.2606 24.2223C44.2606 24.3393 44.3033 24.4276 44.3887 24.4873C44.4741 24.5469 44.5829 24.5768 44.7151 24.5768Z" fill="black"/>
<path d="M46.6402 24.9892V21.3951H47.2755V22.7394H47.3018C47.3346 22.6738 47.3808 22.6042 47.4405 22.5305C47.5001 22.4556 47.5809 22.3919 47.6827 22.3392C47.7844 22.2854 47.9143 22.2585 48.0723 22.2585C48.2805 22.2585 48.4683 22.3117 48.6356 22.4182C48.8041 22.5235 48.9374 22.6797 49.0357 22.8868C49.1351 23.0927 49.1849 23.3454 49.1849 23.6449C49.1849 23.9409 49.1363 24.1924 49.0392 24.3995C48.9421 24.6066 48.8099 24.7645 48.6426 24.8733C48.4753 24.9822 48.2858 25.0366 48.074 25.0366C47.9196 25.0366 47.7915 25.0108 47.6897 24.9593C47.5879 24.9079 47.506 24.8459 47.444 24.7733C47.3832 24.6996 47.3358 24.63 47.3018 24.5645H47.265V24.9892H46.6402ZM47.2632 23.6414C47.2632 23.8157 47.2878 23.9684 47.3369 24.0994C47.3872 24.2305 47.4592 24.3328 47.5528 24.4065C47.6476 24.4791 47.7622 24.5153 47.8968 24.5153C48.0372 24.5153 48.1547 24.4779 48.2495 24.403C48.3443 24.327 48.4156 24.2234 48.4636 24.0924C48.5127 23.9602 48.5373 23.8099 48.5373 23.6414C48.5373 23.4741 48.5133 23.3255 48.4654 23.1956C48.4174 23.0658 48.346 22.964 48.2513 22.8903C48.1565 22.8166 48.0383 22.7797 47.8968 22.7797C47.761 22.7797 47.6458 22.8154 47.551 22.8868C47.4563 22.9581 47.3843 23.0582 47.3352 23.1869C47.2872 23.3156 47.2632 23.4671 47.2632 23.6414Z" fill="black"/>
<path d="M50.9008 25.0418C50.6375 25.0418 50.4094 24.9839 50.2163 24.8681C50.0233 24.7523 49.8735 24.5902 49.7671 24.382C49.6618 24.1737 49.6091 23.9304 49.6091 23.6519C49.6091 23.3735 49.6618 23.1295 49.7671 22.9201C49.8735 22.7107 50.0233 22.5481 50.2163 22.4322C50.4094 22.3164 50.6375 22.2585 50.9008 22.2585C51.164 22.2585 51.3921 22.3164 51.5852 22.4322C51.7782 22.5481 51.9274 22.7107 52.0327 22.9201C52.1392 23.1295 52.1924 23.3735 52.1924 23.6519C52.1924 23.9304 52.1392 24.1737 52.0327 24.382C51.9274 24.5902 51.7782 24.7523 51.5852 24.8681C51.3921 24.9839 51.164 25.0418 50.9008 25.0418ZM50.9043 24.5329C51.047 24.5329 51.1663 24.4937 51.2623 24.4153C51.3582 24.3358 51.4296 24.2293 51.4764 24.0959C51.5243 23.9625 51.5483 23.814 51.5483 23.6502C51.5483 23.4852 51.5243 23.336 51.4764 23.2027C51.4296 23.0681 51.3582 22.9611 51.2623 22.8815C51.1663 22.8019 51.047 22.7622 50.9043 22.7622C50.758 22.7622 50.6363 22.8019 50.5392 22.8815C50.4433 22.9611 50.3714 23.0681 50.3234 23.2027C50.2766 23.336 50.2532 23.4852 50.2532 23.6502C50.2532 23.814 50.2766 23.9625 50.3234 24.0959C50.3714 24.2293 50.4433 24.3358 50.5392 24.4153C50.6363 24.4937 50.758 24.5329 50.9043 24.5329Z" fill="black"/>
<path d="M52.7316 24.9892V22.2936H53.3476V22.7429H53.3756C53.4248 22.5873 53.509 22.4673 53.6284 22.3831C53.7489 22.2977 53.8863 22.255 54.0408 22.255C54.0759 22.255 54.1151 22.2568 54.1583 22.2603C54.2028 22.2626 54.2397 22.2667 54.2689 22.2725V22.8569C54.242 22.8476 54.1993 22.8394 54.1408 22.8324C54.0835 22.8242 54.0279 22.8201 53.9741 22.8201C53.8582 22.8201 53.7541 22.8452 53.6617 22.8955C53.5704 22.9447 53.4985 23.0131 53.4458 23.1009C53.3932 23.1886 53.3669 23.2898 53.3669 23.4045V24.9892H52.7316Z" fill="black"/>
<path d="M55.4184 25.0436C55.2476 25.0436 55.0937 25.0132 54.9568 24.9523C54.8211 24.8903 54.7135 24.7991 54.6339 24.6786C54.5555 24.558 54.5163 24.4095 54.5163 24.2328C54.5163 24.0807 54.5444 23.9549 54.6006 23.8555C54.6567 23.756 54.7334 23.6765 54.8305 23.6168C54.9276 23.5572 55.037 23.5121 55.1587 23.4817C55.2815 23.4501 55.4084 23.4273 55.5395 23.4132C55.6974 23.3969 55.8255 23.3822 55.9238 23.3694C56.0221 23.3553 56.0934 23.3343 56.1379 23.3062C56.1835 23.2769 56.2063 23.2319 56.2063 23.1711V23.1605C56.2063 23.0283 56.1671 22.926 56.0888 22.8534C56.0104 22.7809 55.8975 22.7446 55.7501 22.7446C55.5945 22.7446 55.471 22.7785 55.3798 22.8464C55.2897 22.9143 55.2288 22.9944 55.1973 23.0868L54.6041 23.0026C54.6509 22.8388 54.7281 22.7019 54.8357 22.5919C54.9434 22.4808 55.075 22.3977 55.2306 22.3427C55.3862 22.2866 55.5582 22.2585 55.7466 22.2585C55.8764 22.2585 56.0057 22.2737 56.1344 22.3041C56.2631 22.3346 56.3807 22.3849 56.4871 22.4551C56.5936 22.5241 56.679 22.6183 56.7434 22.7376C56.8089 22.8569 56.8416 23.0061 56.8416 23.1851V24.9892H56.2309V24.6189H56.2099C56.1712 24.6938 56.1168 24.764 56.0466 24.8295C55.9776 24.8938 55.8905 24.9459 55.7852 24.9857C55.681 25.0243 55.5588 25.0436 55.4184 25.0436ZM55.5833 24.5768C55.7109 24.5768 55.8214 24.5516 55.915 24.5013C56.0086 24.4498 56.0806 24.382 56.1309 24.2977C56.1824 24.2135 56.2081 24.1217 56.2081 24.0222V23.7046C56.1882 23.7209 56.1543 23.7362 56.1063 23.7502C56.0595 23.7642 56.0069 23.7765 55.9484 23.787C55.8899 23.7976 55.832 23.8069 55.7746 23.8151C55.7173 23.8233 55.6676 23.8303 55.6255 23.8362C55.5307 23.8491 55.4459 23.8701 55.371 23.8994C55.2961 23.9286 55.237 23.9696 55.1937 24.0222C55.1505 24.0737 55.1288 24.1404 55.1288 24.2223C55.1288 24.3393 55.1715 24.4276 55.2569 24.4873C55.3423 24.5469 55.4511 24.5768 55.5833 24.5768Z" fill="black"/>
<path d="M58.8264 22.2936V22.785H57.2768V22.2936H58.8264ZM57.6594 21.6478H58.2947V24.1784C58.2947 24.2638 58.3076 24.3293 58.3333 24.3749C58.3602 24.4194 58.3953 24.4498 58.4386 24.4662C58.4819 24.4826 58.5299 24.4908 58.5825 24.4908C58.6223 24.4908 58.6586 24.4878 58.6913 24.482C58.7252 24.4761 58.751 24.4709 58.7685 24.4662L58.8756 24.9628C58.8417 24.9745 58.7931 24.9874 58.7299 25.0015C58.6679 25.0155 58.5919 25.0237 58.5018 25.026C58.3427 25.0307 58.1994 25.0067 58.0718 24.9541C57.9443 24.9003 57.8431 24.8172 57.7682 24.7049C57.6945 24.5926 57.6582 24.4522 57.6594 24.2837V21.6478Z" fill="black"/>
<path d="M60.5046 25.0418C60.2414 25.0418 60.0132 24.9839 59.8202 24.8681C59.6271 24.7523 59.4774 24.5902 59.3709 24.382C59.2656 24.1737 59.213 23.9304 59.213 23.6519C59.213 23.3735 59.2656 23.1295 59.3709 22.9201C59.4774 22.7107 59.6271 22.5481 59.8202 22.4322C60.0132 22.3164 60.2414 22.2585 60.5046 22.2585C60.7678 22.2585 60.996 22.3164 61.189 22.4322C61.3821 22.5481 61.5312 22.7107 61.6365 22.9201C61.743 23.1295 61.7962 23.3735 61.7962 23.6519C61.7962 23.9304 61.743 24.1737 61.6365 24.382C61.5312 24.5902 61.3821 24.7523 61.189 24.8681C60.996 24.9839 60.7678 25.0418 60.5046 25.0418ZM60.5081 24.5329C60.6508 24.5329 60.7702 24.4937 60.8661 24.4153C60.962 24.3358 61.0334 24.2293 61.0802 24.0959C61.1282 23.9625 61.1522 23.814 61.1522 23.6502C61.1522 23.4852 61.1282 23.336 61.0802 23.2027C61.0334 23.0681 60.962 22.9611 60.8661 22.8815C60.7702 22.8019 60.6508 22.7622 60.5081 22.7622C60.3619 22.7622 60.2402 22.8019 60.1431 22.8815C60.0471 22.9611 59.9752 23.0681 59.9272 23.2027C59.8804 23.336 59.857 23.4852 59.857 23.6502C59.857 23.814 59.8804 23.9625 59.9272 24.0959C59.9752 24.2293 60.0471 24.3358 60.1431 24.4153C60.2402 24.4937 60.3619 24.5329 60.5081 24.5329Z" fill="black"/>
<path d="M62.3354 24.9892V22.2936H62.9514V22.7429H62.9795C63.0286 22.5873 63.1129 22.4673 63.2322 22.3831C63.3527 22.2977 63.4902 22.255 63.6446 22.255C63.6797 22.255 63.7189 22.2568 63.7622 22.2603C63.8066 22.2626 63.8435 22.2667 63.8727 22.2725V22.8569C63.8458 22.8476 63.8031 22.8394 63.7446 22.8324C63.6873 22.8242 63.6317 22.8201 63.5779 22.8201C63.4621 22.8201 63.358 22.8452 63.2655 22.8955C63.1743 22.9447 63.1023 23.0131 63.0497 23.1009C62.997 23.1886 62.9707 23.2898 62.9707 23.4045V24.9892H62.3354Z" fill="black"/>
<path d="M64.7717 26C64.6851 26 64.605 25.993 64.5313 25.979C64.4587 25.9661 64.4008 25.9509 64.3575 25.9333L64.505 25.4384C64.5974 25.4653 64.6799 25.4782 64.7524 25.477C64.8249 25.4759 64.8887 25.4531 64.9437 25.4086C64.9998 25.3653 65.0472 25.2928 65.0858 25.191L65.1402 25.0453L64.1627 22.2936H64.8366L65.4579 24.3293H65.486L66.109 22.2936H66.7846L65.7053 25.3156C65.655 25.4583 65.5883 25.5806 65.5053 25.6824C65.4222 25.7853 65.3204 25.8637 65.1999 25.9175C65.0806 25.9725 64.9378 26 64.7717 26Z" fill="black"/>
<defs>
<clipPath id="clip0_2103_2142">
<rect width="71.4657" height="18.6849" fill="white" transform="translate(0.295898)"/>
</clipPath>
</defs>
</svg>
