<svg width="98" height="40" viewBox="0 0 98 40" fill="none" xmlns="http://www.w3.org/2000/svg">
<path d="M75.3146 1.36719V20.0553L75.0765 20.2522L74.8385 20.4491L74.6104 20.6559L74.3922 20.8627L74.1839 21.0694L73.9756 21.2861L73.7773 21.5027L73.5789 21.7193V1.36719H52.7211V18.3814H50.9953V1.36719H30.1374V18.411H28.4117V1.36719H7.55383V20.7937L2.22778 38.4086H6.90915L9.25975 30.6104H9.93419L13.8221 38.4086H19.4754L15.7065 30.6104H24.256L21.8855 38.4086H26.9934L29.3341 30.6301H30.4647V30.6104H32.0715H32.2004H41.8508L39.5894 38.3889H44.7469L46.9388 30.6104H49.2596L49.3191 38.3889H53.6434L58.6124 30.6104H61.8655L60.1794 38.3889H65.2575L66.9139 30.6104H69.8496L69.8298 31.0534L69.8403 31.5064L69.8601 31.9396L69.8998 32.3728L69.9295 32.5796L69.9592 32.7864L69.9989 32.9931L70.0385 33.1999L70.0881 33.4067L70.1376 33.6036L70.1971 33.8005L70.2565 33.9975L70.326 34.1944L70.3955 34.3815L70.4748 34.5685L70.5542 34.7458L70.6435 34.9328L70.7328 35.1101L70.832 35.2775L70.9313 35.4547L71.0404 35.6221L71.1594 35.7796L71.2784 35.947L71.4073 36.0947L71.5363 36.2522L71.6652 36.3999L71.814 36.5476L71.9628 36.6855L72.1512 36.843L72.3397 37.0006L72.538 37.1482L72.7463 37.2861L72.9546 37.4239L73.1629 37.5519L73.3811 37.6602L73.6092 37.7784L73.8274 37.8768L74.0555 37.9753L74.2836 38.0639L74.5217 38.1525L74.7597 38.2314L74.9977 38.3003L75.2358 38.3692L75.4738 38.4283L75.9499 38.5365L76.4359 38.6153L76.9119 38.6842L77.388 38.7433L77.8541 38.7827L78.3104 38.8024L78.7567 38.8222H79.1832L79.7584 38.8128L80.3337 38.8035L80.9189 38.7739L81.504 38.7444L82.0892 38.6951L82.6744 38.6458L83.2595 38.5867L83.8447 38.5178L84.4398 38.439L85.0349 38.3504L85.63 38.2519L86.2251 38.1535L86.8201 38.0452L87.4152 37.9271L88.0103 37.8089L88.6153 37.6711L90.3808 30.6113H96.173V1.3681H75.3151L75.3146 1.36719ZM9.48786 29.8818L9.51759 29.7735L9.58708 29.8818H9.48786ZM27.6579 19.4054L27.3604 20.3999L24.5833 29.5569L24.4742 29.8818H15.3495L14.6453 28.3852L24.4742 18.411H18.1563L10.4697 26.6325L12.9592 18.411H8.29766V2.10566H27.6579V19.4054H27.6579ZM33.0434 27.1445L32.8947 27.1539L32.7558 27.1632L32.6071 27.1726H32.4484H32.2401H32.0616L31.8929 27.1819H31.7343L30.4945 27.1726L31.0697 25.0655L31.3375 24.0218L31.9921 21.5701H32.2004H32.4186L32.6269 21.5607H32.8253H33.7873L34.3725 21.5701L34.9081 21.5898L35.1461 21.5992L35.3742 21.6189L35.5924 21.6485L35.7908 21.678L35.9693 21.7075L36.1379 21.7568L36.2966 21.8061L36.4355 21.8652L36.5545 21.9243L36.6636 22.0031L36.7628 22.082L36.8421 22.1804L36.8917 22.2592L36.9313 22.3381L36.9709 22.4267L37.0007 22.5252L37.0205 22.6334L37.031 22.7417V22.8598V22.9878L37.0205 23.1257L37.0112 23.2635L36.9814 23.4211L36.9517 23.5786L36.8624 23.9134L36.7533 24.2875L36.6441 24.6026L36.5251 24.9078L36.3962 25.1934L36.2573 25.4592L36.1878 25.5774L36.1184 25.6955L36.0389 25.8137L35.9496 25.9219L35.8603 26.0302L35.771 26.1286L35.6718 26.2271L35.5726 26.3157L35.4635 26.3946L35.3543 26.4832L35.2353 26.5521L35.1064 26.6309L34.9774 26.6998L34.8386 26.7589L34.6997 26.818L34.551 26.8673L34.3923 26.9264L34.2237 26.9657L34.0451 27.0051L33.8666 27.0445L33.6682 27.074L33.4699 27.1036L33.2616 27.1233L33.0434 27.143L33.0434 27.1445ZM47.1471 29.8818L49.1803 22.6941L49.2597 29.8818H47.1471H47.1471ZM50.2415 18.3814H45.4015L42.069 29.8818H36.9314L37.1694 29.7833L37.4074 29.6849L37.6356 29.5865L37.8637 29.4782L38.0819 29.3699L38.2901 29.2419L38.4984 29.1238L38.6968 28.9958L38.8952 28.8579L39.0836 28.7201L39.2621 28.5822L39.4407 28.4247L39.6093 28.277L39.768 28.1096L39.9266 27.9521L40.0754 27.7748L40.2242 27.6075L40.363 27.4204L40.492 27.2431L40.6209 27.0462L40.7399 26.8493L40.8491 26.6524L40.9582 26.4456L41.0574 26.229L41.1566 26.0124L41.2459 25.7958L41.3252 25.5693L41.4046 25.333L41.4641 25.0967L41.5336 24.8604L41.5831 24.6044L41.6327 24.3582L41.7022 23.9644L41.7616 23.5902L41.8013 23.2357L41.831 22.901L41.8415 22.5662L41.831 22.261L41.8217 21.9557L41.782 21.6702L41.7424 21.4044L41.6729 21.1385L41.6034 20.8923L41.5042 20.656L41.3951 20.4296L41.276 20.2031L41.1372 19.9963L40.9785 19.7994L40.8496 19.6616L40.7206 19.5237L40.5818 19.4056L40.433 19.2973L40.2743 19.1891L40.1156 19.0906L39.947 19.002L39.7784 18.9231L39.5999 18.8443L39.4214 18.7852L39.2329 18.7261L39.0445 18.667L38.8461 18.6177L38.6477 18.5784L38.4494 18.539L38.2411 18.5095L37.8146 18.4504L37.3881 18.4208L36.9517 18.3913L36.5054 18.382H35.6128H34.7301H34.4524H33.9565H33.3415H32.6572H31.9927H31.4273H31.0306H30.8818V2.10619H50.242V18.382L50.2415 18.3814ZM62.0044 29.8818H59.0984L63.5021 22.9895L62.0044 29.8818ZM72.8251 18.7063L72.8146 22.6941L72.5667 23.0387L72.3386 23.3932L72.1104 23.7476L71.9022 24.1021L71.7038 24.4565L71.5054 24.8208L71.3368 25.1753L71.1682 25.5298L71.0095 25.8744L70.8707 26.2289L70.7318 26.5735L70.6128 26.9082L70.5037 27.243L70.4045 27.5679L70.3151 27.883L70.2357 28.1981L70.1862 28.4049L70.1366 28.6215L70.0871 28.8283L70.0475 29.0449L70.0078 29.2516L69.9781 29.4584L69.9483 29.6652L69.9285 29.8818H67.082L69.512 18.411L61.3196 18.4016L53.9901 29.8823H53.4545V2.10616H72.8246V18.7069L72.8251 18.7063ZM83.993 34.5784L83.5863 34.6473L83.1697 34.7064L82.7532 34.7655L82.3465 34.8148L81.9399 34.8542L81.5332 34.8837L81.1365 34.9034H80.7398H80.4819L80.2241 34.8941L79.9761 34.8744L79.7281 34.8448L79.4901 34.8055L79.262 34.7661L79.0339 34.7168L78.8157 34.6577L78.6074 34.5888L78.3991 34.5199L78.2008 34.4313L78.0123 34.3426L77.8239 34.2344L77.6453 34.1261L77.4767 34.008L77.318 33.8898L77.1594 33.752L77.0205 33.6043L76.8816 33.4566L76.7527 33.2892L76.6337 33.1218L76.5246 32.9347L76.4253 32.7477L76.3261 32.5507L76.2467 32.344L76.1772 32.1175L76.1178 31.891L76.0583 31.6547L76.0187 31.4086L75.9889 31.1526L75.9691 30.8867L75.9586 30.611H84.9841L83.9923 34.5791L83.993 34.5784ZM95.4385 29.8818H90.5588L91.3621 26.6719H81.5828L80.7795 29.8818H76.0485V29.2221L76.108 28.9464L76.1575 28.6707L76.217 28.3753L76.2765 28.0799L76.3658 27.755L76.4551 27.4301L76.5543 27.1052L76.6634 26.7901L76.7824 26.475L76.9114 26.1599L77.0502 25.8547L77.1891 25.5495L77.3478 25.2442L77.5065 24.9587L77.6751 24.6633L77.8635 24.3876L78.052 24.1119L78.2404 23.8461L78.4487 23.5901L78.6669 23.3439L78.895 23.1076L79.1231 22.891L79.3711 22.6744L79.619 22.4676L79.8769 22.2805L80.1546 22.1033L80.4323 21.9458L80.7199 21.7981L81.0175 21.6602L81.3249 21.5421L81.6423 21.4436L81.9696 21.3648L82.3068 21.2959L82.654 21.2466L83.011 21.2171L83.378 21.2077L83.6656 21.2171L83.9533 21.2368L84.2409 21.2761L84.5186 21.3352L84.6574 21.3746L84.7864 21.4139L84.9153 21.4533L85.0343 21.5124L85.1534 21.5617L85.2724 21.6306L85.3815 21.6995L85.4906 21.7684L85.5898 21.857L85.6891 21.9457L85.7784 22.0343L85.8677 22.1426L85.9471 22.241L86.0166 22.3592L86.076 22.4872L86.1355 22.6152L86.1851 22.753L86.2247 22.9007L86.2544 23.0484L86.2842 23.2158L86.2946 23.3832V23.5604V23.7475L86.2748 23.9444H92.1067L92.196 23.5407L92.2754 23.0779L92.315 22.8318L92.3349 22.5659L92.3547 22.3001V22.0244L92.3454 21.7389L92.3156 21.4435L92.2859 21.3056L92.2661 21.1579L92.2264 21.0102L92.1868 20.8625L92.1372 20.705L92.0877 20.5573L92.0282 20.4096L91.9587 20.2619L91.8893 20.1142L91.7999 19.9665L91.7106 19.8188L91.6114 19.6711L91.4924 19.5136L91.3635 19.3659L91.2345 19.2182L91.0957 19.0804L90.9469 18.9425L90.7882 18.8145L90.6295 18.6964L90.4609 18.5782L90.2824 18.4601L90.1039 18.3616L89.9154 18.2632L89.717 18.1647L89.5187 18.0761L89.3104 17.9874L89.0922 17.9086L88.874 17.8298L88.6558 17.7609L88.4178 17.7018L88.1897 17.6427L87.9417 17.5836L87.6937 17.5343L87.4458 17.485L87.1879 17.4457L86.9201 17.4161L86.3746 17.357L85.8192 17.3078L85.234 17.288L84.639 17.2787L84.1926 17.288L83.7265 17.2974L83.2405 17.3269L82.7347 17.3663L82.209 17.4254L81.6734 17.4943L81.1279 17.5829L80.5725 17.7011L80.2948 17.7602L80.0072 17.8291L79.7295 17.9079L79.4418 17.9867L79.1542 18.0754L78.8666 18.1738L78.579 18.2723L78.3013 18.3805L78.0136 18.4987L77.726 18.6267L77.4483 18.7547L77.1607 18.8925L76.883 19.0402L76.6053 19.1977L76.3276 19.3553L76.0499 19.5325V2.10474H95.4398V29.8809L95.4385 29.8818Z" fill="#003087"/>
</svg>
