<svg width="33" height="26" viewBox="0 0 33 26" fill="none" xmlns="http://www.w3.org/2000/svg">
<g clip-path="url(#clip0_2102_1985)">
<path d="M15.365 25.4546C22.3941 25.4546 28.0923 19.7564 28.0923 12.7273C28.0923 5.69821 22.3941 0 15.365 0C8.33591 0 2.6377 5.69821 2.6377 12.7273C2.6377 19.7564 8.33591 25.4546 15.365 25.4546Z" fill="#0B3D91"/>
<path d="M14.6134 2.58731C14.6922 2.58731 14.7561 2.52343 14.7561 2.44462C14.7561 2.36582 14.6922 2.30194 14.6134 2.30194C14.5346 2.30194 14.4707 2.36582 14.4707 2.44462C14.4707 2.52343 14.5346 2.58731 14.6134 2.58731Z" fill="white"/>
<path d="M16.0787 2.77755C16.1575 2.77755 16.2214 2.71367 16.2214 2.63487C16.2214 2.55607 16.1575 2.49219 16.0787 2.49219C15.9999 2.49219 15.936 2.55607 15.936 2.63487C15.936 2.71367 15.9999 2.77755 16.0787 2.77755Z" fill="white"/>
<path d="M18.0001 5.3649C18.0789 5.3649 18.1428 5.30101 18.1428 5.22221C18.1428 5.14341 18.0789 5.07953 18.0001 5.07953C17.9213 5.07953 17.8574 5.14341 17.8574 5.22221C17.8574 5.30101 17.9213 5.3649 18.0001 5.3649Z" fill="white"/>
<path d="M7.46055 18.682C7.53936 18.682 7.60324 18.6181 7.60324 18.5393C7.60324 18.4605 7.53936 18.3966 7.46055 18.3966C7.38175 18.3966 7.31787 18.4605 7.31787 18.5393C7.31787 18.6181 7.38175 18.682 7.46055 18.682Z" fill="white"/>
<path d="M7.83116 19.8234C7.90996 19.8234 7.97384 19.7595 7.97384 19.6807C7.97384 19.6019 7.90996 19.5381 7.83116 19.5381C7.75236 19.5381 7.68848 19.6019 7.68848 19.6807C7.68848 19.7595 7.75236 19.8234 7.83116 19.8234Z" fill="white"/>
<path d="M6.06193 18.8173C6.12095 18.8173 6.16879 18.7695 6.16879 18.7105C6.16879 18.6515 6.12095 18.6036 6.06193 18.6036C6.00292 18.6036 5.95508 18.6515 5.95508 18.7105C5.95508 18.7695 6.00292 18.8173 6.06193 18.8173Z" fill="white"/>
<path d="M11.8645 21.06C11.9237 21.06 11.9717 21.012 11.9717 20.9528C11.9717 20.8937 11.9237 20.8457 11.8645 20.8457C11.8053 20.8457 11.7573 20.8937 11.7573 20.9528C11.7573 21.012 11.8053 21.06 11.8645 21.06Z" fill="white"/>
<path d="M20.9653 19.1693C21.0243 19.1693 21.0721 19.1215 21.0721 19.0625C21.0721 19.0034 21.0243 18.9556 20.9653 18.9556C20.9062 18.9556 20.8584 19.0034 20.8584 19.0625C20.8584 19.1215 20.9062 19.1693 20.9653 19.1693Z" fill="white"/>
<path d="M23.6096 16.2969C23.6688 16.2969 23.7168 16.2489 23.7168 16.1898C23.7168 16.1306 23.6688 16.0826 23.6096 16.0826C23.5504 16.0826 23.5024 16.1306 23.5024 16.1898C23.5024 16.2489 23.5504 16.2969 23.6096 16.2969Z" fill="white"/>
<path d="M10.6469 6.1636C10.7059 6.1636 10.7537 6.11576 10.7537 6.05674C10.7537 5.99773 10.7059 5.94989 10.6469 5.94989C10.5879 5.94989 10.54 5.99773 10.54 6.05674C10.54 6.11576 10.5879 6.1636 10.6469 6.1636Z" fill="white"/>
<path d="M13.5575 4.02587C13.6166 4.02587 13.6644 3.97803 13.6644 3.91902C13.6644 3.86 13.6166 3.81216 13.5575 3.81216C13.4985 3.81216 13.4507 3.86 13.4507 3.91902C13.4507 3.97803 13.4985 4.02587 13.5575 4.02587Z" fill="white"/>
<path d="M13.2416 3.81661C13.3006 3.81661 13.3485 3.76877 13.3485 3.70976C13.3485 3.65075 13.3006 3.60291 13.2416 3.60291C13.1826 3.60291 13.1348 3.65075 13.1348 3.70976C13.1348 3.76877 13.1826 3.81661 13.2416 3.81661Z" fill="white"/>
<path d="M12.9565 3.60735C13.0155 3.60735 13.0633 3.55951 13.0633 3.5005C13.0633 3.44149 13.0155 3.39365 12.9565 3.39365C12.8974 3.39365 12.8496 3.44149 12.8496 3.5005C12.8496 3.55951 12.8974 3.60735 12.9565 3.60735Z" fill="white"/>
<path d="M11.1034 6.7156C11.1624 6.7156 11.2103 6.66776 11.2103 6.60875C11.2103 6.54973 11.1624 6.50189 11.1034 6.50189C11.0444 6.50189 10.9966 6.54973 10.9966 6.60875C10.9966 6.66776 11.0444 6.7156 11.1034 6.7156Z" fill="white"/>
<path d="M15.391 1.15319C15.45 1.15319 15.4979 1.10535 15.4979 1.04634C15.4979 0.987324 15.45 0.939484 15.391 0.939484C15.332 0.939484 15.2842 0.987324 15.2842 1.04634C15.2842 1.10535 15.332 1.15319 15.391 1.15319Z" fill="white"/>
<path d="M16.0951 4.23516C16.1541 4.23516 16.202 4.18732 16.202 4.12831C16.202 4.06929 16.1541 4.02145 16.0951 4.02145C16.0361 4.02145 15.9883 4.06929 15.9883 4.12831C15.9883 4.18732 16.0361 4.23516 16.0951 4.23516Z" fill="white"/>
<path d="M14.9848 3.63335C15.0438 3.63335 15.0916 3.58551 15.0916 3.5265C15.0916 3.46749 15.0438 3.41965 14.9848 3.41965C14.9258 3.41965 14.8779 3.46749 14.8779 3.5265C14.8779 3.58551 14.9258 3.63335 14.9848 3.63335Z" fill="white"/>
<path d="M13.082 4.45171C13.141 4.45171 13.1888 4.40387 13.1888 4.34486C13.1888 4.28585 13.141 4.23801 13.082 4.23801C13.0229 4.23801 12.9751 4.28585 12.9751 4.34486C12.9751 4.40387 13.0229 4.45171 13.082 4.45171Z" fill="white"/>
<path d="M21.4716 21.9922C21.5306 21.9922 21.5785 21.9444 21.5785 21.8854C21.5785 21.8263 21.5306 21.7785 21.4716 21.7785C21.4126 21.7785 21.3647 21.8263 21.3647 21.8854C21.3647 21.9444 21.4126 21.9922 21.4716 21.9922Z" fill="white"/>
<path d="M7.27953 19.3694C7.33872 19.3694 7.3867 19.3214 7.3867 19.2622C7.3867 19.203 7.33872 19.155 7.27953 19.155C7.22035 19.155 7.17236 19.203 7.17236 19.2622C7.17236 19.3214 7.22035 19.3694 7.27953 19.3694Z" fill="white"/>
<path d="M14.718 20.7486C14.7772 20.7486 14.8252 20.7007 14.8252 20.6415C14.8252 20.5823 14.7772 20.5343 14.718 20.5343C14.6588 20.5343 14.6108 20.5823 14.6108 20.6415C14.6108 20.7007 14.6588 20.7486 14.718 20.7486Z" fill="white"/>
<path d="M9.4934 19.2838C9.55259 19.2838 9.60057 19.2358 9.60057 19.1766C9.60057 19.1174 9.55259 19.0694 9.4934 19.0694C9.43421 19.0694 9.38623 19.1174 9.38623 19.1766C9.38623 19.2358 9.43421 19.2838 9.4934 19.2838Z" fill="white"/>
<path d="M10.4187 20.794C10.4779 20.794 10.5259 20.746 10.5259 20.6868C10.5259 20.6276 10.4779 20.5797 10.4187 20.5797C10.3595 20.5797 10.3115 20.6276 10.3115 20.6868C10.3115 20.746 10.3595 20.794 10.4187 20.794Z" fill="white"/>
<path d="M17.2294 19.8424C17.2884 19.8424 17.3363 19.7946 17.3363 19.7356C17.3363 19.6766 17.2884 19.6287 17.2294 19.6287C17.1704 19.6287 17.1226 19.6766 17.1226 19.7356C17.1226 19.7946 17.1704 19.8424 17.2294 19.8424Z" fill="white"/>
<path d="M20.9843 17.7234C21.0433 17.7234 21.0911 17.6756 21.0911 17.6166C21.0911 17.5576 21.0433 17.5097 20.9843 17.5097C20.9253 17.5097 20.8774 17.5576 20.8774 17.6166C20.8774 17.6756 20.9253 17.7234 20.9843 17.7234Z" fill="white"/>
<path d="M23.831 19.0241C23.89 19.0241 23.9378 18.9762 23.9378 18.9172C23.9378 18.8582 23.89 18.8104 23.831 18.8104C23.772 18.8104 23.7241 18.8582 23.7241 18.9172C23.7241 18.9762 23.772 19.0241 23.831 19.0241Z" fill="white"/>
<path d="M24.8012 19.6449C24.8602 19.6449 24.908 19.5971 24.908 19.5381C24.908 19.4791 24.8602 19.4312 24.8012 19.4312C24.7422 19.4312 24.6943 19.4791 24.6943 19.5381C24.6943 19.5971 24.7422 19.6449 24.8012 19.6449Z" fill="white"/>
<path d="M24.9604 17.9517C25.0194 17.9517 25.0672 17.9039 25.0672 17.8449C25.0672 17.7859 25.0194 17.738 24.9604 17.738C24.9014 17.738 24.8535 17.7859 24.8535 17.8449C24.8535 17.9039 24.9014 17.9517 24.9604 17.9517Z" fill="white"/>
<path d="M10.8061 15.5546C10.8651 15.5546 10.9129 15.5068 10.9129 15.4478C10.9129 15.3888 10.8651 15.3409 10.8061 15.3409C10.7471 15.3409 10.6992 15.3888 10.6992 15.4478C10.6992 15.5068 10.7471 15.5546 10.8061 15.5546Z" fill="white"/>
<path d="M10.8468 18.0446C10.9256 18.0446 10.9895 17.9808 10.9895 17.902C10.9895 17.8232 10.9256 17.7593 10.8468 17.7593C10.768 17.7593 10.7041 17.8232 10.7041 17.902C10.7041 17.9808 10.768 18.0446 10.8468 18.0446Z" fill="white"/>
<path d="M11.7027 19.852C11.7815 19.852 11.8454 19.7881 11.8454 19.7093C11.8454 19.6305 11.7815 19.5666 11.7027 19.5666C11.6239 19.5666 11.5601 19.6305 11.5601 19.7093C11.5601 19.7881 11.6239 19.852 11.7027 19.852Z" fill="white"/>
<path d="M21.9566 17.9685C22.0354 17.9685 22.0993 17.9047 22.0993 17.8258C22.0993 17.747 22.0354 17.6832 21.9566 17.6832C21.8778 17.6832 21.814 17.747 21.814 17.8258C21.814 17.9047 21.8778 17.9685 21.9566 17.9685Z" fill="white"/>
<path d="M25.6476 17.7593C25.7264 17.7593 25.7902 17.6954 25.7902 17.6166C25.7902 17.5378 25.7264 17.4739 25.6476 17.4739C25.5688 17.4739 25.5049 17.5378 25.5049 17.6166C25.5049 17.6954 25.5688 17.7593 25.6476 17.7593Z" fill="white"/>
<path d="M23.8214 16.9793C23.9002 16.9793 23.9641 16.9154 23.9641 16.8366C23.9641 16.7578 23.9002 16.6939 23.8214 16.6939C23.7426 16.6939 23.6787 16.7578 23.6787 16.8366C23.6787 16.9154 23.7426 16.9793 23.8214 16.9793Z" fill="white"/>
<path d="M21.9566 17.0554C22.0354 17.0554 22.0993 16.9915 22.0993 16.9127C22.0993 16.8339 22.0354 16.77 21.9566 16.77C21.8778 16.77 21.814 16.8339 21.814 16.9127C21.814 16.9915 21.8778 17.0554 21.9566 17.0554Z" fill="white"/>
<path d="M18.111 2.35521L18.4658 2.32129L18.1116 2.30131C18.1005 2.23282 18.0457 2.17924 17.9765 2.17036L17.9426 1.81714L17.9223 2.17321C17.8583 2.18748 17.8091 2.24107 17.8012 2.30765L17.4385 2.34063L17.8037 2.36029C17.8171 2.42148 17.8665 2.46936 17.9287 2.48077L17.9616 2.84477L17.981 2.48141C18.0466 2.47031 18.0986 2.41989 18.111 2.35521Z" fill="white"/>
<path d="M12.1232 6.30532L12.478 6.27139L12.1238 6.25141C12.113 6.18293 12.0579 6.12934 11.9888 6.12046L11.9548 5.76724L11.9349 6.12332C11.8705 6.13758 11.8213 6.19117 11.8134 6.25775L11.4507 6.29073L11.816 6.31039C11.8293 6.37158 11.8787 6.41946 11.9409 6.43088L11.9739 6.79488L11.9935 6.43151C12.0591 6.42073 12.1111 6.37 12.1232 6.30532Z" fill="white"/>
<path d="M25.3875 16.7491L25.7423 16.7151L25.3882 16.6952C25.3774 16.6267 25.3222 16.5731 25.2531 16.5642L25.2192 16.211L25.1992 16.5671C25.1351 16.5813 25.086 16.6349 25.0781 16.7015L24.7153 16.7345L25.0806 16.7541C25.0939 16.8153 25.1434 16.8632 25.2055 16.8746L25.2385 17.2386L25.2582 16.8753C25.3232 16.8645 25.3752 16.8141 25.3875 16.7491Z" fill="white"/>
<path d="M10.9245 22.2097L11.2793 22.1758L10.9251 22.1558C10.914 22.0873 10.8591 22.0337 10.79 22.0249L10.7561 21.672L10.7361 22.0277C10.6718 22.042 10.6226 22.0956 10.6147 22.1622L10.252 22.1951L10.6172 22.2148C10.6305 22.276 10.68 22.3242 10.7421 22.3353L10.7751 22.6993L10.7948 22.3359C10.8601 22.3251 10.9124 22.2744 10.9245 22.2097Z" fill="white"/>
<path d="M24.2606 19.5463L24.6154 19.5124L24.2612 19.4924C24.2504 19.4239 24.1953 19.3703 24.1261 19.3614L24.0922 19.0082L24.0722 19.364C24.0082 19.3782 23.959 19.4318 23.9511 19.4984L23.5884 19.5314L23.9536 19.551C23.967 19.6122 24.0164 19.6601 24.0786 19.6715L24.1116 20.0355L24.1312 19.6722C24.1962 19.6617 24.2485 19.611 24.2606 19.5463Z" fill="white"/>
<path d="M18.3833 9.67867C16.9035 10.2538 15.4602 10.7672 14.2423 11.1483C11.7676 11.9232 4.99649 14.021 0.90625 16.6654L1.24869 16.7986C3.74088 15.3907 5.36081 14.9484 6.91796 14.4586C8.61113 13.9259 14.0848 12.6449 16.5633 11.9473C17.4007 11.7117 18.3814 11.4032 19.4202 11.0278C19.1785 10.6908 18.9236 10.3528 18.6554 10.0154C18.5656 9.90158 18.4746 9.78933 18.3833 9.67867ZM20.1913 12.1706C19.833 12.4125 19.5327 12.6056 19.3225 12.7273C18.1049 13.4312 12.169 17.4834 10.8186 18.4156C9.46818 19.3478 5.72005 22.8864 4.61664 23.9137L4.57859 24.3319C8.13615 21.1358 9.25225 20.3476 10.6664 19.2717C12.4166 17.94 16.0373 15.4764 17.2679 14.6868C18.4442 13.9322 19.5051 13.2381 20.4573 12.603C20.4418 12.577 20.4262 12.551 20.4107 12.5247C20.339 12.4071 20.2658 12.2891 20.1913 12.1706ZM25.7524 6.29709C24.0193 7.31299 21.2877 8.53911 18.6376 9.57943C18.701 9.65711 18.7641 9.73543 18.8269 9.81438C19.1231 10.1873 19.4024 10.5627 19.6653 10.9384C21.7484 10.1711 24.0342 9.14123 25.8479 7.89482C24.9838 8.7135 22.1273 10.8484 20.3856 12.0383C20.4754 12.1845 20.5623 12.3307 20.6463 12.4762C23.285 10.7104 25.0606 9.41075 26.0952 8.54165C27.522 7.34311 30.7752 4.66067 32.0118 1.06506C29.8427 3.82392 27.2782 5.40262 25.7524 6.29709Z" fill="#FC3D21"/>
<path d="M13.7274 15.8787C13.4468 15.5255 13.0587 15.0524 12.7673 14.6856C12.3776 14.1951 12.0171 13.6995 11.6867 13.2045C11.5789 13.2315 11.4715 13.2584 11.364 13.2854C11.7628 13.9078 12.2058 14.5293 12.6884 15.1368C13.041 15.5807 13.3615 15.938 13.5258 16.1603C13.5591 16.2053 13.625 16.3049 13.7141 16.4374C13.8168 16.3676 13.9205 16.2973 14.0252 16.2262C13.924 16.1162 13.8241 16.0005 13.7274 15.8787ZM15.7757 17.738C15.5452 17.5199 14.9862 17.1556 14.4044 16.6089C14.276 16.6971 14.1463 16.7865 14.0163 16.8765C14.392 17.4061 14.9038 18.0564 15.3045 18.246C15.9083 18.532 16.0709 18.0177 15.7757 17.738ZM18.8269 9.81438C15.5002 5.62711 11.4363 3.32674 9.68411 4.71901C8.32323 5.80023 8.88192 8.96018 10.7577 12.2796C10.8547 12.2463 10.9508 12.2137 11.0459 12.1813C9.15269 8.94718 8.6346 5.94165 9.91811 4.92162C11.5311 3.64001 15.4257 5.94926 18.656 10.0151C19.3247 10.8566 19.9126 11.7013 20.4104 12.5247C22.3166 15.6796 22.9016 18.5326 21.5845 19.6972C21.1815 20.0536 19.95 20.1935 18.3367 19.4674C18.3142 19.4956 18.3504 19.572 18.3786 19.5907C19.7712 20.1506 21.1051 20.364 21.7785 19.8291C23.3969 18.5431 22.1536 14.0016 18.8269 9.81438Z" fill="white"/>
<path d="M4.55908 10.3112H6.68981L8.47811 13.3456C8.47811 13.3456 8.47811 11.1483 8.47811 10.9771C8.47811 10.7107 8.14042 10.3635 8.02152 10.3112C8.1642 10.3112 9.4103 10.3112 9.49591 10.3112C9.40555 10.335 9.11542 10.6869 9.11542 10.9771C9.11542 11.1198 9.11542 14.3063 9.11542 14.4585C9.11542 14.6726 9.42457 14.9674 9.57201 15.0816H7.51737L5.70055 12.0329C5.70055 12.0329 5.70055 14.3063 5.70055 14.43C5.70055 14.6678 5.93359 14.8961 6.17616 15.0911H4.60664C4.83018 14.996 5.0442 14.6963 5.06323 14.4585C5.08225 14.2207 5.06323 11.153 5.06323 11.0199C5.06323 10.7298 4.78262 10.4919 4.55908 10.3112Z" fill="white"/>
<path d="M24.0499 15.0816H26.8845C26.7276 15.0435 26.5516 14.858 26.4565 14.6107C26.3614 14.3634 24.8584 10.3112 24.8584 10.3112H23.7807C23.475 10.5313 23.1475 10.7634 22.7978 11.0078C22.7968 11.0167 22.7959 11.0256 22.7943 11.0341C22.7474 11.3195 21.9039 14.3742 21.8526 14.5251C21.7812 14.7344 21.415 14.9674 21.2676 15.0911H22.7943C22.6421 14.9199 22.5184 14.7534 22.547 14.5632C22.5755 14.3729 22.6611 13.9924 22.6611 13.9924H24.2401C24.3115 14.1827 24.3647 14.3536 24.3923 14.5156C24.4256 14.7106 24.2259 14.9294 24.0499 15.0816ZM22.8038 13.3837L23.3365 11.6429L24.0404 13.3837H22.8038ZM22.5638 10.485C22.6421 10.4273 22.7207 10.3692 22.799 10.3112H22.3853C22.4265 10.3493 22.4947 10.4092 22.5638 10.485Z" fill="white"/>
<path d="M11.7218 14.5632C11.7503 14.3729 11.8359 13.9924 11.8359 13.9924H13.4149C13.4863 14.1827 13.5396 14.3536 13.5671 14.5156C13.6004 14.7106 13.4007 14.9294 13.2247 15.0816H15.7204C15.7724 15.0467 15.8241 15.0118 15.8757 14.9773C15.779 14.8917 15.6899 14.7632 15.6313 14.6107C15.5362 14.3634 14.0332 10.3112 14.0332 10.3112H11.5601C11.679 10.4206 12.0214 10.7155 11.9691 11.0341C11.9225 11.3195 11.0787 14.3742 11.0274 14.5251C10.956 14.7344 10.5898 14.9674 10.4424 15.0911H11.9691C11.8169 14.9199 11.6932 14.7534 11.7218 14.5632ZM12.5113 11.6429L13.2152 13.3837H11.9786L12.5113 11.6429Z" fill="white"/>
<path d="M20.3426 12.6791C19.8771 12.9892 19.386 13.313 18.8685 13.651C19.1006 13.7635 19.2855 13.9049 19.3032 14.0876C19.3362 14.4306 18.6469 14.5965 18.0238 14.5251C17.8992 14.5109 17.7768 14.4782 17.6602 14.4344C17.5308 14.5178 17.4002 14.6019 17.2676 14.6868C17.1329 14.7734 16.9693 14.8799 16.7825 15.003V15.4954C16.9062 15.2528 17.1766 15.0356 17.3865 15.0245C17.4769 15.0198 17.7908 15.3099 19.0845 15.2385C19.7123 15.204 20.9251 14.5346 20.906 13.7642C20.8946 13.3088 20.6568 12.9537 20.3426 12.6791ZM16.7822 13.8688V14.3704C16.8967 14.294 17.0095 14.2188 17.1202 14.1456C16.9461 14.0245 16.8228 13.9113 16.7822 13.8688ZM19.9003 12.3643C19.7798 12.2929 19.6577 12.2305 19.5407 12.1753C18.9319 11.8899 18.2946 11.8376 18.1615 11.4524C18.0676 11.1806 18.3327 10.9292 18.9795 10.9387C19.6263 10.9482 20.2256 11.3335 20.3873 11.4714V10.2443C20.3397 10.2919 20.1311 10.5313 19.9402 10.4916C19.574 10.4155 18.951 10.3163 18.2376 10.3204C17.4195 10.3252 16.7156 10.9574 16.6918 11.7568C16.6585 12.8744 17.5527 13.1788 18.0568 13.3548C18.1088 13.3729 18.1681 13.3922 18.2325 13.4128C18.716 13.0983 19.0984 12.8561 19.3223 12.727C19.4726 12.6404 19.6695 12.5162 19.9003 12.3643Z" fill="white"/>
</g>
<defs>
<clipPath id="clip0_2102_1985">
<rect width="31.3902" height="26" fill="white" transform="translate(0.90625)"/>
</clipPath>
</defs>
</svg>
