<svg width="97" height="40" viewBox="0 0 97 40" fill="none" xmlns="http://www.w3.org/2000/svg">
<g clip-path="url(#clip0_974_1790)">
<path fill-rule="evenodd" clip-rule="evenodd" d="M40.5582 20C40.5582 31.0457 31.6039 40 20.5582 40C9.51253 40 0.558228 31.0457 0.558228 20C0.558228 8.95429 9.51253 0 20.5582 0C31.6039 0 40.5582 8.95429 40.5582 20Z" fill="white"/>
<path fill-rule="evenodd" clip-rule="evenodd" d="M40.5582 20C40.5582 25.3043 38.4511 30.3914 34.7004 34.1421C30.9496 37.8929 25.8626 40 20.5582 40C15.2539 40 10.1668 37.8929 6.41609 34.1421C2.66536 30.3914 0.558228 25.3043 0.558228 20C0.558228 14.6957 2.66536 9.60859 6.41609 5.85786C10.1668 2.10714 15.2539 0 20.5582 0C25.8626 0 30.9496 2.10714 34.7004 5.85786C38.4511 9.60859 40.5582 14.6957 40.5582 20ZM27.6416 19.1389L21.8082 8H15.7805C14.4675 7.99266 13.1661 8.24538 11.9514 8.74359C10.7366 9.2418 9.63255 9.97563 8.70286 10.9027C7.77317 11.8298 7.03628 12.9319 6.53469 14.1452C6.03311 15.3586 5.77676 16.6593 5.78045 17.9722C5.81082 19.8595 6.44875 21.6868 7.59962 23.1829C8.75048 24.679 10.353 25.7643 12.1693 26.2778V32H21.1693V27.2222H22.3082C23.7804 27.2222 24.9193 26.1111 24.9193 24.75V20.6389L27.1416 20.1944C27.2568 20.1794 27.3665 20.1358 27.4605 20.0674C27.5545 19.999 27.6298 19.9081 27.6796 19.8031C27.7293 19.698 27.7519 19.5822 27.7453 19.4661C27.7386 19.3501 27.703 19.2376 27.6416 19.1389ZM20.086 18.5C18.836 18.5 17.8082 17.4722 17.8082 16.2222C17.8082 14.9722 18.836 13.9444 20.086 13.9444C21.336 13.9444 22.3638 14.9722 22.3638 16.2222C22.3638 17.4722 21.336 18.5 20.086 18.5ZM35.1416 20.1944L32.9193 20.6389V24.75C32.9193 26.1389 31.7804 27.2222 30.3082 27.2222H29.1693V32H25.5027V27.2222H26.6416C28.1138 27.2222 29.2527 26.1111 29.2527 24.75V20.6389L31.4749 20.1944C31.5838 20.1683 31.6855 20.118 31.7725 20.0474C31.8594 19.9767 31.9295 19.8875 31.9774 19.7863C32.0254 19.685 32.05 19.5743 32.0496 19.4623C32.0492 19.3503 32.0236 19.2398 31.9749 19.1389L26.1416 8H29.7804L35.6138 19.1389C35.8638 19.5556 35.6138 20.1111 35.1416 20.1944Z" fill="#2638C4"/>
<path d="M90.6693 17.7779C88.4749 16.639 86.7249 15.7223 86.7249 13.9723C86.7249 12.7223 87.7805 11.9723 89.586 11.9723C91.6971 11.9723 93.586 12.6668 95.0305 13.5279V9.00011C93.307 8.26278 91.4598 7.85753 89.586 7.80566C84.3082 7.80566 81.9471 10.9446 81.9471 14.3612C81.9471 18.3612 84.6416 20.2779 87.586 21.8334C90.5027 23.389 91.6138 24.0557 91.6138 25.7223C91.6138 27.139 90.3916 27.9446 88.336 27.9446C86.0583 27.9075 83.866 27.0719 82.1416 25.5834V30.389C83.9834 31.5534 86.1026 32.2055 88.2805 32.2779C93.3916 32.2779 96.6416 29.6112 96.6416 25.3057C96.6693 20.8057 92.8638 18.9168 90.6693 17.7779ZM51.6138 8.00011H45.2805V32.0001H50.0027V24.3612H50.9471C56.8638 24.3612 60.5305 21.2223 60.5305 16.1668C60.5582 11.0557 57.2249 8.00011 51.6138 8.00011ZM50.0027 12.0001H51.3916C54.1693 12.0001 55.9471 13.6112 55.9471 16.0834C55.9471 18.7779 54.3082 20.3057 51.4193 20.3057H50.0027V12.0001ZM75.6416 19.0834C77.2527 17.9723 78.0305 16.3334 78.0305 14.139C78.0305 10.3612 75.2527 8.00011 70.7527 8.00011H63.4193V32.0001H71.0582C76.9193 32.0001 79.586 28.2223 79.586 24.7223C79.6578 23.4759 79.3076 22.2417 78.592 21.2186C77.8764 20.1956 76.837 19.4434 75.6416 19.0834ZM70.3916 12.0557C72.2527 12.0557 73.4471 13.1946 73.4471 15.0001C73.4471 16.8057 72.1416 17.9723 70.1416 17.9723H68.1416V12.0834H70.3916V12.0557ZM68.1416 28.0001V21.7223H71.1416C73.5305 21.7223 74.9471 22.889 74.9471 24.8334C74.9471 26.9168 73.5305 27.9723 70.6971 27.9723H68.1416V28.0001Z" fill="#2638C4"/>
</g>
<defs>
<clipPath id="clip0_974_1790">
<rect width="96.0835" height="40" fill="white" transform="translate(0.558228)"/>
</clipPath>
</defs>
</svg>
