<svg width="186" height="38" viewBox="0 0 186 38" fill="none" xmlns="http://www.w3.org/2000/svg">
<g clip-path="url(#clip0_976_1943)">
<path d="M185.7 9.60474H181.824V23.5038L170.625 9.60474H166.029V28.3156H169.905V14.4166L181.102 28.3156H185.7V9.60474ZM148.051 9.60474H143.775L134.582 28.3138H138.858L140.008 25.9091C140.488 24.8938 141.237 24.4382 142.36 24.4382H149.309L148.481 22.6743C147.973 21.5778 147.144 21.0711 145.916 21.0711H142.362L145.916 13.6943L152.971 28.314H157.248L148.051 9.60474ZM125.812 9.60474H121.802V28.3138H125.812V9.60474ZM112.96 9.60474H108.683L101.895 24.0921L95.1054 9.60474H90.8294L99.7563 28.3156H104.033L112.96 9.60474ZM82.0592 9.60474H78.0494V28.3138H82.0592V9.60474ZM67.644 15.8341C67.644 12.6806 65.5058 9.60668 60.9081 9.60668H49.0144V28.3157H53.0243V12.9737H60.3217C62.5676 12.9737 63.6358 14.0702 63.6358 15.8341C63.6358 17.6244 62.5657 18.7209 60.3217 18.7209H57.2175C55.8109 18.7209 55.0206 19.5111 55.0206 20.9177V22.0898H57.2476C58.2894 22.0898 59.0645 22.4377 59.7073 23.2657L63.6622 28.3172H68.5795L63.0743 21.3147C66.0141 20.6436 67.6437 18.719 67.6437 15.8341H67.644Z" fill="black"/>
<path d="M21.1442 22.9369C22.1046 22.0597 23.7966 20.4187 24.4262 19.6833C24.7135 19.3581 24.6946 18.9517 24.6946 18.9517C24.6946 18.9517 24.7135 18.5451 24.4262 18.22C23.7966 17.4846 22.1046 15.8436 21.1442 14.9664C20.751 14.5996 20.6564 14.369 20.6564 13.919V8.94512C20.6564 8.7088 20.8814 8.60482 21.0724 8.77119C23.2143 10.7544 27.986 15.4826 29.5854 17.3145C30.3491 18.1255 30.2792 18.9517 30.2792 18.9517C30.2792 18.9517 30.3491 19.776 29.5854 20.5889C27.9841 22.4209 23.2124 27.149 21.0724 29.1322C20.8814 29.2986 20.6564 29.1945 20.6564 28.9583V23.9843C20.6584 23.5324 20.751 23.3037 21.1442 22.9369V22.9369ZM18.3273 22.9331C17.3669 22.0559 15.6749 20.4148 15.0454 19.6795C14.758 19.3543 14.7768 18.9478 14.7768 18.9478C14.7768 18.9478 14.758 18.5413 15.0454 18.2162C15.6749 17.4807 17.3669 15.8398 18.3273 14.9626C18.7205 14.5959 18.815 14.3652 18.815 13.9152V8.92616C18.815 8.72577 18.5806 8.60098 18.3991 8.76924C16.2572 10.7524 11.4855 15.4807 9.8861 17.3125C9.12044 18.1236 9.19227 18.9498 9.19227 18.9498C9.19227 18.9498 9.12232 19.7741 9.8861 20.5869C11.4874 22.4189 16.2591 27.1471 18.3991 29.1302C18.5901 29.2967 18.815 29.1927 18.815 28.9563V23.9823C18.815 23.5286 18.7205 23.298 18.3273 22.9331V22.9331ZM0.773552 20.3902C2.92686 22.6116 14.5764 34.6278 16.7594 36.3613C17.5213 36.972 18.5025 37.42 19.7332 37.42C20.9658 37.42 21.947 36.972 22.7071 36.3613C24.8906 34.6277 36.5395 22.6112 38.6929 20.3902C38.8687 20.1879 38.7098 19.8704 38.4452 19.8704C37.3695 19.8704 34.8759 19.8666 33.373 19.8666C32.8436 19.8666 32.6867 19.9592 32.3539 20.3165C32.0212 20.6738 30.3651 22.451 30.3651 22.451C28.259 24.7215 23.1225 29.7351 21.2452 31.3156C20.5401 31.9093 19.7422 31.8903 19.7309 31.8903C19.7195 31.8903 18.9217 31.9093 18.2166 31.3156C16.3393 29.7332 11.2027 24.7195 9.09661 22.451C9.09661 22.451 7.44049 20.6738 7.10777 20.3165C6.77504 19.9592 6.61812 19.8666 6.08879 19.8666C4.5877 19.8666 2.09223 19.8704 1.01646 19.8704C0.755561 19.8704 0.596757 20.1879 0.772581 20.3902H0.773552ZM38.6958 17.53C36.5425 15.3086 24.8929 3.29236 22.7099 1.55891C21.948 0.948259 20.9669 0.500244 19.7361 0.500244C18.5035 0.500244 17.5223 0.948296 16.7624 1.55891C14.5787 3.29254 2.92714 15.309 0.773737 17.53C0.597922 17.7323 0.756722 18.0498 1.0214 18.0498C2.09708 18.0498 4.59069 18.0536 6.09373 18.0536C6.62308 18.0536 6.77998 17.961 7.11271 17.6037C7.44545 17.2463 9.10155 15.4692 9.10155 15.4692C11.2076 13.1987 16.3442 8.18505 18.2215 6.6046C18.9266 6.01097 19.7244 6.02987 19.7358 6.02987C19.7471 6.02987 20.5449 6.01097 21.2501 6.6046C23.1274 8.18699 28.2639 13.2006 30.37 15.4692C30.37 15.4692 32.0261 17.2463 32.3588 17.6037C32.6915 17.961 32.8485 18.0536 33.3778 18.0536C34.8789 18.0536 37.3745 18.0498 38.4501 18.0498C38.7148 18.0517 38.8717 17.7323 38.6959 17.53H38.6958Z" fill="#FFB100"/>
</g>
<defs>
<clipPath id="clip0_976_1943">
<rect width="185" height="37" fill="white" transform="translate(0.699951 0.5)"/>
</clipPath>
</defs>
</svg>
