<svg width="163" height="32" viewBox="0 0 163 32" fill="none" xmlns="http://www.w3.org/2000/svg">
<path d="M52.4183 6.98172V10.9587C51.486 10.4974 50.5753 10.1493 49.6872 9.9143C48.8002 9.67935 47.9617 9.56295 47.1728 9.56295C46.1263 9.56295 45.3525 9.72138 44.8513 10.0393C44.3501 10.3573 44.1012 10.8541 44.1012 11.5256C44.1012 12.0289 44.2693 12.4223 44.6066 12.7025C44.944 12.9838 45.5562 13.2241 46.4453 13.4278L48.3109 13.8438C50.2002 14.2652 51.5431 14.9 52.3396 15.7569C53.1361 16.6126 53.5338 17.8305 53.5338 19.4083C53.5338 21.483 52.9776 23.0231 51.8665 24.0341C50.7553 25.0461 49.0578 25.5516 46.774 25.5516C45.6963 25.5516 44.6163 25.4395 43.531 25.2132C42.4468 24.9858 41.3604 24.6516 40.2762 24.2065V20.1132C41.3604 20.7501 42.4091 21.2319 43.4222 21.5552C44.4353 21.8786 45.4128 22.0381 46.3526 22.0381C47.3086 22.0381 48.0404 21.8635 48.5491 21.51C49.0567 21.1586 49.3111 20.6542 49.3111 20.0011C49.3111 19.4116 49.1376 18.9589 48.7937 18.6399C48.4478 18.3209 47.7602 18.0342 46.7277 17.7841L45.0324 17.3681C43.3327 16.965 42.0911 16.3227 41.3055 15.4421C40.5198 14.5616 40.1285 13.3718 40.1285 11.8769C40.1285 10.007 40.6739 8.5671 41.7667 7.55939C42.8596 6.55061 44.4299 6.04838 46.4776 6.04838C47.411 6.04838 48.3702 6.12597 49.3574 6.28225C50.3436 6.44068 51.3642 6.66917 52.4183 6.98172ZM67.508 11.5256V15.2029C66.9541 14.7826 66.399 14.4722 65.8407 14.2717C65.2835 14.0702 64.7048 13.971 64.1055 13.971C62.9685 13.971 62.0815 14.3364 61.4488 15.0714C60.8151 15.8075 60.4993 16.8335 60.4993 18.1495C60.4993 19.4687 60.8151 20.4936 61.4488 21.2254C62.0815 21.9616 62.9685 22.328 64.1055 22.328C64.7425 22.328 65.3482 22.2234 65.9216 22.0122C66.4938 21.8042 67.023 21.4949 67.508 21.0821V24.7723C66.8711 25.031 66.2244 25.2272 65.5681 25.3576C64.9117 25.4858 64.2543 25.5527 63.5936 25.5527C61.2947 25.5527 59.497 24.9017 58.2005 23.5965C56.9028 22.2913 56.254 20.4753 56.254 18.1495C56.254 15.8269 56.9028 14.0098 58.2005 12.7036C59.4981 11.3995 61.2947 10.7474 63.5936 10.7474C64.2607 10.7474 64.9192 10.8121 65.5681 10.9436C66.2169 11.0707 66.8635 11.2669 67.508 11.5256ZM83.862 16.6008V25.1884H79.7643V23.7894V18.641C79.7643 17.4069 79.7406 16.5587 79.6911 16.0985C79.6415 15.6362 79.5563 15.2967 79.4345 15.08C79.2761 14.7879 79.0584 14.5573 78.7857 14.3913C78.5131 14.2308 78.2016 14.1456 77.8535 14.1456C77.0031 14.1456 76.336 14.5099 75.8499 15.2352C75.3649 15.9616 75.1224 16.9661 75.1224 18.2519V25.1905H71.0485V5.59679H75.1224V13.153C75.7367 12.3285 76.3888 11.7239 77.0796 11.3337C77.7694 10.9457 78.5325 10.7485 79.3667 10.7485C80.8389 10.7485 81.9554 11.2475 82.7174 12.2477C83.4794 13.2424 83.862 14.6963 83.862 16.6008ZM87.6611 11.0869H91.7351V25.1884H87.6611V11.0869ZM87.6611 5.5957H91.7351V9.27088H87.6611V5.5957ZM108.488 16.6008V25.1884H104.39V23.7894V18.6129C104.39 17.3983 104.366 16.5587 104.316 16.0974C104.267 15.634 104.183 15.2956 104.061 15.0779C103.902 14.7847 103.686 14.5552 103.413 14.3903C103.138 14.2286 102.827 14.1434 102.48 14.1434C101.628 14.1434 100.961 14.5077 100.477 15.2331C99.9918 15.9606 99.7482 16.964 99.7482 18.2486V25.1873H95.6743V11.0858H99.7482V13.1497C100.363 12.3263 101.015 11.7206 101.705 11.3305C102.394 10.9414 103.158 10.7431 103.992 10.7431C105.465 10.7431 106.581 11.2443 107.343 12.2423C108.105 13.2424 108.488 14.6963 108.488 16.6008ZM120.959 13.1508V5.5957H125.056V25.1884H120.959V23.1471C120.397 23.978 119.778 24.587 119.103 24.9717C118.427 25.3576 117.646 25.5505 116.757 25.5505C115.187 25.5505 113.899 24.8596 112.888 23.479C111.88 22.0984 111.375 20.3212 111.375 18.1473C111.375 15.9735 111.882 14.1963 112.888 12.8156C113.899 11.435 115.187 10.7442 116.757 10.7442C117.637 10.7442 118.418 10.9425 119.096 11.3316C119.776 11.7217 120.397 12.3274 120.959 13.1508ZM118.273 22.2795C119.146 22.2795 119.813 21.9271 120.271 21.2244C120.73 20.5184 120.96 19.4956 120.96 18.1495C120.96 16.8077 120.73 15.7849 120.271 15.0779C119.812 14.3709 119.145 14.0206 118.273 14.0206C117.407 14.0206 116.747 14.373 116.288 15.0779C115.827 15.7816 115.598 16.8066 115.598 18.1495C115.598 19.4935 115.827 20.5163 116.288 21.2244C116.747 21.9271 117.407 22.2795 118.273 22.2795ZM128.993 5.5957H133.065V25.1884H128.993V5.5957ZM149.726 18.0988V19.3835H140.201C140.298 20.4387 140.645 21.2351 141.237 21.7621C141.829 22.2903 142.654 22.5532 143.718 22.5532C144.576 22.5532 145.453 22.4142 146.35 22.1329C147.251 21.8495 148.173 21.4259 149.122 20.8536V24.3283C148.157 24.7336 147.196 25.0364 146.23 25.2423C145.266 25.4481 144.304 25.5505 143.338 25.5505C141.032 25.5505 139.24 24.9017 137.962 23.6051C136.683 22.3075 136.046 20.4872 136.046 18.1473C136.046 15.8485 136.673 14.0389 137.93 12.723C139.185 11.4038 140.914 10.7442 143.114 10.7442C145.116 10.7442 146.718 11.4113 147.922 12.7467C149.127 14.0809 149.726 15.8668 149.726 18.0988ZM145.54 16.6008C145.54 15.7461 145.315 15.052 144.862 14.5293C144.412 14.0044 143.821 13.7425 143.093 13.7425C142.305 13.7425 141.662 13.9893 141.169 14.4797C140.676 14.9701 140.37 15.6771 140.248 16.6029L145.54 16.6008ZM162.267 14.9281C161.91 14.7427 161.557 14.6058 161.203 14.5174C160.852 14.429 160.496 14.3849 160.141 14.3849C159.092 14.3849 158.288 14.7578 157.722 15.4982C157.158 16.2408 156.875 17.3067 156.875 18.6905V25.1884H152.801V11.0869H156.875V13.403C157.398 12.4805 158 11.8069 158.679 11.3822C159.357 10.9576 160.172 10.7442 161.12 10.7442C161.257 10.7442 161.405 10.7528 161.563 10.7647C161.723 10.7776 161.955 10.8056 162.26 10.8455L162.267 14.9281Z" fill="#D62E22"/>
<path d="M15.5332 1C7.29777 1 0.532837 7.76494 0.532837 16C0.532837 24.2351 7.29777 31 15.5332 31C23.7687 31 30.5231 24.2351 30.5231 16C30.5231 7.76453 23.7687 1 15.5332 1ZM15.5332 8.95213C19.4652 8.95213 22.571 12.0677 22.571 16C22.571 19.9324 19.4652 23.0479 15.5332 23.0479C11.6005 23.0479 8.48537 19.9324 8.48537 16C8.48537 12.0677 11.6009 8.95213 15.5332 8.95213Z" fill="url(#paint0_linear_974_1818)" stroke="url(#paint1_linear_974_1818)" stroke-width="0.7859" stroke-linejoin="bevel"/>
<path d="M7.18677 27.5994L15.572 15.3486L23.85 27.6172" fill="url(#paint2_linear_974_1818)"/>
<path d="M7.18677 27.5994L15.572 15.3486L23.85 27.6172" stroke="url(#paint3_linear_974_1818)" stroke-width="0.761" stroke-linejoin="bevel"/>
<path d="M24.0461 28.1154C18.3878 31.9028 12.1163 31.515 6.98621 28.0947L15.5702 15.5537L24.0461 28.1154Z" fill="url(#paint4_linear_974_1818)"/>
<defs>
<linearGradient id="paint0_linear_974_1818" x1="7.82603" y1="7.13708" x2="24.4332" y2="26.2332" gradientUnits="userSpaceOnUse">
<stop stop-color="#FAFAFA"/>
<stop offset="0.6411" stop-color="#C4C4C4"/>
<stop offset="1" stop-color="#F4F4F4"/>
</linearGradient>
<linearGradient id="paint1_linear_974_1818" x1="3.47889" y1="6.53642" x2="27.2642" y2="25.2053" gradientUnits="userSpaceOnUse">
<stop stop-color="#D5D5D5"/>
<stop offset="0.6584" stop-color="#262626"/>
<stop offset="1" stop-color="#B8B8B8"/>
</linearGradient>
<linearGradient id="paint2_linear_974_1818" x1="11.7793" y1="20.7791" x2="15.5665" y2="27.6967" gradientUnits="userSpaceOnUse">
<stop stop-color="#818181"/>
<stop offset="1" stop-color="#F2F2F2"/>
</linearGradient>
<linearGradient id="paint3_linear_974_1818" x1="18.9321" y1="21.6054" x2="19.5022" y2="21.184" gradientUnits="userSpaceOnUse">
<stop stop-color="#D1D1D1"/>
<stop offset="1" stop-color="#262626"/>
</linearGradient>
<linearGradient id="paint4_linear_974_1818" x1="11.6083" y1="20.9657" x2="15.2688" y2="27.6522" gradientUnits="userSpaceOnUse">
<stop stop-color="#818181"/>
<stop offset="1" stop-color="#F2F2F2"/>
</linearGradient>
</defs>
</svg>
