<svg width="109" height="46" viewBox="0 0 109 46" fill="none" xmlns="http://www.w3.org/2000/svg">
<g clip-path="url(#clip0_974_1823)">
<path d="M4.97132 39.2565C3.48523 38.806 2.83413 38.5201 2.83413 37.6701C2.83413 36.9095 3.84714 36.6395 4.71473 36.6395C5.47365 36.6395 6.28941 36.8652 6.84356 37.228C6.97479 37.3132 7.1361 37.3391 7.28655 37.2973C7.437 37.2572 7.56404 37.1527 7.63425 37.0132L7.88667 36.5083C8.01037 36.2592 7.9293 35.9567 7.6961 35.8037C6.89789 35.2822 5.76535 34.9587 4.74064 34.9587C2.58756 34.9587 1.13992 36.0645 1.13992 37.7102C1.13992 39.8483 2.94613 40.389 4.39544 40.8245C5.91329 41.2792 6.57694 41.5717 6.56858 42.4753C6.56858 43.3821 5.50123 43.7047 4.50243 43.7047C3.54541 43.7047 2.50398 43.1957 1.87126 42.6115C1.74505 42.4953 1.58207 42.4284 1.41323 42.4477C1.24356 42.4669 1.09228 42.5647 1.00452 42.7118L0.71365 43.2033C0.584097 43.4197 0.620037 43.6964 0.799739 43.8736C1.73837 44.798 3.15174 45.373 4.48905 45.373C6.74577 45.373 8.26195 44.2021 8.26195 42.4661C8.2795 40.2603 6.44488 39.7037 4.97132 39.2565Z" fill="#254A9A"/>
<path d="M14.9142 35.3048C14.8248 35.11 14.63 34.9847 14.4152 34.9847H13.8184C13.6028 34.9847 13.408 35.11 13.3195 35.3065L9.11193 44.5832C9.03503 44.7538 9.04924 44.9502 9.14954 45.1073C9.25151 45.2653 9.42452 45.3589 9.61091 45.3589H10.2211C10.4367 45.3589 10.6323 45.2327 10.7209 45.0363L11.7698 42.7177H16.4922L17.5537 45.0388C17.6432 45.2335 17.8379 45.3589 18.0519 45.3589H18.6629C18.8501 45.3589 19.0231 45.2636 19.1242 45.1065C19.2254 44.9502 19.2387 44.7529 19.161 44.5816L14.9142 35.3048ZM12.5045 41.0628L14.1126 37.498L15.7392 41.0628H12.5045Z" fill="#254A9A"/>
<path d="M21.9143 34.9855H21.3576C21.0551 34.9855 20.8093 35.2312 20.8093 35.5338V44.8106C20.8093 45.114 21.0551 45.3589 21.3576 45.3589H21.9143C22.2168 45.3589 22.4626 45.114 22.4626 44.8106V35.5338C22.4626 35.2312 22.2168 34.9855 21.9143 34.9855Z" fill="#254A9A"/>
<path d="M33.4879 34.9855H32.9438C32.6395 34.9855 32.3946 35.2312 32.3946 35.5338V42.2906L27.1875 35.2087C27.0838 35.0674 26.92 34.9855 26.7453 34.9855H26.0951C25.7916 34.9855 25.5468 35.2312 25.5468 35.5338V44.8106C25.5468 45.114 25.7916 45.3589 26.0951 45.3589H26.6517C26.9551 45.3589 27.2008 45.114 27.2008 44.8106V38.0571L32.3946 45.1366C32.4974 45.2761 32.6621 45.3589 32.8376 45.3589H33.4879C33.7905 45.3589 34.0362 45.114 34.0362 44.8106V35.5338C34.0362 35.2312 33.7905 34.9855 33.4879 34.9855Z" fill="#254A9A"/>
<path d="M43.0563 34.9855H36.2335C35.9309 34.9855 35.686 35.2312 35.686 35.5338V36.0788C35.686 36.3805 35.9309 36.6262 36.2335 36.6262H38.8187V44.8106C38.8187 45.114 39.0644 45.3589 39.367 45.3589H39.9228C40.2271 45.3589 40.4728 45.114 40.4728 44.8106V36.6262H43.0563C43.3597 36.6262 43.6046 36.3805 43.6046 36.0788V35.5338C43.6046 35.2312 43.3597 34.9855 43.0563 34.9855Z" fill="#254A9A"/>
<path d="M47.1368 40.0424H44.1764C43.8738 40.0424 43.6281 40.2873 43.6281 40.5907V41.042C43.6281 41.3454 43.8738 41.5903 44.1764 41.5903H47.1368C47.4394 41.5903 47.6843 41.3454 47.6843 41.042V40.5907C47.6843 40.2873 47.4394 40.0424 47.1368 40.0424Z" fill="#254A9A"/>
<path d="M58.6636 39.7097H58.1588C58.1563 39.7097 58.1529 39.7106 58.1496 39.7106H56.503C56.1996 39.7106 55.9539 39.9563 55.9539 40.2589V40.8164C55.9539 41.1189 56.1996 41.3647 56.503 41.3647H57.6113V43.0605C56.9652 43.5035 56.1888 43.7442 55.3989 43.7442C53.352 43.7442 51.687 42.1395 51.687 40.1661C51.687 38.1994 53.352 36.5996 55.3989 36.5996C56.3492 36.5996 57.2845 36.9498 57.9657 37.5608C58.0777 37.6611 58.2265 37.7121 58.3761 37.6996C58.5266 37.6879 58.6645 37.6143 58.7589 37.4973L59.0907 37.0861C59.2746 36.8562 59.247 36.5219 59.0247 36.328C58.0284 35.4546 56.7396 34.9715 55.3989 34.9715C52.4401 34.9715 50.0321 37.3009 50.0321 40.1661C50.0321 43.0371 52.4276 45.3716 55.3722 45.3716C56.7036 45.3716 58.0326 44.8835 59.0222 44.0318C59.1426 43.9281 59.2128 43.776 59.2128 43.6155V40.258C59.2128 39.9563 58.9662 39.7097 58.6636 39.7097Z" fill="#254A9A"/>
<path d="M66.441 34.9715C63.4897 34.9715 61.0884 37.3009 61.0884 40.1652C61.0884 43.0371 63.4897 45.3716 66.441 45.3716C69.3922 45.3716 71.7944 43.0371 71.7944 40.1652C71.7944 37.3009 69.3922 34.9715 66.441 34.9715ZM66.441 43.7309C64.4083 43.7309 62.755 42.1311 62.755 40.1652C62.755 38.2061 64.4083 36.613 66.441 36.613C68.4728 36.613 70.1261 38.2061 70.1261 40.1652C70.1261 42.1311 68.4728 43.7309 66.441 43.7309Z" fill="#254A9A"/>
<path d="M80.5789 39.8784C81.1372 39.3978 81.4473 38.6899 81.4473 37.829C81.4473 36.0746 80.1284 34.9847 78.0054 34.9847H74.2091C73.9074 34.9847 73.6616 35.2304 73.6616 35.533V44.8106C73.6616 45.1132 73.9074 45.3589 74.2091 45.3589H78.0321C80.4619 45.3589 81.9112 44.2213 81.9112 42.3165C81.9112 41.2383 81.4239 40.3807 80.5789 39.8784ZM77.992 39.1922H75.3149V36.6262H77.992C78.8128 36.6262 79.7932 36.8461 79.7932 37.8958C79.7932 38.7559 79.1872 39.1922 77.992 39.1922ZM75.3149 40.8329H77.992C78.8379 40.8329 80.2571 41.0168 80.2571 42.2488C80.2571 43.4632 79.0259 43.7182 77.992 43.7182H75.3149V40.8329Z" fill="#254A9A"/>
<path d="M88.6437 35.3048C88.5542 35.11 88.3595 34.9847 88.1447 34.9847H87.5479C87.3314 34.9847 87.1367 35.11 87.0472 35.3065L82.8406 44.5832C82.7637 44.7538 82.7779 44.9502 82.8798 45.1073C82.981 45.2653 83.154 45.3589 83.3412 45.3589H83.9514C84.167 45.3589 84.3626 45.2327 84.4512 45.0363L85.5001 42.7177H90.2208L91.2823 45.0388C91.3718 45.2335 91.5674 45.3589 91.7813 45.3589H92.3915C92.5779 45.3589 92.7525 45.2636 92.8528 45.1065C92.954 44.9502 92.9682 44.7529 92.8905 44.5816L88.6437 35.3048ZM86.234 41.0628L87.8421 37.498L89.4686 41.0628H86.234Z" fill="#254A9A"/>
<path d="M95.6429 34.9855H95.0854C94.7828 34.9855 94.5363 35.2312 94.5363 35.5338V44.8106C94.5363 45.114 94.7828 45.3589 95.0854 45.3589H95.6429C95.9454 45.3589 96.1928 45.114 96.1928 44.8106V35.5338C96.1928 35.2312 95.9454 34.9855 95.6429 34.9855Z" fill="#254A9A"/>
<path d="M107.217 34.9855H106.672C106.369 34.9855 106.124 35.2312 106.124 35.5338V42.2906L100.916 35.2087C100.813 35.0674 100.649 34.9855 100.474 34.9855H99.8237C99.5203 34.9855 99.2745 35.2312 99.2745 35.5338V44.8106C99.2745 45.114 99.5203 45.3589 99.8237 45.3589H100.381C100.684 45.3589 100.929 45.114 100.929 44.8106V38.0571L106.124 45.1366C106.227 45.2761 106.391 45.3589 106.565 45.3589H107.217C107.519 45.3589 107.764 45.114 107.764 44.8106V35.5338C107.764 35.2312 107.519 34.9855 107.217 34.9855Z" fill="#254A9A"/>
<path d="M60.8584 20.4291V29.5496H59.1793V19.1746L60.8584 20.4291ZM93.4112 29.5195H86.8057L86.7589 29.4736L80.9491 23.7273C80.7125 23.4933 80.3481 23.4214 80.0397 23.5501C79.7271 23.6805 79.5248 23.9831 79.5248 24.3216V29.5496H77.7989V16.6119C77.7989 16.3829 77.7027 16.1614 77.5364 16.0043L72.7095 11.4457C72.5541 11.2986 72.3493 11.2176 72.1353 11.2176H69.7223C69.2609 11.2176 68.8857 11.5928 68.8857 12.0534V29.5496H67.1731V1.461C67.1731 1.11999 66.9691 0.816597 66.654 0.68788C66.3448 0.560835 65.9737 0.637724 65.7413 0.874262L57.7475 8.98591C57.592 9.14304 57.5068 9.352 57.5068 9.57265V15.8388L54.2337 13.3949C53.9362 13.1734 53.4999 13.1809 53.2107 13.4124L45.7685 19.3785C45.5696 19.5382 45.4559 19.7764 45.4559 20.0313V29.5496H43.7692V24.3032C43.7692 22.461 42.5005 20.5027 40.151 20.5027C37.8006 20.5027 36.5327 22.4702 36.5327 24.3216V29.5496L34.8268 29.5488V25.9899C34.8268 24.5472 33.8338 23.0152 31.9934 23.0152C30.1529 23.0152 29.1599 24.5489 29.1599 25.9932V29.5505L27.4607 29.5513L27.4599 29.3933C27.4573 28.6762 27.4548 27.7576 27.4548 27.389C27.4548 26.1637 26.2981 25.0897 24.9791 25.0897C23.6602 25.0897 22.5034 26.1587 22.5034 27.3782V29.5496L15.0513 29.5488C14.5899 29.5488 14.2154 29.9241 14.2146 30.3846C14.2146 30.6086 14.3015 30.8184 14.4595 30.9764C14.6175 31.1343 14.8273 31.2213 15.0504 31.2213L23.3393 31.2221C23.5624 31.2221 23.7731 31.1352 23.9302 30.9772C24.0882 30.8192 24.1759 30.6094 24.1759 30.3863V27.5294C24.1759 27.2202 24.5128 26.7613 24.9791 26.7613C25.4388 26.7613 25.7832 27.1809 25.7832 27.5562C25.7832 27.771 25.7916 30.3913 25.7916 30.3913C25.7941 30.851 26.1685 31.2246 26.6274 31.2246L29.9966 31.2221C30.4571 31.2221 30.8324 30.8468 30.8324 30.3863V25.9932C30.8324 25.541 31.0748 24.6868 31.9934 24.6868C32.9119 24.6868 33.1551 25.5385 33.1551 25.9899V30.3838C33.1551 30.8451 33.5296 31.2204 33.9901 31.2204L37.3677 31.2221C37.5883 31.2221 37.804 31.1327 37.9594 30.9772C38.1149 30.8217 38.2043 30.6061 38.2043 30.3863V24.3216C38.2043 23.5793 38.6114 22.1743 40.151 22.1743C41.5786 22.1743 42.0968 23.4473 42.0968 24.3032V30.3863C42.0968 30.8468 42.472 31.2221 42.9326 31.2221H46.2917C46.7531 31.2221 47.1276 30.8468 47.1276 30.3863V20.4325L47.1877 20.384L53.7514 15.1217L57.5068 17.9259V30.3863C57.5068 30.8468 57.8821 31.2221 58.3426 31.2221H61.6951C62.1556 31.2221 62.5309 30.8468 62.5309 30.3863V20.0096C62.5309 19.7479 62.4047 19.4972 62.1949 19.3401L59.1793 17.0875V9.91534L59.2252 9.86854L65.5006 3.50041V30.3863C65.5006 30.8468 65.8759 31.2221 66.3364 31.2221H69.7223C70.1829 31.2221 70.5581 30.8468 70.5581 30.3863V12.8892H71.8027L71.8486 12.9327L76.1264 16.9722V30.3863C76.1264 30.8468 76.5017 31.2221 76.9622 31.2221H80.3606C80.822 31.2221 81.1973 30.8468 81.1973 30.3863V26.3242L85.8737 30.9496C86.0317 31.1051 86.2406 31.1912 86.4613 31.1912H93.4112C93.8725 31.1912 94.2478 30.8159 94.2478 30.3554C94.2478 29.894 93.8725 29.5195 93.4112 29.5195Z" fill="url(#paint0_linear_974_1823)"/>
</g>
<defs>
<linearGradient id="paint0_linear_974_1823" x1="14.1202" y1="15.9257" x2="94.4693" y2="15.9257" gradientUnits="userSpaceOnUse">
<stop stop-color="#54B6AE"/>
<stop offset="0.1" stop-color="#54B6AE"/>
<stop offset="0.3" stop-color="#3B98DA"/>
<stop offset="0.42" stop-color="#254A9A"/>
<stop offset="0.55" stop-color="#ED1443"/>
<stop offset="0.84" stop-color="#F25C19"/>
<stop offset="1" stop-color="#F25C19"/>
</linearGradient>
<clipPath id="clip0_974_1823">
<rect width="108.381" height="46" fill="white" transform="translate(0.00927734)"/>
</clipPath>
</defs>
</svg>
