<svg width="156" height="34" viewBox="0 0 156 34" fill="none" xmlns="http://www.w3.org/2000/svg">
<path d="M17.4959 22.7427C20.612 22.7427 23.1383 20.2153 23.1383 17.1003C23.1383 13.9847 20.612 11.4579 17.4959 11.4579C14.3814 11.4579 11.8546 13.9847 11.8546 17.1003C11.8546 20.2153 14.3814 22.7427 17.4959 22.7427ZM17.4959 28.0704C23.4966 28.0704 28.3608 23.2052 28.3608 17.2045C28.3608 11.2043 23.4966 6.34065 17.4959 6.34065C11.4963 6.34065 6.63156 11.2043 6.63156 17.2045C6.63102 23.2052 11.4963 28.0704 17.4959 28.0704ZM1.13705 17.2045C1.13705 8.17017 8.46109 0.84668 17.4959 0.84668C26.5302 0.84668 33.8553 8.17017 33.8553 17.2045C33.8553 26.2398 26.5302 33.5633 17.4959 33.5633C8.46109 33.5628 1.13705 26.2398 1.13705 17.2045Z" fill="#EB2D2D"/>
<path d="M39.1679 5.46436H57.808V10.1671H51.3966V29.0161H45.7003V10.2028H39.1679V5.46436Z" fill="black"/>
<path d="M85.8812 10.2028H80.6555V14.905C80.6555 14.905 84.7322 14.9191 85.3421 14.905C86.9795 14.871 88.2456 14.1398 88.2456 12.5358C88.245 10.7921 87.1705 10.2028 85.8812 10.2028ZM75.2198 5.46436C75.2198 5.46436 79.506 5.46436 86.2822 5.46436C92.5711 5.46436 93.4416 9.76725 93.4416 12.2752C93.4416 15.9164 90.3061 17.7459 90.0276 17.8155C90.0276 17.8155 92.7811 18.8431 92.7811 21.9619V26.3517C92.7811 28.1121 93.861 28.5989 94.0515 29.0166H89.5575C87.4145 28.7738 87.4501 27.0668 87.4668 26.0905V22.3111C87.4145 21.3882 87.136 20.3585 85.2023 20.3245H80.656V29.0166H75.2036L75.2198 5.46436Z" fill="black"/>
<path d="M117.483 5.46436V29.0161H134.449V24.1741H123.022V18.9116H132.777V14.4533H123.022V10.2028H134.449V5.46436H117.483Z" fill="black"/>
<path d="M135.252 10.2028H141.977V29.0161H147.55V10.2028H154.378V5.46436H135.252V10.2028Z" fill="black"/>
<path d="M63.6954 13.7738L61.6921 19.8533H65.8218L63.6954 13.7738ZM60.5383 5.45996H66.5838L74.8194 29.016H68.96L67.259 24.1216H60.3073L58.7028 29.016H52.8926L60.5383 5.45996Z" fill="black"/>
<path d="M115.531 15.8646H105.411V20.4454H110.218C110.208 21.3882 110.357 22.3289 109.228 23.6527C108.843 24.1034 107.526 25.1142 105.688 25.1142C104.138 25.1142 103.023 24.6711 102.056 23.8503C99.9195 22.0358 99.4165 18.6466 99.4165 16.8738C99.4165 14.6438 100.304 9.10558 105.757 8.87838C105.757 8.87838 109.434 8.64092 110.392 13.076H115.495C115.392 10.8283 112.777 4.51558 105.757 4.50587C103.333 4.50263 100.258 5.23174 97.7122 7.78174C95.8675 9.62854 94.208 12.7301 94.208 17.0999C94.208 21.8405 95.9528 24.9221 97.5486 26.6145C100.35 29.5876 103.173 29.8164 104.643 29.8164C105.809 29.8164 108.04 29.6432 110.932 27.6917L111.697 29.015H115.531V15.8646H115.531Z" fill="black"/>
<path d="M150.135 27.4676H150.428C150.616 27.4676 150.754 27.4384 150.754 27.2371C150.754 27.0574 150.564 27.0299 150.413 27.0299H150.135V27.4676ZM149.806 26.7725H150.432C150.848 26.7725 151.084 26.902 151.084 27.2647C151.084 27.5696 150.893 27.6872 150.647 27.7088L151.091 28.4352H150.746L150.341 27.725H150.135V28.4352H149.805V26.7725H149.806ZM150.397 28.7769C151.013 28.7769 151.516 28.2841 151.516 27.6052C151.516 26.9301 151.012 26.4427 150.397 26.4427C149.773 26.4427 149.277 26.9301 149.277 27.6052C149.276 28.2841 149.772 28.7769 150.397 28.7769ZM150.397 26.1238C151.202 26.1238 151.921 26.7039 151.921 27.6052C151.921 28.5103 151.202 29.0937 150.397 29.0937C149.591 29.0937 148.872 28.5103 148.872 27.6052C148.871 26.7039 149.59 26.1238 150.397 26.1238Z" fill="black"/>
</svg>
