<svg width="172" height="22" viewBox="0 0 172 22" fill="none" xmlns="http://www.w3.org/2000/svg">
<path fill-rule="evenodd" clip-rule="evenodd" d="M39.545 4.94086L40.2403 9.03182H39.8542C39.3136 6.48408 36.9982 5.40373 34.5283 5.40373C34.1422 5.40373 33.7562 5.40373 33.2155 5.55834V12.5831H34.1422C36.1483 12.5831 37.3833 11.81 37.3833 10.19H37.7694V15.902H37.4601C37.3055 14.667 36.8426 13.1238 34.2191 13.1238H33.2155V19.6079C33.2155 20.6882 33.6784 21.3057 35.2994 21.3057V21.6927H28.4293V21.3057C29.9735 21.3057 30.5142 20.6882 30.5142 19.6079V7.02475C30.5142 6.02122 29.8967 5.32593 28.3525 5.32593V4.94086H39.545ZM53.4399 4.94086L54.1342 9.03182H53.7481C53.2075 6.48408 50.8912 5.40373 48.4212 5.40373C48.0362 5.40373 47.6491 5.40373 47.1094 5.55834V12.5831H48.0362C50.0423 12.5831 51.2782 11.81 51.2782 10.19H51.6633V15.902H51.355C51.2004 14.667 50.7375 13.1238 48.113 13.1238H47.1094V19.6079C47.1094 20.6882 47.5723 21.3057 49.1933 21.3057V21.6927H42.3232V21.3057C43.8664 21.3057 44.4071 20.6882 44.4071 19.6079V7.02475C44.4071 6.02122 43.7896 5.32593 42.2454 5.32593V4.94086H53.4399ZM25.0336 4.94086V5.32593C23.8764 5.32593 23.1811 5.94342 23.1811 7.02475V19.6059C23.1811 20.7641 23.9532 21.3037 25.0336 21.3037V21.6908H18.5495V21.3037C19.7077 21.2279 20.402 20.7641 20.402 19.6059V7.02475C20.402 5.94439 19.7077 5.32593 18.5495 5.32593V4.94086H25.0336ZM16.6193 0.386046L17.3136 5.40373H17.0053C16.0018 2.77917 14.2261 1.00353 10.7527 1.00353V18.757C10.7527 20.6863 11.833 21.3037 12.9912 21.3037V21.6908H5.27211V21.3037C6.35344 21.3037 7.66523 20.6863 7.66523 18.757V1.00353C4.11396 1.00353 2.49391 2.62456 1.25894 5.40373H0.949707L1.49037 0.386046H16.6193ZM111.564 16.2102C111.564 18.8348 113.418 20.765 116.119 20.765C117.277 20.765 118.666 20.2234 119.593 19.0672L114.189 12.1193C112.876 12.5831 111.564 13.9717 111.564 16.2102ZM118.975 5.8666C118.969 3.72144 118.041 2.62456 116.197 2.62456C114.343 2.62456 113.262 3.70589 113.262 5.48055C113.262 7.48763 115.964 10.2668 115.964 10.2668C118.126 9.03182 118.975 7.79685 118.975 5.8666ZM116.351 10.7297L120.983 16.5204C120.983 16.5204 121.445 15.5937 121.523 14.667C121.523 13.5866 120.983 13.2006 120.056 13.0469V12.7377H125.074C125.074 12.7377 125.15 13.0469 125.074 13.0469C124.147 13.2006 123.452 13.5088 122.757 14.0495C122.217 14.7448 121.908 15.3623 121.29 16.9065L123.452 19.531C124.379 20.6114 125.614 21.2289 126.926 21.3047V21.6917H121.522V21.3047L119.978 19.4532C118.665 20.766 116.582 21.9241 114.498 21.9241C111.178 21.9241 109.017 20.0707 109.017 17.524C109.017 14.7458 111.641 12.9691 113.725 11.5796C113.725 11.5796 111.486 9.03279 111.486 6.71747C111.486 4.09388 113.493 2.08583 116.272 2.08583C118.743 2.08583 120.672 3.86147 120.672 6.02316C120.673 8.49116 117.817 9.57249 116.351 10.7297ZM150.005 0L150.236 6.71552H149.851C149.156 2.93281 146.687 0.772099 143.521 0.772099C139.739 0.772099 137.115 5.17229 137.115 11.0389C137.115 18.3719 140.047 21.3825 144.062 21.3825C148.229 21.3825 149.851 17.523 150.237 14.7448H150.622V17.6776C149.929 18.9135 147.844 21.7686 143.445 21.7686C137.886 21.7686 133.563 17.2138 133.563 11.1167C133.563 5.55932 138.427 0.463841 143.445 0.463841C146.378 0.463841 147.149 1.69979 148.307 1.69979C149.156 1.69979 149.542 1.15912 149.62 0.000971885H150.005V0ZM170.306 18.6033C171.155 18.6033 171.85 19.2986 171.85 20.1475C171.85 20.9965 171.155 21.6139 170.306 21.6139C169.457 21.6139 168.762 20.9965 168.762 20.1475C168.762 19.2986 169.457 18.6033 170.306 18.6033ZM155.1 13.046C155.1 18.2173 157.106 21.3815 160.272 21.3815C163.514 21.3815 165.519 18.4487 165.519 13.046C165.519 8.10511 163.745 5.32593 160.348 5.24911C156.875 5.17229 155.1 8.49116 155.1 13.046ZM160.195 4.86307C164.971 4.87279 168.994 8.49796 168.994 13.3532C168.994 18.0617 165.213 21.6908 160.349 21.6908C155.562 21.6908 151.549 17.9071 151.549 13.3532C151.549 8.80038 155.486 4.86307 160.195 4.86307ZM60.0008 8.49115L62.8568 15.3613H57.2216L60.0008 8.49115ZM69.2631 21.3047C68.6456 21.3047 68.1827 20.765 67.8735 20.38C67.6421 19.9929 61.158 4.09194 61.158 4.09194L55.2146 18.6033C54.5202 20.4548 53.5935 21.3037 52.2817 21.3037V21.6908H57.1438V21.3037C56.1413 21.2279 55.5228 20.7641 55.5228 20.0688C55.5228 19.5291 57.066 15.8242 57.066 15.8242H62.9326C62.9326 15.8242 64.5537 19.2976 64.6305 20.0688C64.7083 20.6863 63.7816 21.3037 62.8548 21.3037V21.6908H69.2611V21.3047H69.2631ZM71.9654 18.757C71.9654 20.3012 70.9619 20.9965 69.8815 21.3037V21.6908H74.7446V21.3037C73.355 20.9965 72.5829 20.0688 72.5829 18.757V7.87465L83.9301 22V8.41531C83.9301 6.48506 85.0104 5.32691 86.2454 5.32691V4.94183H80.7649V5.25008C82.3091 5.71393 83.3894 6.63967 83.3894 8.41531V16.7528L73.9715 4.94183H69.4945V5.25008C71.4238 5.3269 71.9645 6.94793 71.9645 7.33398V18.757H71.9654ZM86.8629 5.32593C87.5504 5.32593 87.7147 5.33079 88.2525 6.32947C88.2525 6.32947 93.4238 14.5902 93.4238 14.666V19.6059C93.4238 20.6863 92.4971 21.3037 91.1085 21.3815V21.6908H98.2878V21.3815C96.9751 21.3037 96.1261 20.6863 96.1261 19.6059V13.8171C96.1261 13.8171 99.444 7.87367 99.7533 7.33301C100.524 6.09804 101.605 5.32594 102.918 5.17132V4.93989H97.0509L97.1287 5.17132C98.9802 5.17132 99.444 6.94696 98.7488 8.02731L95.7382 13.5847L92.0342 7.10157C91.4148 6.09804 92.1879 5.17132 93.5765 5.17132V4.93989H86.8609V5.32593H86.8629Z" fill="black"/>
</svg>
