<svg width="163" height="28" viewBox="0 0 163 28" fill="none" xmlns="http://www.w3.org/2000/svg">
<path fill-rule="evenodd" clip-rule="evenodd" d="M15.8446 3.36475H0.221313V8.05094H5.50977V23.5536H10.7974V8.05094H15.8446V3.36475Z" fill="#272727"/>
<path fill-rule="evenodd" clip-rule="evenodd" d="M30.6261 8.0494H25.6996V16.3414C25.6996 19.1062 24.1366 19.8265 23.0553 19.8265C21.4933 19.8265 20.6515 19.1062 20.6515 17.0634V8.0494H15.8447V17.302C15.8447 21.3886 17.0466 23.9122 21.3726 23.9122C23.0545 23.9122 24.9775 22.9515 25.8193 21.3886H25.9391V23.5511H30.6261V8.0494ZM39.9994 11.4148C42.1628 11.4148 42.884 13.6971 42.884 15.6211C42.884 17.6639 42.1628 20.0669 39.9994 20.0669C37.8368 20.0669 37.1156 18.2653 37.1156 15.6211C37.1156 12.3763 38.6777 11.4148 39.9994 11.4148ZM32.4286 27.9996H37.2363V21.8711C38.3176 23.1927 39.6401 23.9139 41.5623 23.9139C45.7686 23.9139 47.8114 20.1884 47.8114 16.1036C47.8114 11.7767 45.7686 7.57037 41.2022 7.57037C39.3989 7.57037 37.9574 8.41214 37.1165 9.85358H36.9959V8.05113H32.4294V27.9996H32.4286ZM56.4644 11.4148C58.6279 11.4148 59.3481 13.6971 59.3481 15.6211C59.3481 17.6639 58.627 20.0669 56.4644 20.0669C54.1812 20.0669 53.46 18.2653 53.46 15.6211C53.4592 12.3763 55.1419 11.4148 56.4644 11.4148ZM48.773 27.9996H53.7004V21.8711C54.662 23.1927 56.1043 23.9139 57.9067 23.9139C62.113 23.9139 64.1558 20.1884 64.1558 16.1036C64.1558 11.7767 62.2328 7.57037 57.5457 7.57037C55.8639 7.57037 54.4216 8.41214 53.46 9.85358V8.05113H48.7738V27.9996H48.773ZM69.9233 14.1788C70.1637 12.2566 71.3656 11.0546 73.0474 11.0546C74.7301 11.0546 75.9321 12.4961 75.9321 14.1788H69.9233ZM80.8595 17.0634C81.0999 11.7749 78.3359 7.56863 73.0483 7.56863C68.7223 7.56863 65.1165 11.0546 65.1165 15.7408C65.1165 20.9087 68.3613 23.9122 73.1681 23.9122C76.5326 23.9122 79.6576 22.3492 80.6191 18.865H76.0527C75.5719 19.9463 74.37 20.5476 73.2887 20.5476C71.2459 20.5476 70.0439 19.1053 69.9242 17.0625H80.8595V17.0634ZM81.9417 23.552H86.7485V16.1027C86.7485 14.1788 87.9504 12.4961 90.3534 12.4961H91.7957V7.92964C91.4347 7.80902 91.4347 7.80902 91.0737 7.80902C89.0308 7.80902 87.3481 8.77055 86.6279 10.8134V8.0494H81.9417V23.552ZM116.311 8.0494H111.264L108.86 18.0249L106.696 8.0494H102.01L99.967 18.0249H99.8473L97.4434 8.0494H92.5168L97.0824 23.552H102.01L104.293 13.2172H104.413L106.696 23.552H111.623L116.311 8.0494ZM120.276 19.1062C120.276 17.7845 121.239 17.3029 122.32 17.0634C123.401 16.823 124.603 16.7024 125.324 16.2207C125.444 19.4664 124.603 20.7889 122.32 20.7889C121.239 20.7889 120.276 20.3073 120.276 19.1062ZM120.637 12.8562C120.878 11.5345 121.719 10.934 123.041 10.934C124.002 10.934 125.325 11.295 125.325 12.4961C125.325 13.4576 124.964 13.6971 124.123 13.9384C120.758 14.6604 115.47 14.1788 115.47 19.2268C115.47 22.4707 117.632 23.913 120.517 23.913C122.32 23.913 124.122 23.4331 125.444 21.9908V23.552H130.011V12.7373C130.011 8.41128 126.646 7.5695 123.041 7.5695C121.359 7.5695 119.677 7.93051 118.355 8.65166C117.033 9.49257 116.193 10.8151 116.072 12.858H120.637V12.8562ZM146.595 14.1788C146.955 12.2566 148.038 11.0546 149.839 11.0546C151.402 11.0546 152.604 12.4961 152.724 14.1788H146.595ZM157.531 17.0634C157.771 11.7749 155.127 7.56863 149.839 7.56863C145.394 7.56863 141.789 11.0546 141.789 15.7408C141.789 20.9087 145.033 23.9122 149.96 23.9122C153.204 23.9122 156.45 22.3492 157.29 18.865H152.724C152.242 19.9463 151.161 20.5476 149.959 20.5476C147.916 20.5476 146.715 19.1053 146.595 17.0625H157.531V17.0634ZM131.814 23.552H136.621V16.2216C136.621 14.2994 137.823 12.4969 140.226 12.4969H141.789V7.93051C141.307 7.80988 141.307 7.80988 140.946 7.80988C138.903 7.80988 137.222 8.77142 136.5 10.8143V8.05027H131.814V23.552ZM157.05 6.12719H157.651V4.32388H158.372L159.453 6.12719H160.175L158.973 4.20412C159.573 4.20412 160.054 3.84397 160.054 3.12282C160.054 2.40167 159.573 1.9209 158.612 1.9209H157.049V6.12719H157.05ZM157.651 2.52143H158.492C158.974 2.52143 159.333 2.52143 159.333 3.12195C159.333 3.72248 158.853 3.72248 158.373 3.72248H157.652V2.52143H157.651Z" fill="#272727"/>
<path fill-rule="evenodd" clip-rule="evenodd" d="M154.526 3.96504C154.526 1.80245 156.329 0 158.492 0C160.775 0 162.578 1.80245 162.578 3.96504C162.583 4.50287 162.48 5.0362 162.276 5.53394C162.073 6.03168 161.772 6.48386 161.391 6.86414C161.011 7.24442 160.559 7.54519 160.061 7.7489C159.563 7.95262 159.03 8.05521 158.492 8.0507C156.329 8.0507 154.526 6.24826 154.526 3.96504ZM158.492 7.56993C160.416 7.56993 161.977 5.88811 161.977 3.96504C161.977 2.04196 160.416 0.479902 158.492 0.479902C156.57 0.479902 155.007 2.04196 155.007 3.96504C155.007 5.88811 156.57 7.56993 158.492 7.56993Z" fill="black"/>
</svg>
