<svg width="106" height="38" viewBox="0 0 106 38" fill="none" xmlns="http://www.w3.org/2000/svg">
<g clip-path="url(#clip0_974_1787)">
<path d="M61.7218 22.8826C61.7218 30.7304 57.4261 31.7217 53.1305 31.7217C45.7783 31.7217 44.2087 27.9217 44.2087 22.5521V7.26954H41.4826V5.78258H51.8087V7.26954H48.9174V22.0565C48.9174 27.2608 50.2392 29.9043 54.0392 29.9043C57.8392 29.9043 59.7392 28.0043 59.7392 22.5521V7.26954H57.0131V5.78258H64.3652V7.26954H61.887L61.7218 22.8826ZM68.9087 29.9043V7.26954H66.0174V5.78258H77.4174C82.2913 5.78258 84.687 8.50867 84.687 11.7304C84.687 15.2 81.5479 17.1 78.8218 17.6782C84.1913 18.1739 85.6783 21.6435 85.6783 24.2043C85.6783 29.4087 81.2174 31.3913 76.9218 31.3913H65.8522V29.9043H68.9087ZM80.0609 12.0608C80.0609 9.66519 78.8218 7.26954 76.0957 7.26954H73.1218V17.1H75.7652C78.7392 17.1 80.0609 14.7043 80.0609 12.0608ZM81.0522 24.2869C81.0522 20.9 79.5652 18.5869 76.1783 18.5869H73.287V29.9869H75.6826C79.2348 29.9043 81.0522 27.7565 81.0522 24.2869ZM97.1609 6.9391C94.4348 6.9391 92.7 8.50867 92.7 11.3174C92.7 13.7956 95.4261 15.0348 98.0696 15.9435C99.6392 16.5217 101.622 17.2652 103.026 18.5043C104.513 19.9087 105.339 21.8087 105.257 24.2043C105.174 28.6652 102.035 31.7217 96.5 31.7217C94.4348 31.7217 91.2131 31.2261 89.3131 30.1521L89.0652 23.4608H90.7174C90.8826 28.0043 92.9479 30.3174 96.6652 30.3174C99.6392 30.3174 101.291 28.3348 101.291 25.2782C101.291 22.6348 99.1435 21.5608 95.8392 20.4043C94.7652 20.0739 92.6174 19.2478 91.1305 17.7608C89.8087 16.4391 89.1479 14.7043 89.1479 12.9695C89.1479 7.76519 92.8652 5.45215 97.4913 5.45215C99.3087 5.45215 102.035 6.11302 103.687 7.02171L103.852 12.8869H102.2C101.952 8.7565 100.135 6.9391 97.1609 6.9391Z" fill="#E60000"/>
<path d="M28.5131 10.987L27.8522 11.5652L28.5957 13.9609L26.4479 12.8043L25.7044 13.3826L28.1 14.7043L25.5392 16.7696L24.8783 15.8609L25.787 15.1174L25.1261 14.2913L24.2174 15.0348L23.4739 14.0435L24.3826 13.3L23.7218 12.3913L19.0957 16.2739L23.5565 19.8261L24.3826 18.8348C24.9609 18.8348 25.3739 19.3304 25.6218 19.8261L24.7957 20.8174L25.2913 21.2304C26.3652 20.2391 27.8522 19.5783 29.3392 19.5783C32.4783 19.5783 34.8739 22.1391 34.8739 25.2783C34.8739 26.2696 34.6261 27.4261 34.0479 28.3348L34.8739 28.9956C34.8739 29.5739 34.2957 30.2348 33.7174 30.4L32.8913 29.7391C31.8174 30.813 30.3305 31.3913 28.8435 31.3913C25.7044 31.3913 23.3087 28.913 23.3087 25.7739C23.3087 24.7826 23.6392 23.7087 24.0522 22.8L23.4739 22.387L22.6479 23.4609C22.0696 23.3783 21.5739 22.9652 21.4087 22.387L22.2348 21.4783L18.5174 18.3391V23.2957H19.7565C19.9218 23.5435 20.0044 23.7913 20.0044 24.0391C20.0044 24.287 19.9218 24.6174 19.7565 24.8652H18.5174V25.4435C21.2435 25.9391 23.5565 28.2522 23.5565 31.0609C23.5565 33.9522 21.3261 36.2652 18.5174 36.7609V37.7522C18.2696 37.9174 17.9392 38 17.6087 38C17.2783 38 16.8652 37.9174 16.6174 37.7522V36.7609C13.8087 36.3478 11.6609 33.9522 11.6609 31.0609C11.6609 28.2522 13.8087 25.9391 16.6174 25.5261V24.8652H15.2957C15.1305 24.6174 15.0479 24.3696 15.0479 24.0391C15.0479 23.7087 15.1305 23.4609 15.2957 23.213H16.6174V18.2565L12.8174 21.3957L13.6435 22.3043C13.4783 22.8826 12.9826 23.2957 12.4044 23.3783L11.5783 22.3043L11.0826 22.8C11.5783 23.7087 11.9087 24.7 11.9087 25.7739C11.9087 28.913 9.43046 31.3913 6.37394 31.3913C4.88698 31.3913 3.40003 30.813 2.32611 29.7391L1.50003 30.4C1.00438 30.2348 0.426115 29.5739 0.343506 28.9956L1.16959 28.3348C0.673941 27.4261 0.343506 26.3522 0.343506 25.2783C0.343506 22.1391 2.73916 19.5783 5.87829 19.5783C7.36524 19.5783 8.8522 20.2391 9.92611 21.2304L10.4218 20.9L9.59568 19.9087C9.7609 19.413 10.2565 19 10.8348 18.9174L11.6609 19.9087L16.1218 16.3565L11.4957 12.4739L10.8348 13.3826L11.7435 14.1261L11.0826 15.0348L10.1739 14.2913L9.51307 15.1174L10.2565 15.6957L9.59568 16.6043L7.11742 14.5391L9.43046 13.2174L8.76959 12.6391L6.62177 13.7957L7.28264 11.5652L6.62177 10.987L5.79568 13.5478L3.23481 11.4826L3.89568 10.6565L4.80438 11.4L5.54785 10.5739L4.63916 9.74783L5.30003 8.92174L6.20872 9.58261L6.86959 8.75652L4.88698 7.26957C5.0522 6.6087 5.46524 6.11304 6.12611 5.7L16.6174 14.2913V8.5913H15.5435V9.66522H14.4696V8.5913H13.3957V9.66522H12.3218V6.44348L14.8 7.51739V6.6087L12.487 5.61739L14.8 4.7087V3.88261L12.3218 4.87391V1.56957H13.3957V2.72609H14.4696V1.56957H15.5435V2.72609H16.6174V0.165217C16.9479 0.0826087 17.2783 0 17.6087 0C17.9392 0 18.2696 0.0826087 18.5174 0.165217V14.2913L29.0087 5.7C29.587 6.11304 30 6.6087 30.2479 7.26957L28.2652 8.83913L28.9261 9.66522L29.8348 9.00435L30.4957 9.83043L29.587 10.6565L30.2479 11.4826L31.1565 10.7391L31.8174 11.5652L29.2565 13.6304L28.5131 10.987ZM7.11742 26.5174C7.11742 27.4261 7.77829 28.0043 8.60437 28.087L7.28264 29.0783C6.37394 28.7478 5.54785 27.6739 5.54785 26.6826C5.54785 26.3522 5.63046 26.187 5.71307 25.9391H5.46524C4.22611 25.9391 3.23481 24.7826 2.98698 23.6261L4.39133 22.5522V22.9652C4.39133 23.7087 5.13481 24.3696 5.87829 24.3696C6.70437 24.3696 7.44785 23.7087 7.44785 22.8826C7.44785 21.8913 6.70437 21.2304 5.71307 21.2304C3.89568 21.2304 2.07829 23.0478 2.07829 25.3609C2.07829 26.0217 2.24351 26.6826 2.49133 27.2609L3.31742 26.6C3.89568 26.8478 4.30872 27.4261 4.47394 28.087L3.64785 28.7478C4.47394 29.4087 5.46524 29.7391 6.45655 29.7391C8.60437 29.7391 10.2565 28.0043 10.2565 26.5174C10.2565 25.6087 9.67829 24.8652 8.76959 24.8652C7.77829 25.0304 7.11742 25.6913 7.11742 26.5174ZM18.3522 29.8217C18.3522 30.6478 19.0131 31.3087 19.8392 31.3087C20.4174 31.3087 20.6652 31.0609 21.0783 30.7304V32.4652C20.6652 32.713 20.2522 32.7957 19.7565 32.7957C18.8479 32.7957 18.1044 32.5478 17.6087 31.7217C17.1131 32.5478 16.287 32.7957 15.3783 32.7957C14.9652 32.7957 14.4696 32.713 14.0565 32.4652V30.7304C14.4696 31.1435 14.7174 31.3087 15.2957 31.3087C16.1218 31.3087 16.7826 30.6478 16.7826 29.8217C16.7826 28.9956 16.287 28.3348 15.3783 28.3348C13.8087 28.3348 13.1479 29.8217 13.1479 31.2261C13.1479 33.2087 14.6348 34.9435 16.5348 35.2739V34.2826C16.8652 34.1174 17.1957 34.1174 17.4435 34.1174C17.7739 34.1174 18.1044 34.1174 18.4348 34.2826V35.2739C20.2522 35.0261 21.8218 33.1261 21.8218 31.2261C21.8218 29.8217 21.2435 28.3348 19.5913 28.3348C18.9305 28.2522 18.3522 28.9956 18.3522 29.8217ZM27.7696 22.9652C27.7696 23.7087 28.5957 24.4522 29.3392 24.4522C30.0826 24.4522 30.8261 23.7913 30.8261 23.0478V22.6348L32.1479 23.7087C31.9 25.0304 30.7435 26.1043 29.4218 26.0217C29.5044 26.2696 29.5044 26.5174 29.5044 26.7652C29.5044 27.7565 28.6783 28.8304 27.7696 29.1609L26.5305 28.087C27.3565 28.0043 28.0174 27.4261 28.0174 26.5174C28.0174 25.6087 27.2739 25.0304 26.4479 25.0304C25.5392 25.0304 24.9609 25.7739 24.9609 26.6826C24.9609 27.7565 26.2826 29.9043 28.8435 29.9043C29.8348 29.9043 30.8261 29.5739 31.5696 28.913L30.7435 28.2522C30.9087 27.5913 31.3218 27.013 31.9 26.7652L32.7261 27.4261C33.0565 26.8478 33.2218 26.187 33.2218 25.5261C33.2218 23.7087 31.8174 21.3957 29.587 21.3957C28.5957 21.3957 27.7696 21.9739 27.7696 22.9652Z" fill="black"/>
</g>
<defs>
<clipPath id="clip0_974_1787">
<rect width="104.913" height="38" fill="white" transform="translate(0.343506)"/>
</clipPath>
</defs>
</svg>
