<svg width="179" height="36" viewBox="0 0 179 36" fill="none" xmlns="http://www.w3.org/2000/svg">
<path d="M66.6697 10.6533C66.6697 13.8998 64.7459 15.4869 61.5234 15.4869C58.2769 15.4869 56.4012 13.9238 56.4012 10.6533V3.17432H59.0465V10.6533C59.0465 11.9759 59.3831 13.2745 61.5234 13.2745C63.3992 13.2745 64.0244 12.4569 64.0244 10.6533V3.17432H66.6697V10.6533Z" fill="black"/>
<path d="M70.7582 11.2306C70.7582 12.8418 72.0087 13.443 73.4275 13.443C74.3654 13.443 75.7602 13.1784 75.7602 11.952C75.7602 10.6534 73.9566 10.437 72.177 9.956C70.3975 9.47504 68.5939 8.8017 68.5939 6.54117C68.5939 4.08827 70.9265 2.90991 73.0909 2.90991C75.5919 2.90991 77.9005 4.01612 77.9005 6.78166H75.3514C75.2792 5.33877 74.2452 4.954 72.9706 4.954C72.1289 4.954 71.143 5.31472 71.143 6.32474C71.143 7.26262 71.7201 7.35881 74.7261 8.1524C75.5919 8.36883 78.3093 8.92194 78.3093 11.6634C78.3093 13.8758 76.5778 15.5111 73.3073 15.5111C70.638 15.5111 68.161 14.1885 68.185 11.2306H70.7582Z" fill="black"/>
<path d="M87.8565 3.17432H90.5739L95.0709 15.1984H92.3294L91.4156 12.529H86.9186L85.9807 15.1984H83.2874L87.8565 3.17432ZM87.616 10.5571H90.7423L89.2272 6.13223H89.2032L87.616 10.5571Z" fill="black"/>
<path d="M95.8645 6.49341H98.1491V8.10463H98.1731C98.606 6.99842 99.7843 6.25293 100.963 6.25293C101.131 6.25293 101.323 6.27698 101.492 6.34912V8.56155C101.275 8.51345 100.915 8.4894 100.626 8.4894C98.8705 8.4894 98.2693 9.76395 98.2693 11.279V15.1988H95.8886V6.49341H95.8645Z" fill="black"/>
<path d="M102.478 6.49341H104.738V7.67177H104.762C105.387 6.78199 106.301 6.25293 107.432 6.25293C108.538 6.25293 109.5 6.66175 109.981 7.69582C110.486 6.92628 111.4 6.25293 112.602 6.25293C114.454 6.25293 115.776 7.11866 115.776 9.37918V15.1988H113.396V10.269C113.396 9.11465 113.299 8.15273 111.929 8.15273C110.582 8.15273 110.317 9.25894 110.317 10.3652V15.2229H107.937V10.3171C107.937 9.30704 108.009 8.15273 106.494 8.15273C106.013 8.15273 104.882 8.46536 104.882 10.1487V15.1988H102.502V6.49341H102.478Z" fill="black"/>
<path d="M121.981 16.3043C121.451 17.6991 120.634 18.2762 118.975 18.2762C118.494 18.2762 117.989 18.2522 117.508 18.2041V16.2322C117.964 16.2562 118.445 16.3283 118.902 16.3043C119.72 16.2322 120.009 15.3664 119.72 14.669L116.642 6.49268H119.215L121.187 12.4566H121.211L123.111 6.49268H125.612L121.981 16.3043Z" fill="black"/>
<path d="M139.392 7.21464C139.223 6.01224 138.069 5.09841 136.771 5.09841C134.39 5.09841 133.5 7.11845 133.5 9.23468C133.5 11.2307 134.39 13.2507 136.771 13.2507C138.382 13.2507 139.296 12.1445 139.512 10.5573H142.085C141.821 13.5633 139.753 15.4872 136.795 15.4872C133.067 15.4872 130.879 12.6976 130.879 9.23468C130.879 5.65152 133.067 2.88599 136.795 2.88599C139.44 2.88599 141.676 4.42506 141.989 7.21464H139.392Z" fill="black"/>
<path d="M147.833 6.25293C150.574 6.25293 152.354 8.08058 152.354 10.8461C152.354 13.6116 150.574 15.4393 147.833 15.4393C145.115 15.4393 143.336 13.6116 143.336 10.8461C143.336 8.08058 145.115 6.25293 147.833 6.25293ZM147.833 13.6357C149.468 13.6357 149.949 12.2409 149.949 10.8461C149.949 9.45133 149.468 8.05654 147.833 8.05654C146.221 8.05654 145.716 9.45133 145.716 10.8461C145.716 12.2409 146.221 13.6357 147.833 13.6357Z" fill="black"/>
<path d="M153.892 6.49341H156.177V8.10463H156.201C156.634 6.99842 157.812 6.25293 158.991 6.25293C159.159 6.25293 159.351 6.27698 159.52 6.34912V8.56155C159.303 8.51345 158.942 8.4894 158.654 8.4894C156.898 8.4894 156.297 9.76395 156.297 11.279V15.1988H153.892V6.49341Z" fill="black"/>
<path d="M160.457 6.49341H162.742V7.59962H162.766C163.343 6.66175 164.281 6.25293 165.363 6.25293C168.105 6.25293 169.331 8.46535 169.331 10.9423C169.331 13.275 168.057 15.4393 165.507 15.4393C164.473 15.4393 163.463 14.9824 162.886 14.1167H162.862V18.277H160.481V6.49341H160.457ZM166.926 10.8702C166.926 9.49942 166.373 8.05654 164.834 8.05654C163.271 8.05654 162.766 9.45133 162.766 10.8702C162.766 12.289 163.295 13.6357 164.858 13.6357C166.421 13.6357 166.926 12.289 166.926 10.8702Z" fill="black"/>
<path d="M172.602 12.3848C172.626 13.4189 173.492 13.8518 174.43 13.8518C175.127 13.8518 175.993 13.5872 175.993 12.7455C175.993 12.0241 175.007 11.7596 173.276 11.3989C171.905 11.0862 170.51 10.6053 170.51 9.06619C170.51 6.85377 172.434 6.27661 174.31 6.27661C176.209 6.27661 177.965 6.92591 178.157 9.06619H175.873C175.801 8.12831 175.103 7.88783 174.237 7.88783C173.708 7.88783 172.915 7.98403 172.915 8.70547C172.915 9.5712 174.262 9.69144 175.632 10.0041C177.027 10.3167 178.398 10.8217 178.398 12.457C178.398 14.7415 176.402 15.487 174.43 15.487C172.41 15.487 170.438 14.7175 170.342 12.4089H172.602V12.3848Z" fill="black"/>
<path d="M60.4416 22.5327C63.1831 22.5327 64.9626 24.3604 64.9626 27.1259C64.9626 29.8914 63.1831 31.7191 60.4416 31.7191C57.7241 31.7191 55.9446 29.8914 55.9446 27.1259C55.9446 24.3604 57.7241 22.5327 60.4416 22.5327ZM60.4416 29.9155C62.0768 29.9155 62.5578 28.5207 62.5578 27.1259C62.5578 25.7311 62.0768 24.3363 60.4416 24.3363C58.8304 24.3363 58.3253 25.7311 58.3253 27.1259C58.3253 28.5207 58.8304 29.9155 60.4416 29.9155Z" fill="black"/>
<path d="M67.0308 24.3844H65.5879V22.7732H67.0308V22.0999C67.0308 20.5608 67.9927 19.4546 69.9406 19.4546C70.3735 19.4546 70.8063 19.5027 71.2151 19.5267V21.3063C70.9266 21.2822 70.638 21.2582 70.3494 21.2582C69.7001 21.2582 69.4356 21.5227 69.4356 22.2442V22.7732H71.0949V24.3844H69.4356V31.5027H67.0308V24.3844Z" fill="black"/>
<path d="M77.0588 19.4546H86.0528V21.667H79.7041V24.2402H85.5237V26.2843H79.7041V29.2422H86.1971V31.4546H77.0588V19.4546Z" fill="black"/>
<path d="M87.9769 22.7732H90.2615V23.9756H90.3096C90.9108 22.9896 91.9689 22.5327 92.9789 22.5327C95.528 22.5327 96.1533 23.9756 96.1533 26.1159V31.4786H93.7485V26.5487C93.7485 25.1059 93.3156 24.4085 92.2094 24.4085C90.9108 24.4085 90.3577 25.1299 90.3577 26.9095V31.4786H87.9769V22.7732Z" fill="black"/>
<path d="M106.59 30.9255C106.59 32.3684 106.085 34.7732 102.069 34.7732C100.362 34.7732 98.3416 33.9556 98.2214 31.9836H100.602C100.819 32.8734 101.54 33.186 102.382 33.186C103.704 33.186 104.33 32.2722 104.306 31.0217V29.8674H104.281C103.752 30.7812 102.718 31.2141 101.66 31.2141C99.039 31.2141 97.9328 29.2181 97.9328 26.8373C97.9328 24.5768 99.2314 22.5327 101.684 22.5327C102.839 22.5327 103.704 22.9175 104.281 23.9275H104.306V22.7732H106.59V30.9255ZM104.33 27.0297C104.33 25.6109 103.849 24.3604 102.286 24.3604C100.939 24.3604 100.338 25.5387 100.338 26.8373C100.338 28.0878 100.819 29.4586 102.286 29.4586C103.656 29.4345 104.33 28.2802 104.33 27.0297Z" fill="black"/>
<path d="M111.231 21.4265H108.851V19.4546H111.231V21.4265ZM108.851 22.7732H111.231V31.4786H108.851V22.7732Z" fill="black"/>
<path d="M113.371 22.7732H115.656V23.9756H115.704C116.305 22.9896 117.363 22.5327 118.373 22.5327C120.922 22.5327 121.548 23.9756 121.548 26.1159V31.4786H119.143V26.5487C119.143 25.1059 118.71 24.4085 117.604 24.4085C116.305 24.4085 115.752 25.1299 115.752 26.9095V31.4786H113.371V22.7732Z" fill="black"/>
<path d="M125.588 27.7275C125.66 29.2425 126.405 29.9399 127.728 29.9399C128.69 29.9399 129.46 29.3387 129.604 28.8096H131.72C131.047 30.8537 129.604 31.7435 127.632 31.7435C124.89 31.7435 123.183 29.8678 123.183 27.1503C123.183 24.5291 124.987 22.5571 127.632 22.5571C130.59 22.5571 132.033 25.0581 131.864 27.7275H125.588ZM129.484 26.1884C129.267 24.986 128.738 24.3367 127.584 24.3367C126.069 24.3367 125.636 25.515 125.588 26.1884H129.484Z" fill="black"/>
<path d="M135.52 27.7275C135.592 29.2425 136.337 29.9399 137.66 29.9399C138.622 29.9399 139.392 29.3387 139.536 28.8096H141.652C140.979 30.8537 139.536 31.7435 137.564 31.7435C134.822 31.7435 133.115 29.8678 133.115 27.1503C133.115 24.5291 134.919 22.5571 137.564 22.5571C140.522 22.5571 141.965 25.0581 141.796 27.7275H135.52ZM139.416 26.1884C139.199 24.986 138.67 24.3367 137.516 24.3367C136.001 24.3367 135.568 25.515 135.52 26.1884H139.416Z" fill="black"/>
<path d="M143.48 22.7732H145.764V24.3844H145.788C146.221 23.2782 147.4 22.5327 148.578 22.5327C148.746 22.5327 148.939 22.5568 149.107 22.6049V24.8413C148.891 24.7932 148.53 24.7451 148.241 24.7451C146.486 24.7451 145.885 26.0197 145.885 27.5347V31.4546H143.504V22.7732H143.48Z" fill="black"/>
<path d="M152.137 28.6653C152.162 29.6994 153.027 30.1323 153.965 30.1323C154.663 30.1323 155.528 29.8677 155.528 29.0261C155.528 28.3046 154.542 28.0401 152.811 27.6794C151.44 27.3667 150.045 26.8858 150.045 25.3467C150.045 23.1343 151.969 22.5571 153.845 22.5571C155.745 22.5571 157.5 23.2064 157.693 25.3467H155.408C155.336 24.4088 154.638 24.1684 153.773 24.1684C153.244 24.1684 152.45 24.2645 152.45 24.986C152.45 25.8517 153.797 25.972 155.168 26.2846C156.562 26.5972 157.933 27.1022 157.933 28.7375C157.933 31.0221 155.937 31.7675 153.965 31.7675C151.945 31.7675 149.973 30.998 149.877 28.6894H152.137V28.6653Z" fill="black"/>
<path d="M162.237 26.2126C163.704 26.2126 165.003 27.2708 165.003 28.906C165.003 30.5654 163.704 31.6235 162.237 31.6235C160.77 31.6235 159.472 30.5654 159.472 28.906C159.448 27.2708 160.77 26.2126 162.237 26.2126ZM162.237 31.0463C163.367 31.0463 164.281 30.1565 164.281 28.906C164.281 27.6796 163.367 26.7898 162.237 26.7898C161.107 26.7898 160.193 27.6796 160.193 28.906C160.193 30.1325 161.107 31.0463 162.237 31.0463ZM161.155 27.391H162.309C163.079 27.391 163.488 27.6315 163.488 28.2808C163.488 28.8339 163.151 29.0503 162.694 29.0984L163.512 30.4211H162.886L162.141 29.1225H161.756V30.4211H161.155V27.391ZM161.756 28.6415H162.285C162.622 28.6415 162.886 28.5934 162.886 28.2327C162.886 27.896 162.55 27.8479 162.261 27.8479H161.756V28.6415Z" fill="black"/>
<path d="M6.40551 0H42.5258C45.628 0 48.129 2.501 48.129 5.60321V30.3968C48.129 33.499 45.628 36 42.5258 36H6.40551C3.30331 35.976 0.802307 33.4749 0.802307 30.3968V5.60321C0.802307 2.501 3.30331 0 6.40551 0Z" fill="#E4032E"/>
<path d="M42.2612 33.0423H6.52575C5.01072 33.0423 3.78427 31.8158 3.78427 30.3008V5.53128C3.78427 4.01625 5.01072 2.78979 6.52575 2.78979H42.2372C43.7522 2.78979 44.9787 4.01625 44.9787 5.53128V30.3249C44.9787 31.8158 43.7522 33.0423 42.2612 33.0423ZM6.52575 3.46314C5.39549 3.46314 4.45762 4.40102 4.45762 5.53128V30.3249C4.45762 31.4551 5.39549 32.393 6.52575 32.393H42.2372C43.3674 32.393 44.3053 31.4551 44.3053 30.3249V5.53128C44.3053 4.40102 43.3674 3.46314 42.2372 3.46314H6.52575Z" fill="white"/>
<path d="M8.73831 6.99805H11.1431V9.13833H12.2012V6.99805H14.8465L14.8706 9.13833H15.6642L15.6882 6.99805H18.3335V10.6293L16.7463 11.9279L16.7704 16.8578H21.0028L20.9788 15.2706L19.8004 14.3087L19.7764 10.461H22.3255V12.3367H23.3836V10.461H25.2594V12.3367L26.3175 12.3127V10.4369H28.9868V13.9479L27.6642 15.2706V16.8337L31.9207 16.8578V11.9039L30.598 10.8457V6.99805H33.0028V9.13833H33.9407V6.99805H36.4658L36.4898 9.13833H37.5479V6.99805H39.9527L39.9768 10.8698L38.9187 11.7355L38.8946 23.2546L40.2173 24.3367L40.2413 28.3287H8.59402V24.3367L9.79643 23.2786V11.6634L8.73831 10.7255V6.99805ZM12.8746 12.8658V17.0021H14.077V12.8658H12.8746ZM12.8746 20.7295V24.6013H14.077V20.7295H12.8746ZM34.7103 12.8658V17.0021H35.9127V12.8658H34.7103ZM34.7103 20.7295V24.6013H35.9127V20.7295H34.7103ZM18.069 20.7295V23.6634H19.2714V20.7295H18.069ZM29.5159 20.7295V23.6634H30.7183V20.7295H29.5159ZM21.6521 21.6674V26.477H27.1111V21.6674C27.1111 20.2966 25.8846 19.1664 24.3696 19.1664C22.8786 19.1664 21.6521 20.2726 21.6521 21.6674Z" fill="white"/>
</svg>
